<?xml version="1.0" encoding="utf-8"?>
<!-- Generated by IcoMoon.io -->
<!DOCTYPE svg PUBLIC "-//W3C//DTD SVG 1.1//EN" "http://www.w3.org/Graphics/SVG/1.1/DTD/svg11.dtd">
<svg version="1.1" xmlns="http://www.w3.org/2000/svg" xmlns:xlink="http://www.w3.org/1999/xlink" width="528" height="512" viewBox="0 0 528 512">
<g>
</g>
	<path d="M496 0h-464c-13.152 0-32 18.848-32 32v448c0 13.152 18.848 32 32 32h464c13.152 0 32-18.848 32-32v-448c0-13.152-18.848-32-32-32zM512 480c-0.096 4.544-11.456 15.904-16 16h-464c-4.544-0.096-15.904-11.456-16-16v-448c0.096-4.544 11.456-15.904 16-16h464c4.544 0.096 15.904 11.456 16 16v448zM264 88c-17.648 0-32 14.352-32 32s14.352 32 32 32 32-14.352 32-32-14.352-32-32-32zM264 136c-8.816 0-16-7.184-16-16s7.184-16 16-16 16 7.184 16 16-7.184 16-16 16zM392 344c-17.648 0-32 14.352-32 32s14.352 32 32 32 32-14.352 32-32-14.352-32-32-32zM392 392c-8.816 0-16-7.184-16-16s7.184-16 16-16 16 7.184 16 16-7.184 16-16 16zM136 264c-17.648 0-32 14.352-32 32s14.352 32 32 32 32-14.352 32-32-14.352-32-32-32zM136 312c-8.816 0-16-7.184-16-16s7.184-16 16-16 16 7.184 16 16-7.184 16-16 16zM136 240c4.416 0 8-3.584 8-8v-144c0-4.416-3.584-8-8-8s-8 3.584-8 8v144c0 4.416 3.584 8 8 8zM136 352c-4.416 0-8 3.584-8 8v48c0 4.416 3.584 8 8 8s8-3.584 8-8v-48c0-4.416-3.584-8-8-8zM264 176c-4.416 0-8 3.584-8 8v224c0 4.416 3.584 8 8 8s8-3.584 8-8v-224c0-4.416-3.584-8-8-8zM392 320c4.416 0 8-3.584 8-8v-224c0-4.416-3.584-8-8-8s-8 3.584-8 8v224c0 4.416 3.584 8 8 8z" fill="#000000"></path>
</svg>
