<?xml version="1.0" encoding="utf-8"?>
<!-- Generated by IcoMoon.io -->
<!DOCTYPE svg PUBLIC "-//W3C//DTD SVG 1.1//EN" "http://www.w3.org/Graphics/SVG/1.1/DTD/svg11.dtd">
<svg version="1.1" xmlns="http://www.w3.org/2000/svg" xmlns:xlink="http://www.w3.org/1999/xlink" width="480" height="512" viewBox="0 0 480 512">
<g>
</g>
	<path d="M240 32c-123.52 0-224 100.48-224 224s100.48 224 224 224 224-100.48 224-224-100.48-224-224-224zM240 464c-114.688 0-208-93.312-208-208s93.312-208 208-208 208 93.312 208 208-93.312 208-208 208zM120 0c-66.176 0-120 53.824-120 120v16.992c0 4.416 3.584 8 8 8s8-3.568 8-8v-16.992c0-57.344 46.656-104 104-104h14c4.416 0 8-3.584 8-8s-3.584-8-8-8h-14zM358 0h-14c-4.416 0-8 3.584-8 8s3.584 8 8 8h14c57.344 0 104 46.656 104 104v16.992c0 4.416 3.584 8 8 8s8-3.584 8-8v-16.992c0-66.176-53.824-120-120-120zM240 260.688v-111.584c0-4.416-3.584-8-8-8s-8 3.584-8 8v114.896c0 2.128 0.848 4.16 2.336 5.664l78.624 78.624c1.568 1.568 3.616 2.336 5.664 2.336s4.096-0.784 5.664-2.336c3.12-3.12 3.12-8.192 0-11.312l-76.288-76.288zM30.4 508.8l48-64c2.64-3.536 1.92-8.544-1.616-11.2-3.52-2.624-8.528-1.92-11.2 1.616l-48 64c-2.64 3.536-1.92 8.544 1.616 11.2 1.44 1.072 3.136 1.584 4.8 1.584 2.416 0 4.832-1.104 6.4-3.2zM414.4 435.2c-2.672-3.552-7.664-4.24-11.2-1.616-3.536 2.656-4.256 7.664-1.616 11.2l48 64c1.584 2.096 3.984 3.2 6.4 3.2 1.664 0 3.36-0.512 4.8-1.6 3.536-2.656 4.256-7.664 1.616-11.2l-48-63.984z" fill="#000000"></path>
</svg>
