<?xml version="1.0" encoding="utf-8"?>
<!-- Generated by IcoMoon.io -->
<!DOCTYPE svg PUBLIC "-//W3C//DTD SVG 1.1//EN" "http://www.w3.org/Graphics/SVG/1.1/DTD/svg11.dtd">
<svg version="1.1" xmlns="http://www.w3.org/2000/svg" xmlns:xlink="http://www.w3.org/1999/xlink" width="560" height="512" viewBox="0 0 560 512">
<g>
</g>
	<path d="M12.992 302.336l35.008-35.024v12.688c0 121.424 110.576 232 232 232s232-110.576 232-232v-12.352l35.344 35.344c1.568 1.568 3.616 2.336 5.664 2.336s4.096-0.784 5.664-2.336c3.12-3.12 3.12-8.192 0-11.312l-48.288-48.288c-1.472-2-3.712-3.392-6.384-3.392-0.72 0-1.344 0.224-2.016 0.4-1.472 0.304-2.896 0.864-3.984 1.936l-48.672 48.672c-3.12 3.12-3.12 8.192 0 11.312s8.192 3.12 11.312 0l35.36-35.344v13.024c0 110.368-98.16 210.832-208 215.552v-303.552h136c4.416 0 8-3.584 8-8s-3.584-8-8-8h-136v-64.816c27.072-3.92 48-27.056 48-55.184 0-30.88-25.12-56-56-56s-56 25.12-56 56c0 28.128 20.928 51.264 48 55.184v64.816h-136c-4.416 0-8 3.584-8 8s3.584 8 8 8h136v303.552c-109.84-4.72-208-105.184-208-215.552v-12.688l35.68 35.68c1.568 1.568 3.616 2.336 5.664 2.336s4.096-0.784 5.664-2.336c3.12-3.12 3.12-8.192 0-11.312l-49.328-49.312c-1.456-1.472-3.472-2.368-5.68-2.368s-4.224 0.896-5.664 2.352l-48.656 48.656c-3.12 3.12-3.12 8.192 0 11.312s8.192 3.136 11.312 0.016zM280 16c22.048 0 40 17.936 40 40s-17.952 40-40 40-40-17.936-40-40 17.952-40 40-40z" fill="#000000"></path>
</svg>
