<?xml version="1.0" encoding="utf-8"?>
<!-- Generated by IcoMoon.io -->
<!DOCTYPE svg PUBLIC "-//W3C//DTD SVG 1.1//EN" "http://www.w3.org/Graphics/SVG/1.1/DTD/svg11.dtd">
<svg version="1.1" xmlns="http://www.w3.org/2000/svg" xmlns:xlink="http://www.w3.org/1999/xlink" width="512" height="512" viewBox="0 0 512 512">
<g>
</g>
	<path d="M256 512c141.152 0 256-114.848 256-256s-114.848-256-256-256-256 114.848-256 256 114.848 256 256 256zM123.36 56.16c-14.032 37.824-21.008 76.944-19.936 116.592 0.8 28.768 5.712 57.584 14.672 85.68 6.96 21.76 16.048 42.48 27.056 61.568 1.76 3.072 3.6 6.096 5.456 9.088 1.52 2.432 4.128 3.776 6.8 3.776 1.456 0 2.912-0.384 4.224-1.2 3.744-2.336 4.912-7.264 2.576-11.008-1.76-2.848-3.504-5.728-5.2-8.656-10.416-18.096-19.056-37.744-25.664-58.416-8.496-26.672-13.168-54.016-13.92-81.264-1.136-41.728 6.656-82.928 23.568-123.424 0.784-1.92 1.616-3.808 2.448-5.696 33.12-17.28 70.672-27.2 110.56-27.2 38.288 0 74.368 9.232 106.512 25.248-39.68 6.768-76.944 20.272-110.704 41.008-24.496 15.024-47.008 33.712-66.864 55.536-15.392 16.88-28.784 35.136-39.792 54.208-1.776 3.072-3.504 6.176-5.152 9.296-2.080 3.904-0.592 8.752 3.312 10.816 1.184 0.64 2.48 0.944 3.744 0.944 2.864 0 5.632-1.552 7.056-4.256 1.568-2.944 3.184-5.872 4.88-8.8 10.432-18.096 23.152-35.392 37.76-51.44 18.864-20.704 40.208-38.416 63.424-52.688 35.6-21.84 75.168-35.696 117.664-41.152 2.336-0.32 4.688-0.576 7.040-0.848 62.672 40.112 105.408 108.416 110.352 186.976-25.696-30.96-56.016-56.48-90.848-75.344-25.312-13.712-52.752-23.856-81.552-30.144-25.92-5.68-52.032-8.096-77.488-7.168-4.4 0.176-7.856 3.872-7.696 8.304 0.16 4.32 3.696 7.696 8 7.696 0.096 0 0.192 0 0.304 0 23.936-0.896 48.864 1.408 73.488 6.8 27.312 5.968 53.344 15.6 77.328 28.576 36.72 19.904 68.496 47.248 95.328 82.416 1.152 1.488 2.256 3.008 3.376 4.512-3.44 78.944-44.928 148.128-106.832 189.344 14.032-37.824 21.008-76.944 19.936-116.592-0.8-28.768-5.712-57.584-14.672-85.68-6.96-21.76-16.048-42.48-27.056-61.568-1.76-3.072-3.6-6.096-5.456-9.088-2.336-3.76-7.28-4.88-11.008-2.576-3.744 2.336-4.912 7.264-2.576 11.008 1.76 2.848 3.504 5.728 5.2 8.656 10.416 18.096 19.056 37.744 25.664 58.416 8.496 26.672 13.168 54.016 13.92 81.264 1.136 41.712-6.656 82.928-23.568 123.424-0.8 1.904-1.616 3.808-2.448 5.696-33.136 17.28-70.688 27.2-110.576 27.2-38.288 0-74.368-9.232-106.512-25.248 39.664-6.768 76.944-20.272 110.704-41.008 24.528-15.056 47.024-33.744 66.864-55.536 15.408-16.896 28.8-35.136 39.792-54.224 1.776-3.072 3.504-6.176 5.152-9.296 2.080-3.904 0.592-8.752-3.312-10.816-3.872-2.080-8.752-0.576-10.816 3.312-1.568 2.944-3.184 5.872-4.88 8.8-10.432 18.096-23.152 35.392-37.776 51.44-18.816 20.688-40.16 38.4-63.408 52.688-35.6 21.84-75.168 35.696-117.664 41.152-2.336 0.32-4.688 0.576-7.040 0.848-62.672-40.112-105.408-108.416-110.352-186.976 25.696 30.96 56.016 56.48 90.848 75.344 25.312 13.712 52.752 23.856 81.552 30.144 22.32 4.912 44.8 7.376 66.848 7.376 3.568 0 7.088-0.064 10.64-0.192 4.4-0.176 7.856-3.872 7.696-8.304-0.16-4.4-3.28-8.080-8.304-7.696-23.904 0.912-48.864-1.408-73.488-6.8-27.312-5.968-53.344-15.6-77.328-28.576-36.72-19.904-68.496-47.248-95.328-82.416-1.152-1.488-2.256-3.008-3.376-4.512 3.456-78.944 44.96-148.128 106.848-189.344z" fill="#000000"></path>
</svg>
