<?xml version="1.0" encoding="utf-8"?>
<!-- Generated by IcoMoon.io -->
<!DOCTYPE svg PUBLIC "-//W3C//DTD SVG 1.1//EN" "http://www.w3.org/Graphics/SVG/1.1/DTD/svg11.dtd">
<svg version="1.1" xmlns="http://www.w3.org/2000/svg" xmlns:xlink="http://www.w3.org/1999/xlink" width="512" height="512" viewBox="0 0 512 512">
<g>
</g>
	<path d="M303.776 263.536c2.624 0.288 5.232 0.416 7.84 0.416 19.456 0 38.112-7.696 52.128-21.712l118.48-118.48c13.856-13.856 21.584-32.224 21.696-51.696 0.144-19.52-7.344-37.824-21.056-51.552-13.6-13.6-31.68-21.072-51.008-21.072-0.176 0-0.336 0-0.528 0-19.472 0.128-37.824 7.84-51.68 21.696l-118.48 118.48c-17.52 17.52-25.104 42.384-20.304 66.512 0.928 4.64 5.536 7.664 10.064 6.704 4.64-0.928 7.648-5.424 6.72-10.048-3.696-18.512 2.144-37.616 15.616-51.072l118.48-118.48c10.656-10.672 24.768-16.592 39.712-16.688 15.6 0 28.88 5.6 39.328 16.048s16.16 24.432 16.064 39.328c-0.112 14.96-6.032 29.056-16.704 39.712l-118.48 118.48c-12.224 12.208-29.008 18.128-46.064 16.384-4.56-0.528-8.912 2.896-9.408 7.6-0.512 4.736 2.896 8.944 7.584 9.44zM242.24 372.368c18.368-18.368 25.728-44.304 19.664-69.344-1.104-4.592-5.616-7.456-10.336-6.304-4.592 1.104-7.408 5.728-6.304 10.32 4.656 19.216-1.008 39.104-15.136 53.248l-118.48 118.48c-10.656 10.672-24.768 16.592-39.712 16.688-15.344 0.080-28.88-5.584-39.328-16.048-10.448-10.448-16.16-24.416-16.048-39.328 0.096-14.96 6.032-29.056 16.688-39.728l118.48-118.48c12.336-12.336 29.152-18.304 46.496-16.336 4.608 0.352 8.944-2.832 9.472-7.536 0.528-4.688-2.832-8.928-7.536-9.472-22.464-2.528-44.48 5.184-60.528 21.232l-118.48 118.48c-13.856 13.856-21.568 32.224-21.696 51.696-0.144 19.52 7.344 37.824 21.056 51.552 13.6 13.6 31.68 21.072 51.008 21.072 0.176 0 0.336 0 0.528 0 19.472-0.128 37.824-7.84 51.68-21.696l118.512-118.496zM363.744 141.952c-3.344-3.344-8.752-3.344-12.096 0l-216 216c-3.344 3.328-3.344 8.752 0 12.096 1.664 1.664 3.856 2.512 6.048 2.512s4.368-0.832 6.048-2.512l216-216c3.344-3.344 3.344-8.752 0-12.096z" fill="#000000"></path>
</svg>
