<?xml version="1.0" encoding="utf-8"?>
<!-- Generated by IcoMoon.io -->
<!DOCTYPE svg PUBLIC "-//W3C//DTD SVG 1.1//EN" "http://www.w3.org/Graphics/SVG/1.1/DTD/svg11.dtd">
<svg version="1.1" xmlns="http://www.w3.org/2000/svg" xmlns:xlink="http://www.w3.org/1999/xlink" width="576" height="512" viewBox="0 0 576 512">
<g>
</g>
	<path d="M416 168v320c0 2.816 0.576 5.488 1.472 8h-50.944c0.896-2.512 1.472-5.184 1.472-8v-464c0-13.232-10.768-24-24-24h-112c-13.232 0-24 10.768-24 24v464c0 2.816 0.576 5.488 1.472 8h-50.944c0.896-2.512 1.472-5.184 1.472-8v-176c0-13.232-10.768-24-24-24h-112c-13.232 0-24 10.768-24 24v176c0 13.232 10.768 24 24 24h528c13.232 0 24-10.768 24-24v-320c0-13.232-10.768-24-24-24h-112c-13.232 0-24 10.768-24 24zM80 496h-56c-4.4 0-8-3.584-8-8v-176c0-4.416 3.6-8 8-8h112c4.4 0 8 3.584 8 8v176c0 4.416-3.6 8-8 8h-56zM232 496c-4.4 0-8-3.584-8-8v-464c0-4.416 3.6-8 8-8h112c4.4 0 8 3.584 8 8v464c0 4.416-3.6 8-8 8h-112zM560 168v320c0 4.416-3.6 8-8 8h-112c-4.4 0-8-3.584-8-8v-320c0-4.416 3.6-8 8-8h112c4.4 0 8 3.584 8 8z" fill="#000000"></path>
</svg>
