<?xml version="1.0" encoding="utf-8"?>
<!-- Generated by IcoMoon.io -->
<!DOCTYPE svg PUBLIC "-//W3C//DTD SVG 1.1//EN" "http://www.w3.org/Graphics/SVG/1.1/DTD/svg11.dtd">
<svg version="1.1" xmlns="http://www.w3.org/2000/svg" xmlns:xlink="http://www.w3.org/1999/xlink" width="672" height="512" viewBox="0 0 672 512">
<g>
</g>
	<path d="M632 224h-592c-2.464 0-4.8 1.136-6.32 3.072s-2.048 4.464-1.456 6.864l64.096 256.272c1.536 5.392 6.256 21.792 23.68 21.792h432c17.488 0 22.16-16.416 23.76-22.064l64-256c0.592-2.384 0.064-4.928-1.456-6.864-1.504-1.936-3.84-3.072-6.304-3.072zM560.32 485.808c-2.912 10.192-5.92 10.192-8.32 10.192h-432c-2.384 0-5.376 0-8.24-9.936l-61.504-246.064h571.504l-61.44 245.808zM296 448c4.416 0 8-3.584 8-8v-144c0-4.416-3.584-8-8-8s-8 3.584-8 8v144c0 4.416 3.584 8 8 8zM183.984 448c0.304 0 0.592-0.016 0.912-0.048 4.384-0.496 7.552-4.448 7.056-8.832l-16-144c-0.48-4.4-4.32-7.504-8.848-7.072-4.384 0.496-7.552 4.448-7.056 8.832l16 144c0.448 4.096 3.92 7.12 7.936 7.12zM392 448c4.416 0 8-3.584 8-8v-144c0-4.416-3.584-8-8-8s-8 3.584-8 8v144c0 4.416 3.584 8 8 8zM487.104 447.952c0.32 0.032 0.608 0.048 0.912 0.048 4.016 0 7.488-3.024 7.936-7.12l16-144c0.48-4.384-2.672-8.336-7.056-8.832-4.592-0.448-8.352 2.672-8.848 7.072l-16 144c-0.48 4.384 2.672 8.336 7.056 8.832zM552 192c1.856 0 3.712-0.64 5.232-1.952 3.344-2.896 3.696-7.936 0.816-11.28l-152-176c-2.896-3.36-7.936-3.696-11.28-0.832-3.344 2.896-3.696 7.936-0.816 11.28l152 176c1.584 1.84 3.808 2.784 6.048 2.784zM285.056 1.808c-3.408-2.768-8.448-2.304-11.248 1.136l-144 176c-2.8 3.408-2.304 8.448 1.12 11.264 1.488 1.2 3.296 1.792 5.072 1.792 2.32 0 4.608-0.992 6.192-2.944l144-176c2.8-3.408 2.288-8.448-1.136-11.248zM664 160h-64c-4.416 0-8 3.584-8 8s3.584 8 8 8h64c4.416 0 8-3.584 8-8s-3.584-8-8-8zM216 176h256c4.416 0 8-3.584 8-8s-3.584-8-8-8h-256c-4.416 0-8 3.584-8 8s3.584 8 8 8zM8 176h80c4.416 0 8-3.584 8-8s-3.584-8-8-8h-80c-4.416 0-8 3.584-8 8s3.584 8 8 8z" fill="#000000"></path>
</svg>
