<?xml version="1.0" encoding="utf-8"?>
<!-- Generated by IcoMoon.io -->
<!DOCTYPE svg PUBLIC "-//W3C//DTD SVG 1.1//EN" "http://www.w3.org/Graphics/SVG/1.1/DTD/svg11.dtd">
<svg version="1.1" xmlns="http://www.w3.org/2000/svg" xmlns:xlink="http://www.w3.org/1999/xlink" width="432" height="512" viewBox="0 0 432 512">
<g>
</g>
	<path d="M280 16c4.416 0 8-3.584 8-8s-3.584-8-8-8h-144c-4.416 0-8 3.584-8 8s3.584 8 8 8h144zM15.84 442.16c-17.184 24.176-15.264 39.968-10.624 48.96 4.912 9.52 17.712 20.88 50.784 20.88h320c33.072 0 45.872-11.36 50.784-20.896 4.64-8.992 6.56-24.784-10.368-48.544l-99.504-159.2-1.408-1.984c-7.152-10.208-43.504-73.024-43.504-125.376v-116c0-4.416-3.584-8-8-8h-112c-4.416 0-8 3.584-8 8v116c0 55.856-39.44 127.312-39.888 128.080l-88.272 158.080zM412.576 483.76c-4.016 7.792-17.344 12.24-36.576 12.24h-320c-19.232 0-32.56-4.448-36.576-12.24-3.664-7.104-0.32-18.592 9.92-33.056l79.984-143.168 0.112 0.064c14.56 8.4 29.616 17.088 59.504 17.088s44.96-8.672 59.504-17.056c13.328-7.68 25.904-14.944 51.52-14.944 9.712 0 18.128 1.2 25.872 3.36l97.28 155.392c9.776 13.728 13.12 25.216 9.456 32.32zM160 156v-108h96v108c0 45.44 24.256 96.672 38.464 121.632-4.64-0.528-9.36-0.944-14.48-0.944-29.904 0-44.96 8.672-59.504 17.056-13.328 7.68-25.904 14.944-51.52 14.944s-38.192-7.264-51.504-14.944l-0.304-0.176 0.736-1.312c0.4-0.64 42.112-74.976 42.112-136.256z" fill="#000000"></path>
</svg>
