<?xml version="1.0" encoding="utf-8"?>
<!-- Generated by IcoMoon.io -->
<!DOCTYPE svg PUBLIC "-//W3C//DTD SVG 1.1//EN" "http://www.w3.org/Graphics/SVG/1.1/DTD/svg11.dtd">
<svg version="1.1" xmlns="http://www.w3.org/2000/svg" xmlns:xlink="http://www.w3.org/1999/xlink" width="896" height="512" viewBox="0 0 896 512">
<g>
</g>
	<path d="M728 176c-30.784 0-59.568 8.464-84.416 22.976l-108.816-166.976h153.584c-0.208 7.968-2.064 21.296-11.184 31.776-9.392 10.768-24.576 16.224-45.168 16.224-4.416 0-8 3.584-8 8s3.584 8 8 8c25.424 0 44.672-7.296 57.216-21.696 18.608-21.376 14.88-50.176 14.704-51.392-0.544-3.952-3.92-6.912-7.92-6.912h-176c-2.944 0-5.648 1.616-7.024 4.192-1.408 2.576-1.28 5.712 0.336 8.192l45.296 69.504h-253.84l-49.328-81.888h88.56c4.416 0 8-3.584 8-8s-3.584-8-8-8h-144c-4.416 0-8 3.584-8 8s3.584 8 8 8h37.024c0.16 0.368 0.192 0.768 0.4 1.12l54.592 90.592-48.864 86.24c-22.64-11.376-48.112-17.952-75.152-17.952-92.64 0-168 75.36-168 168s75.36 168 168 168c89.408 0 162.512-70.256 166.72-160h177.28c0.464 9.264-1.536 21.888-10.304 31.824-9.472 10.736-24.848 16.176-45.696 16.176-4.416 0-8 3.584-8 8s3.584 8 8 8c25.728 0 45.184-7.312 57.824-21.728 18.272-20.864 14.832-48.576 14.688-49.744-0.528-3.984-3.92-6.96-7.936-6.96h-62.848l112.752-221.44 59.68 91.584c-42.4 30.512-70.16 80.16-70.16 136.288 0 92.64 75.36 168 168 168s168-75.36 168-168-75.36-168-168-168zM553.68 112l-109.568 217.088-129.696-217.088h239.264zM301.488 123.44l129.040 214.128h-94.848c-2.176-57.2-32.992-107.072-78.592-135.744l44.4-78.384zM319.68 337.568h-139.504l69.024-121.84c40.768 25.904 68.304 70.592 70.48 121.84zM168 496c-83.808 0-152-68.192-152-152s68.192-152 152-152c24.16 0 46.944 5.824 67.264 15.888l-75.776 133.728c-1.408 2.464-1.392 5.504 0.048 7.968 1.424 2.448 4.064 3.968 6.912 2.4h153.072c-4.976 80.928-70.928 144.016-151.52 144.016zM728 496c-83.808 0-152-68.192-152-152 0-50.512 24.864-95.232 62.912-122.88l83.952 128.816c1.536 2.336 4.096 3.632 6.704 3.632 1.504 0 3.008-0.416 4.368-1.296 3.68-2.4 4.736-7.376 2.336-11.072l-83.952-128.816c22.32-12.896 48.112-20.384 75.68-20.384 83.808 0 152 68.192 152 152s-68.192 152-152 152z" fill="#000000"></path>
</svg>
