<?xml version="1.0" encoding="utf-8"?>
<!-- Generated by IcoMoon.io -->
<!DOCTYPE svg PUBLIC "-//W3C//DTD SVG 1.1//EN" "http://www.w3.org/Graphics/SVG/1.1/DTD/svg11.dtd">
<svg version="1.1" xmlns="http://www.w3.org/2000/svg" xmlns:xlink="http://www.w3.org/1999/xlink" width="672" height="512" viewBox="0 0 672 512">
<g>
</g>
	<path d="M600 16h-256c-6.352 0-11.84 2.176-16 5.792-4.16-3.616-9.648-5.792-16-5.792h-256c-13.904 0-24 10.096-24 24v448c0 13.904 10.096 24 24 24h256c6.352 0 11.84-2.176 16-5.792 4.16 3.616 9.648 5.792 16 5.792h256c13.904 0 24-10.096 24-24v-448c0-13.904-10.096-24-24-24zM312 496h-256c-5.008 0-8-2.992-8-8v-448c0-5.008 2.992-8 8-8h256c5.008 0 8 2.992 8 8v448c0 5.008-2.992 8-8 8zM608 488c0 5.008-2.992 8-8 8h-256c-5.008 0-8-2.992-8-8v-448c0-5.008 2.992-8 8-8h256c5.008 0 8 2.992 8 8v448zM648 48c-4.416 0-8 3.584-8 8v416c0 4.416 3.584 8 8 8s8-3.584 8-8v-416c0-4.416-3.584-8-8-8zM8 480c4.416 0 8-3.584 8-8v-416c0-4.416-3.584-8-8-8s-8 3.584-8 8v416c0 4.416 3.584 8 8 8zM280 160h-192c-4.416 0-8 3.584-8 8s3.584 8 8 8h192c4.416 0 8-3.584 8-8s-3.584-8-8-8zM280 224h-192c-4.416 0-8 3.584-8 8s3.584 8 8 8h192c4.416 0 8-3.584 8-8s-3.584-8-8-8zM280 96h-192c-4.416 0-8 3.584-8 8s3.584 8 8 8h192c4.416 0 8-3.584 8-8s-3.584-8-8-8zM280 288h-192c-4.416 0-8 3.584-8 8s3.584 8 8 8h192c4.416 0 8-3.584 8-8s-3.584-8-8-8zM280 352h-192c-4.416 0-8 3.584-8 8s3.584 8 8 8h192c4.416 0 8-3.584 8-8s-3.584-8-8-8zM280 416h-192c-4.416 0-8 3.584-8 8s3.584 8 8 8h192c4.416 0 8-3.584 8-8s-3.584-8-8-8zM568 160h-192c-4.416 0-8 3.584-8 8s3.584 8 8 8h192c4.416 0 8-3.584 8-8s-3.584-8-8-8zM568 224h-192c-4.416 0-8 3.584-8 8s3.584 8 8 8h192c4.416 0 8-3.584 8-8s-3.584-8-8-8zM568 96h-192c-4.416 0-8 3.584-8 8s3.584 8 8 8h192c4.416 0 8-3.584 8-8s-3.584-8-8-8zM568 288h-192c-4.416 0-8 3.584-8 8s3.584 8 8 8h192c4.416 0 8-3.584 8-8s-3.584-8-8-8zM568 352h-192c-4.416 0-8 3.584-8 8s3.584 8 8 8h192c4.416 0 8-3.584 8-8s-3.584-8-8-8zM568 416h-192c-4.416 0-8 3.584-8 8s3.584 8 8 8h192c4.416 0 8-3.584 8-8s-3.584-8-8-8z" fill="#000000"></path>
</svg>
