<?xml version="1.0" encoding="utf-8"?>
<!-- Generated by IcoMoon.io -->
<!DOCTYPE svg PUBLIC "-//W3C//DTD SVG 1.1//EN" "http://www.w3.org/Graphics/SVG/1.1/DTD/svg11.dtd">
<svg version="1.1" xmlns="http://www.w3.org/2000/svg" xmlns:xlink="http://www.w3.org/1999/xlink" width="608" height="512" viewBox="0 0 608 512">
<g>
</g>
	<path d="M600 288c-4.416 0-8 3.584-8 8v192c0 4.416-3.584 8-8 8h-560c-4.416 0-8-3.584-8-8v-192c0-4.416-3.584-8-8-8s-8 3.584-8 8v192c0 13.232 10.768 24 24 24h560c13.232 0 24-10.768 24-24v-192c0-4.416-3.584-8-8-8zM408 80c4.416 0 8-3.584 8-8v-48c0-13.232-10.768-24-24-24h-176c-13.232 0-24 10.768-24 24v48c0 4.416 3.584 8 8 8s8-3.584 8-8v-48c0-4.416 3.584-8 8-8h176c4.416 0 8 3.584 8 8v48c0 4.416 3.584 8 8 8zM584 112h-560c-13.232 0-24 10.768-24 24v79.328c0 44.448 151.296 104 306 104 152.688 0 302-59.552 302-104v-79.328c0-13.232-10.768-24-24-24zM592 215.328c0 28.224-135.312 88-286 88-152.8 0-290-59.76-290-88v-79.328c0-4.416 3.584-8 8-8h560c4.416 0 8 3.584 8 8v79.328zM306 368c15.088 0 30.768-0.624 46.624-1.856 4.4-0.336 7.696-4.192 7.344-8.608-0.336-4.4-4.032-7.776-8.608-7.344-32.224 2.512-62.544 2.4-94.704-0.32-4.224-0.432-8.272 2.896-8.64 7.296s2.896 8.272 7.296 8.64c17.216 1.456 34.272 2.192 50.688 2.192z" fill="#000000"></path>
</svg>
