<?xml version="1.0" encoding="utf-8"?>
<!-- Generated by IcoMoon.io -->
<!DOCTYPE svg PUBLIC "-//W3C//DTD SVG 1.1//EN" "http://www.w3.org/Graphics/SVG/1.1/DTD/svg11.dtd">
<svg version="1.1" xmlns="http://www.w3.org/2000/svg" xmlns:xlink="http://www.w3.org/1999/xlink" width="672" height="512" viewBox="0 0 672 512">
<g>
</g>
	<path d="M664 160c-4.416 0-8 3.584-8 8v320c0 4.416-3.584 8-8 8h-624c-4.416 0-8-3.584-8-8v-320c0-4.416-3.584-8-8-8s-8 3.584-8 8v320c0 13.232 10.768 24 24 24h624c13.232 0 24-10.768 24-24v-320c0-4.416-3.584-8-8-8zM648 0h-624c-13.232 0-24 10.768-24 24v96c0 4.416 3.584 8 8 8h656c4.416 0 8-3.584 8-8v-96c0-13.232-10.768-24-24-24zM656 112h-640v-88c0-4.416 3.584-8 8-8h624c4.416 0 8 3.584 8 8v88zM280 448c4.416 0 8-3.584 8-8v-256c0-4.416-3.584-8-8-8h-208c-4.416 0-8 3.584-8 8v256c0 4.416 3.584 8 8 8h208zM80 192h192v240h-192v-240zM360 240h240c4.416 0 8-3.584 8-8s-3.584-8-8-8h-240c-4.416 0-8 3.584-8 8s3.584 8 8 8zM360 320h240c4.416 0 8-3.584 8-8s-3.584-8-8-8h-240c-4.416 0-8 3.584-8 8s3.584 8 8 8zM360 400h240c4.416 0 8-3.584 8-8s-3.584-8-8-8h-240c-4.416 0-8 3.584-8 8s3.584 8 8 8zM48 64c0 8.837 7.163 16 16 16s16-7.163 16-16c0-8.837-7.163-16-16-16s-16 7.163-16 16zM112 64c0 8.837 7.163 16 16 16s16-7.163 16-16c0-8.837-7.163-16-16-16s-16 7.163-16 16zM176 64c0 8.837 7.163 16 16 16s16-7.163 16-16c0-8.837-7.163-16-16-16s-16 7.163-16 16z" fill="#000000"></path>
</svg>
