<?xml version="1.0" encoding="utf-8"?>
<!-- Generated by IcoMoon.io -->
<!DOCTYPE svg PUBLIC "-//W3C//DTD SVG 1.1//EN" "http://www.w3.org/Graphics/SVG/1.1/DTD/svg11.dtd">
<svg version="1.1" xmlns="http://www.w3.org/2000/svg" xmlns:xlink="http://www.w3.org/1999/xlink" width="544" height="512" viewBox="0 0 544 512">
<g>
</g>
	<path d="M544 488v-304c0-4.416-3.584-8-8-8s-8 3.584-8 8v304c0 4.416-3.584 8-8 8h-496c-4.416 0-8-3.584-8-8v-304c0-4.416-3.584-8-8-8s-8 3.584-8 8v304c0 13.232 10.768 24 24 24h496c13.232 0 24-10.768 24-24zM72 368c-4.416 0-8 3.584-8 8s3.584 8 8 8h24v56c0 4.416 3.584 8 8 8s8-3.584 8-8v-56h96v56c0 4.416 3.584 8 8 8s8-3.584 8-8v-56h96v56c0 4.416 3.584 8 8 8s8-3.584 8-8v-56h96v56c0 4.416 3.584 8 8 8s8-3.584 8-8v-56h24c4.416 0 8-3.584 8-8s-3.584-8-8-8h-24v-80h24c4.416 0 8-3.584 8-8s-3.584-8-8-8h-24v-72c0-4.416-3.584-8-8-8s-8 3.584-8 8v72h-96v-72c0-4.416-3.584-8-8-8s-8 3.584-8 8v72h-96v-72c0-4.416-3.584-8-8-8s-8 3.584-8 8v72h-96v-72c0-4.416-3.584-8-8-8s-8 3.584-8 8v72h-24c-4.416 0-8 3.584-8 8s3.584 8 8 8h24v80h-24zM432 288v80h-96v-80h96zM320 288v80h-96v-80h96zM112 288h96v80h-96v-80zM456 48h68c1.392 0 4 0 4 8v72h-512v-72c0-4.416 3.584-8 8-8h64c4.416 0 8-3.584 8-8s-3.584-8-8-8h-64c-13.232 0-24 10.768-24 24v80c0 4.416 3.584 8 8 8h528c4.416 0 8-3.584 8-8v-80c0-17.696-10.336-24-20-24h-68c-4.416 0-8 3.584-8 8s3.584 8 8 8zM360 48c4.416 0 8-3.584 8-8s-3.584-8-8-8h-176c-4.416 0-8 3.584-8 8s3.584 8 8 8h176zM144 72v-64c0-4.416-3.584-8-8-8s-8 3.584-8 8v64c0 4.416 3.584 8 8 8s8-3.584 8-8zM408 80c4.416 0 8-3.584 8-8v-64c0-4.416-3.584-8-8-8s-8 3.584-8 8v64c0 4.416 3.584 8 8 8z" fill="#000000"></path>
</svg>
