<?xml version="1.0" encoding="utf-8"?>
<!-- Generated by IcoMoon.io -->
<!DOCTYPE svg PUBLIC "-//W3C//DTD SVG 1.1//EN" "http://www.w3.org/Graphics/SVG/1.1/DTD/svg11.dtd">
<svg version="1.1" xmlns="http://www.w3.org/2000/svg" xmlns:xlink="http://www.w3.org/1999/xlink" width="672" height="512" viewBox="0 0 672 512">
<g>
</g>
	<path d="M632 96h-120c-30.832 0-31.968-28.752-32-32v-16c0-20.128-22.24-48-64-48h-159.504c-46.96 0-64 28.704-64 48v15.904c-0.016 1.312-0.768 32.096-32.496 32.096h-120c-22.064 0-40 17.952-40 40v288c0 22.048 17.936 40 40 40h96c4.416 0 8-3.584 8-8s-3.584-8-8-8h-96c-13.232 0-24-10.768-24-24v-200h128c-10.304 24.64-16 51.664-16 80 0 114.688 93.312 208 208 208s208-93.312 208-208c0-28.336-5.744-55.36-16.048-80h128.048v200c0 13.232-10.768 24-24 24h-112c-4.416 0-8 3.584-8 8s3.584 8 8 8h112c22.064 0 40-17.952 40-40v-288c0-22.048-17.936-40-40-40zM336 496c-105.872 0-192-86.128-192-192s86.128-192 192-192 192 86.128 192 192-86.128 192-192 192zM524 208c-1.184 0-2.288 0.288-3.296 0.752-34.624-66.864-104.352-112.752-184.704-112.752s-150.080 45.888-184.704 112.752c-1.008-0.464-2.112-0.752-3.296-0.752h-132v-72c0-13.232 10.768-24 24-24h120c37.888 0 48.304-31.328 48.496-48v-16c0-12.864 12.784-32 48-32h159.504c33.504 0 48 21.184 48 32v16c0 16.608 10.032 48 48 48h120c13.232 0 24 10.768 24 24v72h-132zM152 80c4.416 0 8-3.584 8-8v-16c0-13.232-10.768-24-24-24h-64c-13.232 0-24 10.768-24 24v16c0 4.416 3.584 8 8 8s8-3.584 8-8v-16c0-4.416 3.6-8 8-8h64c4.4 0 8 3.584 8 8v16c0 4.416 3.584 8 8 8zM336 160c-79.408 0-144 64.608-144 144s64.592 144 144 144 144-64.608 144-144-64.592-144-144-144zM336 432c-70.576 0-128-57.424-128-128s57.424-128 128-128 128 57.424 128 128-57.424 128-128 128z" fill="#000000"></path>
</svg>
