<?xml version="1.0" encoding="utf-8"?>
<!-- Generated by IcoMoon.io -->
<!DOCTYPE svg PUBLIC "-//W3C//DTD SVG 1.1//EN" "http://www.w3.org/Graphics/SVG/1.1/DTD/svg11.dtd">
<svg version="1.1" xmlns="http://www.w3.org/2000/svg" xmlns:xlink="http://www.w3.org/1999/xlink" width="560" height="512" viewBox="0 0 560 512">
<g>
</g>
	<path d="M348.784 47.264c-17.68-30.464-41.744-47.264-67.76-47.264s-50.096 16.8-67.776 47.264l-196.304 338.128c-17.92 31.152-19.84 63.504-5.28 88.736 13.856 24 41.040 37.808 74.624 37.872h389.456c0 0 0 0 0.016 0 33.632-0.064 60.864-13.824 74.672-37.776 14.48-25.072 12.528-57.296-5.36-88.4l-196.288-338.56zM536.592 466.224c-10.896 18.88-33.072 29.728-60.864 29.776h-389.424c-27.696-0.048-49.84-10.944-60.784-29.872-11.632-20.16-9.696-46.672 5.28-72.736l196.288-338.096c14.704-25.344 33.856-39.296 53.936-39.296s39.232 13.952 53.92 39.296l196.288 338.512c14.96 26.016 16.912 52.416 5.36 72.416zM281.024 320c4.416 0 8-3.584 8-8v-160c0-4.416-3.584-8-8-8s-8 3.584-8 8v160c0 4.416 3.584 8 8 8zM280 360c-17.648 0-32 14.352-32 32s14.352 32 32 32 32-14.352 32-32-14.352-32-32-32zM280 408c-8.816 0-16-7.168-16-16s7.184-16 16-16 16 7.168 16 16-7.184 16-16 16z" fill="#000000"></path>
</svg>
