<?xml version="1.0" encoding="utf-8"?>
<!-- Generated by IcoMoon.io -->
<!DOCTYPE svg PUBLIC "-//W3C//DTD SVG 1.1//EN" "http://www.w3.org/Graphics/SVG/1.1/DTD/svg11.dtd">
<svg version="1.1" xmlns="http://www.w3.org/2000/svg" xmlns:xlink="http://www.w3.org/1999/xlink" width="672" height="512" viewBox="0 0 672 512">
<g>
</g>
	<path d="M570.432 224.368c-4.224-1.312-8.704 0.992-10.048 5.2-1.328 4.208 0.992 8.704 5.2 10.048 62.528 19.92 90.416 49.632 90.416 96.384 0 41.584-37.936 73.856-60.528 89.408-2.176 1.504-3.472 3.952-3.472 6.592v61.168c-11.68-4.352-32.048-14.24-50.016-34.48-1.872-2.096-4.72-3.056-7.488-2.544-4.56 0.88-9.216 2.128-13.936 3.392-8.16 2.192-16.576 4.464-24.56 4.464-41.088 0-69.856-8.832-99.264-30.448-3.584-2.624-8.56-1.84-11.184 1.712-2.624 3.568-1.856 8.56 1.696 11.184 32.432 23.84 63.936 33.552 108.752 33.552 10.096 0 19.568-2.544 28.72-5.008 2.848-0.784 5.68-1.552 8.48-2.208 29.904 31.584 63.728 38.768 65.2 39.056 0.528 0.112 1.056 0.16 1.6 0.16 1.824 0 3.632-0.624 5.056-1.808 1.872-1.52 2.944-3.792 2.944-6.192v-67.824c41.312-29.456 64-64.912 64-100.176 0-54.096-32.272-89.568-101.568-111.632zM528 216c0-123.136-112.288-216-261.168-216-149.632 0-266.832 94.896-266.832 216.032 0 72.624 51.376 124.656 96 156.144v106.176c0 2.72 1.376 5.232 3.648 6.72 1.328 0.848 2.832 1.28 4.352 1.28 1.104 0 2.224-0.24 3.28-0.704 2.336-1.040 56.944-25.856 103.664-76.944 20.24 3.76 43.136 7.376 63.904 7.376 151.408 0 253.152-80.416 253.152-200.080zM274.832 400.080c-20.96 0-44.784-4.016-65.328-7.936-2.768-0.496-5.616 0.448-7.488 2.544-32.8 36.992-71.344 60.496-90.016 70.624v-97.312c0-2.64-1.296-5.088-3.472-6.592-42.208-29.040-92.528-77.808-92.528-145.376 0-112.176 110.176-200.032 250.832-200.032 139.776 0 245.168 85.984 245.168 200 0 110.112-95.312 184.080-237.168 184.080zM264 184c-17.648 0-32 14.352-32 32s14.352 32 32 32 32-14.352 32-32-14.352-32-32-32zM264 232c-8.816 0-16-7.168-16-16s7.184-16 16-16 16 7.168 16 16-7.184 16-16 16zM376 184c-17.648 0-32 14.352-32 32s14.352 32 32 32 32-14.352 32-32-14.352-32-32-32zM376 232c-8.816 0-16-7.168-16-16s7.184-16 16-16 16 7.168 16 16-7.184 16-16 16zM152 185.52c-17.648 0-32 14.352-32 32s14.352 32 32 32 32-14.352 32-32-14.352-32-32-32zM152 233.52c-8.816 0-16-7.168-16-16s7.184-16 16-16 16 7.168 16 16-7.184 16-16 16z" fill="#000000"></path>
</svg>
