<?xml version="1.0" encoding="utf-8"?>
<!-- Generated by IcoMoon.io -->
<!DOCTYPE svg PUBLIC "-//W3C//DTD SVG 1.1//EN" "http://www.w3.org/Graphics/SVG/1.1/DTD/svg11.dtd">
<svg version="1.1" xmlns="http://www.w3.org/2000/svg" xmlns:xlink="http://www.w3.org/1999/xlink" width="368" height="512" viewBox="0 0 368 512">
<g>
</g>
	<path d="M184.224 96c4.416 0 8-3.584 8-8v-24h7.776c4.416 0 8-3.584 8-8v-48c0-4.416-3.584-8-8-8h-32c-4.416 0-8 3.584-8 8v48c0 4.416 3.584 8 8 8h8.224v24c0 4.416 3.568 8 8 8zM176 16h16v32h-16v-32zM4.288 509.072c1.184 0.624 2.448 0.928 3.712 0.928 2.88 0 5.664-1.568 7.072-4.288l68.672-130.768c30.8 15.472 64.944 23.84 100.464 23.84 35.424 0 69.504-8.336 100.24-23.728l68.448 130.656c1.44 2.72 4.224 4.288 7.088 4.288 1.248 0 2.528-0.304 3.712-0.912 3.904-2.064 5.424-6.896 3.376-10.816l-68.608-130.96c15.856-9.44 30.752-20.672 44.128-34.048 15.6-15.6 15.6-40.976 0-56.56-15.12-15.12-41.504-15.088-56.56 0-7.568 7.568-15.904 14.080-24.72 19.68l-37.728-72.016c14.608-11.664 24.176-29.392 24.176-49.488 0-35.040-28.512-63.568-63.568-63.568s-63.52 28.528-63.52 63.584c0 20.080 9.536 37.792 24.112 49.456l-37.808 71.968c-8.768-5.6-17.056-12.080-24.576-19.6-15.12-15.12-41.504-15.088-56.56 0-15.6 15.6-15.6 40.976 0 56.56 13.312 13.312 28.144 24.512 43.92 33.92l-68.832 131.072c-2.064 3.92-0.56 8.752 3.36 10.8zM54.112 280.992c6.416 0 12.448 2.496 16.992 7.024 30.176 30.176 70.336 46.784 113.12 46.784s82.976-16.608 113.152-46.784c9.056-9.072 24.88-9.040 33.936 0 9.36 9.36 9.36 24.576 0 33.936-39.232 39.216-91.488 60.832-147.088 60.832-55.632 0-107.84-21.616-147.056-60.832-9.36-9.36-9.36-24.576 0-33.936 4.512-4.512 10.528-7.024 16.944-7.024zM136.672 174.896c0-26.224 21.328-47.568 47.552-47.568s47.568 21.344 47.568 47.568-21.344 47.568-47.568 47.568-47.552-21.36-47.552-47.568zM158.384 232.848c7.904 3.536 16.624 5.616 25.84 5.616 9.184 0 17.872-2.048 25.76-5.568l37.36 71.312c-19.424 9.472-40.848 14.624-63.12 14.624-22.336 0-43.808-5.168-63.264-14.688l37.424-71.296z" fill="#000000"></path>
</svg>
