<?xml version="1.0" encoding="utf-8"?>
<!-- Generated by IcoMoon.io -->
<!DOCTYPE svg PUBLIC "-//W3C//DTD SVG 1.1//EN" "http://www.w3.org/Graphics/SVG/1.1/DTD/svg11.dtd">
<svg version="1.1" xmlns="http://www.w3.org/2000/svg" xmlns:xlink="http://www.w3.org/1999/xlink" width="448" height="512" viewBox="0 0 448 512">
<g>
</g>
	<path d="M24 512h400c13.904 0 24-10.096 24-24v-448c0-13.904-10.096-24-24-24h-64c-4.416 0-8 3.584-8 8s3.584 8 8 8h64c5.008 0 8 2.992 8 8v448c0 5.008-2.992 8-8 8h-400c-5.008 0-8-2.992-8-8v-448c0-5.008 2.992-8 8-8h64c4.416 0 8-3.584 8-8s-3.584-8-8-8h-64c-13.904 0-24 10.096-24 24v448c0 13.904 10.096 24 24 24zM88 80c4.416 0 8-3.584 8-8s-3.584-8-8-8h-32c-4.416 0-8 3.584-8 8v384c0 4.416 3.584 8 8 8h336c4.416 0 8-3.584 8-8v-384c0-4.416-3.584-8-8-8h-32c-4.416 0-8 3.584-8 8s3.584 8 8 8h24v368h-320v-368h24zM144 112h160c19.44 0 32-12.56 32-32v-72c0-4.416-3.584-8-8-8h-208c-4.416 0-8 3.584-8 8v72c0 19.44 12.56 32 32 32zM128 16h192v64c0 10.624-5.392 16-16 16h-160c-10.608 0-16-5.376-16-16v-64zM136 256h176c4.416 0 8-3.584 8-8s-3.584-8-8-8h-176c-4.416 0-8 3.584-8 8s3.584 8 8 8zM136 192h176c4.416 0 8-3.584 8-8s-3.584-8-8-8h-176c-4.416 0-8 3.584-8 8s3.584 8 8 8zM136 320h176c4.416 0 8-3.584 8-8s-3.584-8-8-8h-176c-4.416 0-8 3.584-8 8s3.584 8 8 8zM136 384h176c4.416 0 8-3.584 8-8s-3.584-8-8-8h-176c-4.416 0-8 3.584-8 8s3.584 8 8 8z" fill="#000000"></path>
</svg>
