<?xml version="1.0" encoding="utf-8"?>
<!-- Generated by IcoMoon.io -->
<!DOCTYPE svg PUBLIC "-//W3C//DTD SVG 1.1//EN" "http://www.w3.org/Graphics/SVG/1.1/DTD/svg11.dtd">
<svg version="1.1" xmlns="http://www.w3.org/2000/svg" xmlns:xlink="http://www.w3.org/1999/xlink" width="512" height="512" viewBox="0 0 512 512">
<g>
</g>
	<path d="M256 512c141.152 0 256-114.848 256-256s-114.848-256-256-256-256 114.848-256 256 114.848 256 256 256zM256 16c132.336 0 240 107.664 240 240s-107.664 240-240 240-240-107.664-240-240 107.664-240 240-240zM320.976 348.288c1.568 1.568 3.616 2.336 5.664 2.336s4.096-0.784 5.664-2.336c3.12-3.12 3.12-8.192 0-11.312l-76.304-76.288v-111.584c0-4.416-3.584-8-8-8s-8 3.584-8 8v114.896c0 2.128 0.848 4.16 2.336 5.664l78.64 78.624zM48 256c0 8.837 7.163 16 16 16s16-7.163 16-16c0-8.837-7.163-16-16-16s-16 7.163-16 16zM432 256c0 8.837 7.163 16 16 16s16-7.163 16-16c0-8.837-7.163-16-16-16s-16 7.163-16 16zM240 64c0 8.837 7.163 16 16 16s16-7.163 16-16c0-8.837-7.163-16-16-16s-16 7.163-16 16zM240 448c0 8.837 7.163 16 16 16s16-7.163 16-16c0-8.837-7.163-16-16-16s-16 7.163-16 16zM112 128c0 8.837 7.163 16 16 16s16-7.163 16-16c0-8.837-7.163-16-16-16s-16 7.163-16 16zM368 384c0 8.837 7.163 16 16 16s16-7.163 16-16c0-8.837-7.163-16-16-16s-16 7.163-16 16zM384 128c0 8.837 7.163 16 16 16s16-7.163 16-16c0-8.837-7.163-16-16-16s-16 7.163-16 16zM112 384c0 8.837 7.163 16 16 16s16-7.163 16-16c0-8.837-7.163-16-16-16s-16 7.163-16 16z" fill="#000000"></path>
</svg>
