<?xml version="1.0" encoding="utf-8"?>
<!-- Generated by IcoMoon.io -->
<!DOCTYPE svg PUBLIC "-//W3C//DTD SVG 1.1//EN" "http://www.w3.org/Graphics/SVG/1.1/DTD/svg11.dtd">
<svg version="1.1" xmlns="http://www.w3.org/2000/svg" xmlns:xlink="http://www.w3.org/1999/xlink" width="672" height="512" viewBox="0 0 672 512">
<g>
</g>
	<path d="M543.328 207.808c-6.832-105.792-80.4-207.808-215.328-207.808-123.408 0-218.576 91.728-223.616 214.144-67.52 21.008-104.384 93.264-104.384 145.856 0 80.976 67.296 152 144 152h384c77.552 0 144-83.584 144-152 0-82.672-67.568-147.328-128.672-152.192zM528 496h-384c-68.192 0-128-63.552-128-136 0-48.816 42.784-136 128-136h24c4.416 0 8-3.584 8-8s-3.584-8-8-8h-24c-8.144 0-15.84 0.912-23.344 2.224 6.272-95.84 79.12-194.224 207.344-194.224 137.408 0 200 107.824 200 208v24c0 4.416 3.584 8 8 8s8-3.584 8-8v-24c0-0.048 0-0.096 0-0.144 48.304 5.296 112 57.136 112 136.144 0 61.216-59.056 136-128 136z" fill="#000000"></path>
</svg>
