<?xml version="1.0" encoding="utf-8"?>
<!-- Generated by IcoMoon.io -->
<!DOCTYPE svg PUBLIC "-//W3C//DTD SVG 1.1//EN" "http://www.w3.org/Graphics/SVG/1.1/DTD/svg11.dtd">
<svg version="1.1" xmlns="http://www.w3.org/2000/svg" xmlns:xlink="http://www.w3.org/1999/xlink" width="512" height="512" viewBox="0 0 512 512">
<g>
</g>
	<path d="M0 256c0 141.152 114.848 256 256 256s256-114.848 256-256-114.848-256-256-256-256 114.848-256 256zM256 16c132.336 0 240 107.664 240 240s-107.664 240-240 240-240-107.664-240-240 107.664-240 240-240zM256 464c114.688 0 208-93.312 208-208s-93.312-208-208-208-208 93.312-208 208 93.312 208 208 208zM240 64.816v24.416c0 4.416 3.584 8 8 8s8-3.584 8-8v-25.232c100.464 0 183.008 77.6 191.184 176h-24.432c-4.416 0-8 3.584-8 8s3.584 8 8 8h25.248c0 105.872-86.128 192-192 192v-25.232c0-4.416-3.584-8-8-8s-8 3.584-8 8v24.416c-98.384-8.176-176-90.704-176-191.184h25.248c4.416 0 8-3.584 8-8s-3.584-8-8-8h-24.432c7.728-93.104 82.080-167.456 175.184-175.184zM150.176 368.656c1.632 0 3.264-0.496 4.672-1.504l89.824-64.576c3.648 0.896 7.408 1.488 11.328 1.488 26.464 0 48-21.536 48-48 0-3.792-0.56-7.44-1.392-10.992l65.696-91.392c2.288-3.184 1.936-7.568-0.832-10.336-2.752-2.768-7.136-3.088-10.336-0.848l-92.448 66.448c-2.832-0.528-5.728-0.88-8.704-0.88-26.464 0-48 21.536-48 48 0 3.12 0.352 6.176 0.928 9.136l-65.232 90.784c-2.288 3.184-1.936 7.568 0.832 10.336 1.552 1.536 3.6 2.336 5.664 2.336zM224 256.080c0-17.648 14.352-32 32-32s32 14.352 32 32-14.352 32-32 32-32-14.368-32-32zM326.784 184.048l-31.792 44.24c-3.456-4.816-7.712-9.008-12.672-12.272l44.464-31.968zM216.080 282.672c3.184 4.768 7.264 8.848 11.888 12.208l-42.752 30.736 30.864-42.944z" fill="#000000"></path>
</svg>
