<?xml version="1.0" encoding="utf-8"?>
<!-- Generated by IcoMoon.io -->
<!DOCTYPE svg PUBLIC "-//W3C//DTD SVG 1.1//EN" "http://www.w3.org/Graphics/SVG/1.1/DTD/svg11.dtd">
<svg version="1.1" xmlns="http://www.w3.org/2000/svg" xmlns:xlink="http://www.w3.org/1999/xlink" width="624" height="512" viewBox="0 0 624 512">
<g>
</g>
	<path d="M24 400h280v24c0 4.416 3.584 8 8 8s8-3.584 8-8v-24h280c13.232 0 24-10.768 24-24v-352c0-13.232-10.768-24-24-24h-576c-13.232 0-24 10.768-24 24v352c0 13.232 10.768 24 24 24zM16 24c0-4.416 3.584-8 8-8h576c4.416 0 8 3.584 8 8v352c0 4.416-3.584 8-8 8h-576c-4.416 0-8-3.584-8-8v-352zM56 352h512c4.416 0 8-3.584 8-8v-288c0-4.416-3.584-8-8-8h-512c-4.416 0-8 3.584-8 8v288c0 4.416 3.584 8 8 8zM64 64h496v272h-496v-272zM224 448c-18.24 0-32 13.76-32 32v24c0 4.416 3.584 8 8 8h224c4.416 0 8-3.584 8-8v-22.8c0-18.608-14.048-33.2-32-33.2h-176zM416 481.2v14.8h-208v-16c0-9.424 6.576-16 16-16h176c9.12 0 16 7.392 16 17.2z" fill="#000000"></path>
</svg>
