<?xml version="1.0" encoding="utf-8"?>
<!-- Generated by IcoMoon.io -->
<!DOCTYPE svg PUBLIC "-//W3C//DTD SVG 1.1//EN" "http://www.w3.org/Graphics/SVG/1.1/DTD/svg11.dtd">
<svg version="1.1" xmlns="http://www.w3.org/2000/svg" xmlns:xlink="http://www.w3.org/1999/xlink" width="512" height="512" viewBox="0 0 512 512">
<g>
</g>
	<path d="M255.984 176c-43.664 0-79.536 35.52-79.984 79.184-0.448 44.112 35.072 80.352 79.184 80.816 0.016 0 0.8 0 0.832 0 43.664 0 79.536-35.52 79.984-79.184 0.448-44.112-35.072-80.368-80.016-80.816zM256.016 320v8l-0.672-8c-35.28-0.352-63.696-29.36-63.344-64.656 0.352-34.928 29.056-63.344 64.656-63.344 35.28 0.352 63.696 29.36 63.344 64.656-0.352 34.928-29.056 63.344-63.984 63.344zM0 256c0 8.837 7.163 16 16 16s16-7.163 16-16c0-8.837-7.163-16-16-16s-16 7.163-16 16zM480 256c0 8.837 7.163 16 16 16s16-7.163 16-16c0-8.837-7.163-16-16-16s-16 7.163-16 16zM240 16c0 8.837 7.163 16 16 16s16-7.163 16-16c0-8.836-7.163-16-16-16s-16 7.163-16 16zM240 496c0 8.837 7.163 16 16 16s16-7.163 16-16c0-8.837-7.163-16-16-16s-16 7.163-16 16zM64 80c0 8.837 7.163 16 16 16s16-7.163 16-16c0-8.837-7.163-16-16-16s-16 7.163-16 16zM416 432c0 8.837 7.163 16 16 16s16-7.163 16-16c0-8.837-7.163-16-16-16s-16 7.163-16 16zM416 80c0 8.837 7.163 16 16 16s16-7.163 16-16c0-8.837-7.163-16-16-16s-16 7.163-16 16zM64 432c0 8.837 7.163 16 16 16s16-7.163 16-16c0-8.837-7.163-16-16-16s-16 7.163-16 16zM384 257.216v-121.216c0-4.416-3.584-8-8-8h-120.016c-69.856 0-127.264 56.832-127.984 126.704-0.336 34.192 12.64 66.464 36.576 90.896s55.936 38.064 90.128 38.4c0.016 0 1.296 0 1.328 0 0 0 0 0 0 0 69.84 0 127.248-56.832 127.968-126.784zM256.016 368v8l-1.152-8c-29.92-0.304-57.92-12.24-78.864-33.616s-32.304-49.616-32-79.536c0.624-61.12 50.848-110.848 113.216-110.848v0h110.784v113.136c-0.624 61.136-50.864 110.88-111.984 110.864z" fill="#000000"></path>
</svg>
