<?xml version="1.0" encoding="utf-8"?>
<!-- Generated by IcoMoon.io -->
<!DOCTYPE svg PUBLIC "-//W3C//DTD SVG 1.1//EN" "http://www.w3.org/Graphics/SVG/1.1/DTD/svg11.dtd">
<svg version="1.1" xmlns="http://www.w3.org/2000/svg" xmlns:xlink="http://www.w3.org/1999/xlink" width="384" height="512" viewBox="0 0 384 512">
<g>
</g>
	<path d="M24 512h336c13.232 0 24-10.768 24-24v-336c0-0.272-0.128-0.496-0.144-0.752-0.032-0.368-0.128-0.688-0.208-1.040-0.272-1.136-0.736-2.16-1.44-3.056-0.112-0.144-0.096-0.32-0.208-0.464l-128-144c-0.048-0.048-0.112-0.048-0.16-0.096-0.96-1.024-2.176-1.728-3.568-2.144-0.304-0.096-0.576-0.128-0.896-0.176-0.464-0.080-0.896-0.272-1.376-0.272h-224c-13.232 0-24 10.768-24 24v464c0 13.232 10.768 24 24 24zM256 29.040l102.192 114.96h-94.192c-3.52 0-8-6.72-8-12v-102.96zM16 24c0-4.416 3.6-8 8-8h216v116c0 12.944 10.48 28 24 28h104v328c0 4.416-3.6 8-8 8h-336c-4.48 0-8-3.52-8-8v-464zM88 224h208c4.416 0 8-3.584 8-8s-3.584-8-8-8h-208c-4.416 0-8 3.584-8 8s3.584 8 8 8zM88 288h208c4.416 0 8-3.584 8-8s-3.584-8-8-8h-208c-4.416 0-8 3.584-8 8s3.584 8 8 8zM88 160h96c4.416 0 8-3.584 8-8s-3.584-8-8-8h-96c-4.416 0-8 3.584-8 8s3.584 8 8 8zM88 352h208c4.416 0 8-3.584 8-8s-3.584-8-8-8h-208c-4.416 0-8 3.584-8 8s3.584 8 8 8zM88 416h208c4.416 0 8-3.584 8-8s-3.584-8-8-8h-208c-4.416 0-8 3.584-8 8s3.584 8 8 8z" fill="#000000"></path>
</svg>
