<?xml version="1.0" encoding="utf-8"?>
<!-- Generated by IcoMoon.io -->
<!DOCTYPE svg PUBLIC "-//W3C//DTD SVG 1.1//EN" "http://www.w3.org/Graphics/SVG/1.1/DTD/svg11.dtd">
<svg version="1.1" xmlns="http://www.w3.org/2000/svg" xmlns:xlink="http://www.w3.org/1999/xlink" width="544" height="512" viewBox="0 0 544 512">
<g>
</g>
	<path d="M24.192 448h287.808c13.232 0 24-10.768 24-24v-304c0-0.368-0.16-0.688-0.208-1.040s-0.112-0.656-0.208-0.992c-0.368-1.376-0.96-2.656-1.952-3.632l-111.984-111.984c-0.976-0.976-2.256-1.568-3.632-1.952-0.336-0.096-0.64-0.16-0.992-0.208-0.336-0.032-0.656-0.192-1.024-0.192h-191.904c-13.28 0-24.096 10.768-24.096 24v400c0 13.232 10.848 24 24.192 24zM224 27.312l84.688 84.688h-76.688c-4.4 0-8-3.584-8-8v-76.688zM16 24c0-4.416 3.632-8 8.096-8h183.904v88c0 13.232 10.768 24 24 24h88v296c0 4.416-3.6 8-8 8h-287.808c-4.528 0-8.192-3.584-8.192-8v-400zM72 192h192c4.416 0 8-3.584 8-8s-3.584-8-8-8h-192c-4.416 0-8 3.584-8 8s3.584 8 8 8zM72 256h192c4.416 0 8-3.584 8-8s-3.584-8-8-8h-192c-4.416 0-8 3.584-8 8s3.584 8 8 8zM72 128h80c4.416 0 8-3.584 8-8s-3.584-8-8-8h-80c-4.416 0-8 3.584-8 8s3.584 8 8 8zM72 320h192c4.416 0 8-3.584 8-8s-3.584-8-8-8h-192c-4.416 0-8 3.584-8 8s3.584 8 8 8zM72 384h192c4.416 0 8-3.584 8-8s-3.584-8-8-8h-192c-4.416 0-8 3.584-8 8s3.584 8 8 8zM344 80h72v88c0 13.232 10.768 24 24 24h88v296c0 4.416-3.6 8-8 8h-287.808c-4.528 0-8.192-3.584-8.192-8v-16c0-4.416-3.584-8-8-8s-8 3.584-8 8v16c0 13.232 10.848 24 24.192 24h287.808c13.232 0 24-10.768 24-24v-304c0-0.368-0.16-0.688-0.208-1.040s-0.112-0.656-0.208-0.992c-0.368-1.376-0.96-2.656-1.952-3.632l-111.984-111.984c-0.976-0.992-2.272-1.584-3.648-1.952-0.336-0.096-0.624-0.144-0.976-0.192-0.336-0.048-0.656-0.208-1.024-0.208h-80c-4.416 0-8 3.584-8 8s3.584 8 8 8zM440 176c-4.4 0-8-3.584-8-8v-76.688l84.688 84.688h-76.688zM376 256h96c4.416 0 8-3.584 8-8s-3.584-8-8-8h-96c-4.416 0-8 3.584-8 8s3.584 8 8 8zM376 320h96c4.416 0 8-3.584 8-8s-3.584-8-8-8h-96c-4.416 0-8 3.584-8 8s3.584 8 8 8zM376 384h96c4.416 0 8-3.584 8-8s-3.584-8-8-8h-96c-4.416 0-8 3.584-8 8s3.584 8 8 8zM376 448h96c4.416 0 8-3.584 8-8s-3.584-8-8-8h-96c-4.416 0-8 3.584-8 8s3.584 8 8 8z" fill="#000000"></path>
</svg>
