<?xml version="1.0" encoding="utf-8"?>
<!-- Generated by IcoMoon.io -->
<!DOCTYPE svg PUBLIC "-//W3C//DTD SVG 1.1//EN" "http://www.w3.org/Graphics/SVG/1.1/DTD/svg11.dtd">
<svg version="1.1" xmlns="http://www.w3.org/2000/svg" xmlns:xlink="http://www.w3.org/1999/xlink" width="672" height="512" viewBox="0 0 672 512">
<g>
</g>
	<path d="M543.328 207.712c-6.88-105.76-80.432-207.712-215.328-207.712-16.464 0-32.704 1.6-48.288 4.752-4.336 0.88-7.12 5.088-6.256 9.44 0.88 4.336 5.024 7.12 9.44 6.256 14.528-2.96 29.712-4.448 45.104-4.448 137.408 0 200 107.824 200 208v24c0 4.416 3.584 8 8 8s8-3.584 8-8v-24c0-0.080-0.016-0.176-0.016-0.256 49.008 4.224 112.016 46.912 112.016 136.256 0 76.272-56.224 136-128 136h-384c-63.616 0-128-46.72-128-136 0-65.504 40.064-136 128-136h24c4.416 0 8-3.584 8-8s-3.584-8-8-8h-24v-32c0-59.632 36.784-96.672 96-96.672 53.824 0 96 42.464 96 96.672v207.888l-66.56-61.76c-3.2-3.008-8.272-2.832-11.296 0.416-3.008 3.232-2.832 8.304 0.416 11.296l72.256 67.024c4.784 4.768 9.008 7.12 13.232 7.12 4.176 0 8.32-2.32 12.928-6.928l72.464-67.232c3.248-3.008 3.44-8.064 0.416-11.296-3.008-3.264-8.096-3.44-11.296-0.416l-66.56 61.776v-207.888c0-63.184-49.2-112.672-112-112.672-68.032 0-112 44.224-112 112.672v32.816c-84.080 8.128-128 80.048-128 151.184 0 73.68 50.464 152 144 152h384c80.752 0 144-66.768 144-152 0-100.864-72.912-148.448-128.672-152.288z" fill="#000000"></path>
</svg>
