<?xml version="1.0" encoding="utf-8"?>
<!-- Generated by IcoMoon.io -->
<!DOCTYPE svg PUBLIC "-//W3C//DTD SVG 1.1//EN" "http://www.w3.org/Graphics/SVG/1.1/DTD/svg11.dtd">
<svg version="1.1" xmlns="http://www.w3.org/2000/svg" xmlns:xlink="http://www.w3.org/1999/xlink" width="512" height="512" viewBox="0 0 512 512">
<g>
</g>
	<path d="M256-0.544c-141.472 0-256.544 115.072-256.544 256.544s115.072 256.544 256.544 256.544 256.544-115.072 256.544-256.544-115.072-256.544-256.544-256.544zM256 495.456c-132.032 0-239.456-107.424-239.456-239.456s107.424-239.456 239.456-239.456 239.456 107.424 239.456 239.456-107.424 239.456-239.456 239.456zM349.616 168.080c-24.608-26.208-57.84-40.624-93.616-40.624-16.8 0-33.2 3.232-48.752 9.632-44.128 18.080-74.448 58.752-79.152 106.096-0.4 4.224-0.64 8.48-0.64 12.816 0 38.848 17.312 75.2 47.536 99.76 22.832 18.56 51.616 28.784 81.008 28.784 18.544 0 36.576-3.968 53.632-11.808 34.816-16.032 60.48-46.416 70.416-83.376 0 0 0-0.016 0-0.016 2.976-11.2 4.496-22.416 4.496-33.344 0-32.736-12.4-63.952-34.928-87.92zM365.376 276.88c-2.832-0.608-5.584-0.88-8.4-1.376-3.728-0.656-7.456-1.344-11.136-1.824-4.368-0.56-8.64-0.848-12.928-1.136-3.456-0.224-6.912-0.528-10.304-0.576-1.056-0.016-2.176-0.176-3.232-0.176-5.632 0-11.216 0.272-16.768 0.752-0.72 0.064-1.424 0.208-2.144 0.272-4.48 0.448-8.944 0.96-13.328 1.728-0.72-1.872-1.536-3.632-2.272-5.488-2.976-7.536-6.048-14.96-9.216-22.272-0.784-1.792-1.472-3.68-2.256-5.456 1.68-0.672 3.184-1.424 4.816-2.128 1.664-0.72 3.328-1.424 4.928-2.176 3.552-1.664 6.928-3.392 10.192-5.184 1.040-0.576 2.144-1.104 3.152-1.68 4.16-2.4 8.080-4.912 11.776-7.488 0.88-0.624 1.68-1.264 2.528-1.888 2.784-2.032 5.456-4.080 7.968-6.16 1.088-0.912 2.112-1.808 3.152-2.72 2.192-1.92 4.272-3.84 6.24-5.76 0.896-0.864 1.792-1.728 2.64-2.608 2.24-2.288 4.32-4.576 6.288-6.848 0.384-0.448 0.832-0.896 1.2-1.344 2.096-2.496 4.064-4.96 5.856-7.376 15.104 19.472 23.328 43.248 23.328 68.032 0 6.832-0.704 13.824-2.080 20.88zM256 144.544c28.736 0 55.584 10.752 76.352 30.432-0.224 0.336-0.416 0.64-0.656 0.96-0.608 0.848-1.28 1.712-1.92 2.56-1.168 1.552-2.4 3.12-3.712 4.72-0.784 0.944-1.6 1.904-2.432 2.848-1.376 1.568-2.832 3.152-4.352 4.736-0.912 0.96-1.84 1.92-2.816 2.88-1.712 1.68-3.568 3.36-5.456 5.024-0.944 0.832-1.824 1.664-2.816 2.496-2.944 2.464-6.048 4.896-9.408 7.248-0.208 0.144-0.464 0.288-0.688 0.448-3.152 2.192-6.512 4.32-10.048 6.368-1.296 0.752-2.72 1.456-4.080 2.192-2.592 1.408-5.248 2.784-8.032 4.080-1.712 0.8-3.52 1.568-5.312 2.32-1.44 0.608-2.992 1.168-4.48 1.76-0.4-0.848-0.816-1.584-1.216-2.432-3.344-6.96-6.688-13.712-10-20.048-0.256-0.496-0.512-0.944-0.768-1.44-3.168-6.048-6.272-11.728-9.344-17.184-0.704-1.248-1.392-2.496-2.096-3.712-3.088-5.408-6.080-10.512-8.96-15.28-0.656-1.088-1.264-2.064-1.904-3.104-2.592-4.224-5.088-8.192-7.44-11.84-0.24-0.368-0.528-0.848-0.768-1.216 10.48-3.184 21.328-4.816 32.352-4.816zM207.376 155.744c0.096 0.144 0.192 0.288 0.288 0.432 2.528 3.856 5.28 8.192 8.144 12.8 0.608 0.976 1.232 1.984 1.84 2.992 2.96 4.816 6.016 9.936 9.2 15.504 0.352 0.608 0.704 1.264 1.056 1.872 2.992 5.248 6.064 10.864 9.184 16.72 0.592 1.12 1.184 2.208 1.792 3.36 3.312 6.304 6.656 12.976 10.016 19.936 0.24 0.496 0.48 1.008 0.72 1.504-5.312 1.488-10.528 3.104-16.192 4.176-0.864 0.16-1.76 0.272-2.624 0.432-17.184 3.040-35.936 4.128-56 3.36-1.552-0.064-3.056-0.064-4.64-0.144-7.712-0.4-15.776-1.328-23.872-2.288 6.24-35.12 28.88-65.056 61.088-80.656zM144.544 256c0-0.768 0.016-1.552 0.032-2.32 2.272 0.272 4.384 0.288 6.64 0.512 6.272 0.64 12.432 1.136 18.496 1.456 3.6 0.192 7.168 0.336 10.688 0.4 2.16 0.048 4.464 0.256 6.592 0.256 0 0 0 0 0.016 0 4.592 0 9.008-0.272 13.456-0.48 1.872-0.080 3.792-0.080 5.632-0.192 8.272-0.544 16.304-1.456 24.080-2.704 2.016-0.32 3.92-0.768 5.888-1.136 5.968-1.12 11.76-2.448 17.376-4 1.168-0.32 2.448-0.48 3.584-0.832 0.816 1.808 1.6 3.648 2.4 5.488 2.992 6.848 5.904 13.808 8.704 20.864 0.672 1.696 1.344 3.408 2.016 5.12-1.728 0.496-3.328 1.12-5.024 1.664-2.208 0.688-4.4 1.392-6.528 2.16-3.504 1.248-6.864 2.624-10.192 4.048-1.808 0.784-3.664 1.504-5.424 2.336-3.984 1.872-7.808 3.888-11.52 5.984-0.896 0.496-1.856 0.96-2.736 1.472-4.56 2.656-8.88 5.472-13.008 8.368-1.152 0.8-2.192 1.648-3.312 2.464-2.912 2.144-5.776 4.288-8.464 6.496-1.36 1.12-2.624 2.24-3.936 3.36-2.288 1.968-4.496 3.936-6.624 5.92-1.28 1.216-2.528 2.4-3.744 3.616-1.936 1.92-3.792 3.808-5.568 5.712-1.136 1.216-2.288 2.416-3.36 3.616-0.4 0.448-0.864 0.912-1.264 1.344-22.256-21.040-34.896-50.112-34.896-80.992zM192.832 347.792c0.288-0.32 0.512-0.608 0.8-0.928 0.96-1.072 2.016-2.144 3.024-3.232 1.632-1.744 3.328-3.488 5.104-5.232 1.136-1.12 2.32-2.24 3.52-3.36 1.856-1.744 3.808-3.488 5.808-5.216 1.28-1.104 2.56-2.208 3.888-3.296 2.208-1.808 4.544-3.568 6.896-5.312 1.296-0.96 2.544-1.936 3.872-2.864 3.2-2.24 6.56-4.384 10.016-6.464 0.64-0.384 1.216-0.8 1.872-1.184 4.128-2.4 8.464-4.656 12.976-6.768 1.376-0.64 2.848-1.184 4.256-1.792 3.248-1.408 6.544-2.768 9.984-3.984 1.824-0.64 3.712-1.2 5.6-1.792 1.856-0.576 3.808-1.072 5.728-1.6 3.6 10.032 7.12 20.128 10.272 30.464 0.144 0.464 0.304 0.896 0.448 1.36 3.312 10.976 6.192 22.16 8.96 33.392-34.208 13.232-73.312 8.384-103.024-12.192zM311.776 352.368c-2.528-10.048-5.312-20.016-8.272-29.872-0.112-0.384-0.208-0.784-0.32-1.168-3.088-10.192-6.384-20.24-9.888-30.128 2.32-0.368 4.624-0.8 6.976-1.072 1.952-0.224 3.904-0.48 5.872-0.624 5.712-0.432 11.488-0.608 17.376-0.48 0.656 0.016 1.296-0.048 1.952-0.016 6.608 0.224 13.312 0.864 20.112 1.792 1.84 0.256 3.712 0.64 5.568 0.944 3.168 0.528 6.384 1.232 9.584 1.904-8.864 24.8-26.144 45.536-48.96 58.72z" fill="#000000"></path>
</svg>
