<?xml version="1.0" encoding="utf-8"?>
<!-- Generated by IcoMoon.io -->
<!DOCTYPE svg PUBLIC "-//W3C//DTD SVG 1.1//EN" "http://www.w3.org/Graphics/SVG/1.1/DTD/svg11.dtd">
<svg version="1.1" xmlns="http://www.w3.org/2000/svg" xmlns:xlink="http://www.w3.org/1999/xlink" width="512" height="512" viewBox="0 0 512 512">
<g>
</g>
	<path d="M24 512h464c13.232 0 24-10.768 24-24v-464c0-13.232-10.768-24-24-24h-464c-13.232 0-24 10.768-24 24v464c0 13.232 10.768 24 24 24zM16 24c0-4.416 3.6-8 8-8h464c4.4 0 8 3.584 8 8v464c0 4.416-3.6 8-8 8h-464c-4.4 0-8-3.584-8-8v-464zM64 455.664c0.768 0 1.536-0.112 2.288-0.336l160-47.664c1.296-0.384 2.464-1.088 3.408-2.032l161.44-163.28c0.368-0.384 0.56-0.848 0.832-1.28l58.528-58.528c9.712-9.712 9.712-25.52 0-35.248l-83.776-83.744c-9.712-9.712-25.52-9.728-35.232 0l-59.824 59.824c-0.384 0.384-0.576 0.864-0.864 1.296l-161.888 161.904c-0.896 0.896-1.568 1.984-1.952 3.184l-50.56 155.44c-0.928 2.832-0.192 5.936 1.872 8.064 1.52 1.552 3.6 2.4 5.728 2.4zM277.744 140.336l16.64 16.64-136.368 137.008-27.632-6.272 147.36-147.376zM168 306.64l137.712-138.336 38.944 38.944-139.92 136.752h-36.736v-37.36zM374.16 236.752l-147.936 149.632-9.216-31.984 138.944-135.824 18.208 18.176zM119.888 301.744l32.112 7.296v42.96c0 4.416 3.584 8 8 8h41.984l10.128 35.2-135.792 40.448 43.568-133.904zM342.8 74.864c3.488-3.472 9.152-3.456 12.608 0l83.76 83.76c3.488 3.472 3.488 9.136 0 12.624l-53.952 53.952-96.368-96.368 53.952-53.968z" fill="#000000"></path>
</svg>
