<?xml version="1.0" encoding="utf-8"?>
<!-- Generated by IcoMoon.io -->
<!DOCTYPE svg PUBLIC "-//W3C//DTD SVG 1.1//EN" "http://www.w3.org/Graphics/SVG/1.1/DTD/svg11.dtd">
<svg version="1.1" xmlns="http://www.w3.org/2000/svg" xmlns:xlink="http://www.w3.org/1999/xlink" width="608" height="512" viewBox="0 0 608 512">
<g>
</g>
	<path d="M320.96 6.608c-9.28-8.528-24.624-8.528-33.904 0l-283.008 170.736c-2.4 1.456-3.872 4.048-3.872 6.848v302.752c0 13.808 11.296 25.056 25.184 25.056h557.28c13.888 0 25.184-11.248 25.184-25.056v-302.752c0-2.8-1.472-5.392-3.872-6.848l-282.992-170.736zM296.064 19.84c0.56-0.336 1.056-0.736 1.52-1.184 1.728-1.712 4-2.656 6.416-2.656s4.688 0.944 6.4 2.656c0.464 0.448 0.976 0.848 1.52 1.184l275.632 166.304-199.648 118.976c-3.792 2.272-5.040 7.168-2.784 10.976 1.504 2.512 4.16 3.904 6.88 3.904 1.392 0 2.8-0.352 4.080-1.12l195.92-116.64v284.112l-270.96-180.256c-8.608-6.864-25.504-6.864-33.536-0.4l-271.504 180.576v-284.032l195.904 116.64c1.28 0.768 2.704 1.12 4.096 1.12 2.72 0 5.376-1.392 6.88-3.904 2.256-3.792 1.008-8.704-2.784-10.976l-199.664-118.976 275.632-166.304zM577.44 496h-547.008l266.496-177.376c2.768-2.208 11.392-2.192 14.704 0.4l265.808 176.976zM104 208h400c4.416 0 8-3.584 8-8s-3.584-8-8-8h-400c-4.416 0-8 3.584-8 8s3.584 8 8 8z" fill="#000000"></path>
</svg>
