<?xml version="1.0" encoding="utf-8"?>
<!-- Generated by IcoMoon.io -->
<!DOCTYPE svg PUBLIC "-//W3C//DTD SVG 1.1//EN" "http://www.w3.org/Graphics/SVG/1.1/DTD/svg11.dtd">
<svg version="1.1" xmlns="http://www.w3.org/2000/svg" xmlns:xlink="http://www.w3.org/1999/xlink" width="512" height="512" viewBox="0 0 512 512">
<g>
</g>
	<path d="M512 488v-464c0-13.232-10.768-24-24-24h-464c-13.232 0-24 10.768-24 24v144c0 4.416 3.584 8 8 8s8-3.584 8-8v-144c0-4.416 3.6-8 8-8h464c4.4 0 8 3.584 8 8v464c0 4.416-3.6 8-8 8h-144c-4.416 0-8 3.584-8 8s3.584 8 8 8h144c13.232 0 24-10.768 24-24zM24 208c-13.232 0-24 10.768-24 24v256c0 13.232 10.768 24 24 24h256c13.232 0 24-10.768 24-24v-268.688l112-112v108.688c0 4.416 3.584 8 8 8s8-3.584 8-8v-128c0-4.416-3.584-8-8-8h-128c-4.416 0-8 3.584-8 8s3.584 8 8 8h108.672l-112 112h-268.672zM288 488c0 4.416-3.6 8-8 8h-256c-4.4 0-8-3.584-8-8v-256c0-4.416 3.6-8 8-8h264v264z" fill="#000000"></path>
</svg>
