<?xml version="1.0" encoding="utf-8"?>
<!-- Generated by IcoMoon.io -->
<!DOCTYPE svg PUBLIC "-//W3C//DTD SVG 1.1//EN" "http://www.w3.org/Graphics/SVG/1.1/DTD/svg11.dtd">
<svg version="1.1" xmlns="http://www.w3.org/2000/svg" xmlns:xlink="http://www.w3.org/1999/xlink" width="512" height="512" viewBox="0 0 512 512">
<g>
</g>
	<path d="M256-0.544c-141.456 0-256.56 115.072-256.56 256.544s115.104 256.544 256.56 256.544 256.56-115.072 256.56-256.544-115.104-256.544-256.56-256.544zM256 495.456c-132.032 0-239.44-107.424-239.44-239.456s107.408-239.456 239.44-239.456 239.44 107.424 239.44 239.456-107.408 239.456-239.44 239.456zM312 112h-42.688c-54.368-0.544-61.312 33.104-61.312 69.52v26.48h-24c-4.72-0.544-8.56 3.28-8 8v48c-0.56 4.72 3.28 8.544 8 8h24v120c-0.496 4.72 3.328 8.544 8.048 8h48.88c4.72 0.544 8.544-3.28 7.040-8l0.032-120h40c4.72 0.544 8.56-3.28 8-8v-48c0.56-4.72-3.28-8.544-8-8h-40.048l0.048-24c1.552-10.224 1.552-8.56 11.040-8h28.624c2.224-0.496 4.592-0.224 6.256-1.84s2.624-3.824 2.064-6.16v-48c0.576-4.72-3.264-8.544-7.984-8zM303.44 159.104l-20.064-0.768c-24.848 0-26.928 13.488-26.928 27.296l-0.064 30.336c0 2.272 0.896 4.448 2.496 6.064 1.6 1.6 3.776 2.496 6.048 2.496h39.072v30.912h-39.040c-4.72 0-8.544 3.824-8.56 8.544l-0.016 120.016h-32.384v-120c0-4.72-3.216-8.544-7.952-8.544h-24.048v-30.912h24.048c2.272 0 4.448-0.896 6.048-2.496 1.6-1.616 1.888-3.792 1.888-6.064v-34.48c0-35.872 7.248-52.96 45.312-52.96h34.128v30.56z" fill="#000000"></path>
</svg>
