<?xml version="1.0" encoding="utf-8"?>
<!-- Generated by IcoMoon.io -->
<!DOCTYPE svg PUBLIC "-//W3C//DTD SVG 1.1//EN" "http://www.w3.org/Graphics/SVG/1.1/DTD/svg11.dtd">
<svg version="1.1" xmlns="http://www.w3.org/2000/svg" xmlns:xlink="http://www.w3.org/1999/xlink" width="448" height="512" viewBox="0 0 448 512">
<g>
</g>
	<path d="M216 16h-176c-4.416 0-8 3.584-8 8v240c0 4.416 3.584 8 8 8h176.032c4.016 0 23.968 1.184 23.968 24 0 4.416 3.584 8 8 8s8-3.584 8-8v-240.256c-0.432-13.744-9.344-39.744-40-39.744zM240 263.296c-8.016-5.392-17.408-7.296-24-7.296h-168v-224h168c22.336 0 23.904 21.808 24 24v207.296zM421.264 336h-221.472c0.096 0.016-11.248 0.144-18.24-6.704-4.016-3.952-6.064-9.76-6.064-17.296 0-4.416-3.584-8-8-8s-8 3.584-8 8c0 12.064 3.696 21.76 11.008 28.848 10.992 10.64 26.368 11.152 29.104 11.152 0.24 0 221.664 0 221.664 0 6.224 0 11.504-2.512 14.896-7.088 4.496-6.064 4.4-13.808 2.96-18.592-9.008-29.648-56.656-94.128-70.064-111.936 12.912-19.856 61.040-95.040 70.064-124.688 1.456-4.784 1.552-12.512-2.96-18.592-3.392-4.592-8.672-7.104-14.896-7.104h-140.592c-4.416 0-8 3.584-8 8s3.584 8 8 8h140.592c1.584 0 1.904 0.448 2.032 0.624 0.752 0.992 0.88 3.152 0.496 4.4-9.536 31.376-70.592 124.352-71.216 125.296-1.872 2.848-1.728 6.56 0.336 9.264 0.608 0.8 61.424 80.288 70.88 111.376 0.368 1.264 0.256 3.408-0.496 4.416-0.128 0.176-0.448 0.624-2.032 0.624zM16 504v-496c0-4.416-3.584-8-8-8s-8 3.584-8 8v496c0 4.416 3.584 8 8 8s8-3.584 8-8z" fill="#000000"></path>
</svg>
