<?xml version="1.0" encoding="utf-8"?>
<!-- Generated by IcoMoon.io -->
<!DOCTYPE svg PUBLIC "-//W3C//DTD SVG 1.1//EN" "http://www.w3.org/Graphics/SVG/1.1/DTD/svg11.dtd">
<svg version="1.1" xmlns="http://www.w3.org/2000/svg" xmlns:xlink="http://www.w3.org/1999/xlink" width="672" height="512" viewBox="0 0 672 512">
<g>
</g>
	<path d="M136 0h-112c-13.232 0-24 10.768-24 24v96c0 4.416 3.584 8 8 8s8-3.584 8-8v-96c0-4.416 3.6-8 8-8h112c4.416 0 8-3.584 8-8s-3.584-8-8-8zM648 0h-112c-4.416 0-8 3.584-8 8s3.584 8 8 8h112c4.4 0 8 3.584 8 8v96c0 4.416 3.584 8 8 8s8-3.584 8-8v-96c0-13.232-10.768-24-24-24zM664 384c-4.416 0-8 3.584-8 8v96c0 4.416-3.6 8-8 8h-112c-4.416 0-8 3.584-8 8s3.584 8 8 8h112c13.232 0 24-10.768 24-24v-96c0-4.416-3.584-8-8-8zM8 384c-4.416 0-8 3.584-8 8v96c0 13.232 10.768 24 24 24h112c4.416 0 8-3.584 8-8s-3.584-8-8-8h-112c-4.4 0-8-3.584-8-8v-96c0-4.416-3.584-8-8-8zM376 304c4.416 0 8-3.584 8-8v-80c0-4.416-3.584-8-8-8h-80c-4.416 0-8 3.584-8 8v80c0 4.416 3.584 8 8 8h80zM304 224h64v64h-64v-64z" fill="#000000"></path>
</svg>
