<?xml version="1.0" encoding="utf-8"?>
<!-- Generated by IcoMoon.io -->
<!DOCTYPE svg PUBLIC "-//W3C//DTD SVG 1.1//EN" "http://www.w3.org/Graphics/SVG/1.1/DTD/svg11.dtd">
<svg version="1.1" xmlns="http://www.w3.org/2000/svg" xmlns:xlink="http://www.w3.org/1999/xlink" width="480" height="512" viewBox="0 0 480 512">
<g>
</g>
	<path d="M9.072 384c12.56 21.76 40.768 33.264 81.552 33.264 0 0 0 0 0.016 0 18.336 0 38.512-2.576 59.552-7.008 20.256 62.064 52.592 101.744 89.808 101.744s69.552-39.68 89.808-101.744c21.056 4.416 41.232 7.008 59.568 7.008 0 0 0 0 0 0 40.768 0 68.976-11.504 81.536-33.264 16.256-28.176 1.872-75.52-47.456-128 49.328-52.48 63.712-99.824 47.456-128-12.56-21.76-40.768-33.264-81.552-33.264-18.336 0-38.528 2.576-59.568 7.008-20.24-62.064-52.576-101.744-89.792-101.744s-69.552 39.68-89.808 101.744c-21.056-4.432-41.248-7.008-59.568-7.008-40.784 0-68.992 11.504-81.552 33.264-16.256 28.176-1.872 75.52 47.456 128-49.328 52.48-63.728 99.824-47.456 128zM240 496c-29.424 0-56.256-35.184-74.032-89.264 24.048-6.096 49.056-14.72 74.032-25.584 24.976 10.864 49.984 19.488 74.032 25.584-17.776 54.080-44.608 89.264-74.032 89.264zM144 256c0-18.624 0.992-36.752 2.688-54.288 14.288-9.952 29.392-19.648 45.312-28.848 15.744-9.088 31.856-17.232 48-24.528 16.144 7.28 32.256 15.424 48 24.528 15.92 9.184 31.008 18.88 45.312 28.848 1.696 17.536 2.688 35.664 2.688 54.288s-0.992 36.752-2.688 54.288c-14.288 9.952-29.392 19.648-45.312 28.848-15.744 9.088-31.856 17.232-48 24.528-16.144-7.28-32.256-15.424-48-24.528-15.92-9.184-31.008-18.88-45.312-28.848-1.696-17.536-2.688-35.664-2.688-54.288zM129.568 297.968c-18.336-13.776-34.944-27.92-49.376-41.968 14.432-14.048 31.040-28.192 49.376-41.968-0.944 13.664-1.568 27.6-1.568 41.968s0.624 28.304 1.568 41.968zM149.136 180.576c2.944-21.456 7.072-41.664 12.224-60.064 19.12 4.816 38.96 11.472 58.912 19.504-12.192 5.904-24.352 12.112-36.272 18.992-12.368 7.152-23.808 14.352-34.864 21.568zM259.712 140.016c19.952-8.032 39.792-14.688 58.912-19.504 5.152 18.4 9.28 38.608 12.224 60.064-11.040-7.216-22.496-14.416-34.864-21.568-11.904-6.88-24.064-13.088-36.272-18.992zM350.432 214.032c18.352 13.776 34.944 27.904 49.376 41.968-14.432 14.048-31.040 28.192-49.376 41.968 0.944-13.664 1.568-27.6 1.568-41.968s-0.624-28.304-1.568-41.968zM330.864 331.424c-2.944 21.456-7.072 41.664-12.224 60.064-19.12-4.816-38.96-11.472-58.912-19.504 12.208-5.888 24.368-12.112 36.288-18.992 12.352-7.152 23.792-14.352 34.848-21.568zM184 352.992c11.92 6.88 24.080 13.104 36.288 18.992-19.952 8.032-39.792 14.688-58.912 19.504-5.152-18.4-9.28-38.608-12.224-60.064 11.040 7.216 22.48 14.416 34.848 21.568zM457.072 376c-9.408 16.304-33.44 25.264-67.68 25.264-16.896 0-35.488-2.336-54.912-6.32 6.336-22.784 11.088-48.128 14.032-75.328 24.736-17.344 45.616-34.688 63.040-51.664 40.512 42.912 59.616 83.616 45.52 108.048zM389.376 110.736c34.24 0 58.288 8.976 67.68 25.264 14.112 24.432-5.008 65.136-45.52 108.048-17.424-16.96-38.304-34.32-63.040-51.664-2.944-27.2-7.696-52.544-14.032-75.328 19.424-3.984 38.032-6.32 54.912-6.32zM240 16c29.424 0 56.256 35.184 74.032 89.264-24.048 6.096-49.056 14.72-74.032 25.584-24.976-10.864-49.984-19.488-74.032-25.584 17.776-54.080 44.608-89.264 74.032-89.264zM22.928 136c9.408-16.304 33.44-25.264 67.68-25.264 16.896 0 35.488 2.336 54.912 6.32-6.336 22.784-11.088 48.128-14.032 75.328-24.736 17.344-45.616 34.688-63.040 51.664-40.512-42.912-59.616-83.616-45.52-108.048zM68.448 267.952c17.424 16.96 38.304 34.32 63.040 51.664 2.944 27.2 7.696 52.544 14.032 75.328-19.408 3.984-38 6.32-54.896 6.32 0 0-0.016 0-0.016 0-34.24 0-58.288-8.976-67.68-25.264-14.096-24.432 5.008-65.136 45.52-108.048zM240 296c22.048 0 40-17.936 40-40s-17.952-40-40-40-40 17.936-40 40 17.952 40 40 40zM240 232c13.232 0 24 10.768 24 24s-10.768 24-24 24-24-10.768-24-24 10.768-24 24-24z" fill="#000000"></path>
</svg>
