<?xml version="1.0" encoding="utf-8"?>
<!-- Generated by IcoMoon.io -->
<!DOCTYPE svg PUBLIC "-//W3C//DTD SVG 1.1//EN" "http://www.w3.org/Graphics/SVG/1.1/DTD/svg11.dtd">
<svg version="1.1" xmlns="http://www.w3.org/2000/svg" xmlns:xlink="http://www.w3.org/1999/xlink" width="672" height="512" viewBox="0 0 672 512">
<g>
</g>
	<path d="M24 272c-4.416 0-8 3.584-8 8v192c0 13.232 10.768 24 24 24h160c4.416 0 8-3.584 8-8s-3.584-8-8-8h-160c-4.416 0-8-3.584-8-8v-192c0-4.416-3.584-8-8-8zM648 272c-4.416 0-8 3.584-8 8v192c0 4.416-3.584 8-8 8h-336c-4.416 0-8 3.584-8 8s3.584 8 8 8h336c13.232 0 24-10.768 24-24v-192c0-4.416-3.584-8-8-8zM288 24c0 4.416 3.584 8 8 8h336c4.416 0 8 3.584 8 8v143.328c0 4.416 3.584 8 8 8s8-3.584 8-8v-143.328c0-13.232-10.768-24-24-24h-336c-4.416 0-8 3.584-8 8zM40 16c-13.232 0-24 10.768-24 24v143.328c0 4.416 3.584 8 8 8s8-3.584 8-8v-143.328c0-4.416 3.584-8 8-8h160c4.416 0 8-3.584 8-8s-3.584-8-8-8h-160zM664 223.328h-326.4c6.352-2.816 11.84-6.096 15.744-10 24.176-24.176 24.176-63.504 0-87.68-23.424-23.424-64.256-23.424-87.68 0-3.76 3.76-6.912 9.008-9.664 15.040v-132.688c0-4.416-3.584-8-8-8s-8 3.584-8 8v211.6c-27.248-11.232-75.216-34.304-85.056-54.192-6.4-12.928-7.376-27.552-2.768-41.216 4.624-13.664 14.272-24.688 27.184-31.088 3.968-1.968 5.584-6.752 3.632-10.72-1.984-3.968-6.752-5.6-10.72-3.632-16.752 8.288-29.264 22.608-35.248 40.32s-4.704 36.688 3.584 53.424c9.68 19.552 42.080 38.256 68.4 50.832h-201.008c-4.416 0-8 3.584-8 8s3.584 8 8 8h149.536c-6.192 2.784-11.552 6-15.376 9.824-24.176 24.176-24.176 63.504 0 87.68 11.712 11.712 27.28 18.16 43.84 18.16s32.128-6.448 43.84-18.16c3.968-3.968 7.296-9.584 10.16-16.080v183.248c0 4.416 3.584 8 8 8s8-3.584 8-8v-260.88c27.328 11.296 74.768 34.208 84.56 53.984 6.4 12.928 7.376 27.552 2.768 41.216-4.624 13.664-14.272 24.688-27.184 31.088-3.968 1.968-5.584 6.752-3.632 10.72 1.392 2.816 4.24 4.448 7.184 4.448 1.184 0 2.4-0.272 3.536-0.832 16.752-8.288 29.264-22.608 35.248-40.32s4.704-36.672-3.584-53.424c-9.632-19.456-41.776-38.080-68.032-50.672h377.136c4.416 0 8-3.584 8-8s-3.584-8-8-8zM276.976 136.976c8.688-8.688 20.24-13.472 32.528-13.472s23.84 4.784 32.528 13.472c17.936 17.936 17.936 47.12 0 65.056-13.664 13.664-60.64 19.232-85.872 20.8 1.792-29.824 8.352-73.392 20.816-85.856zM218.528 325.52c-17.376 17.376-47.68 17.376-65.056 0-17.936-17.936-17.936-47.12 0-65.056 13.664-13.664 60.64-19.232 85.872-20.8-1.792 29.824-8.352 73.392-20.816 85.856z" fill="#000000"></path>
</svg>
