<?xml version="1.0" encoding="utf-8"?>
<!-- Generated by IcoMoon.io -->
<!DOCTYPE svg PUBLIC "-//W3C//DTD SVG 1.1//EN" "http://www.w3.org/Graphics/SVG/1.1/DTD/svg11.dtd">
<svg version="1.1" xmlns="http://www.w3.org/2000/svg" xmlns:xlink="http://www.w3.org/1999/xlink" width="400" height="512" viewBox="0 0 400 512">
<g>
</g>
	<path d="M216.832 352c92.64 0 168-75.36 168-168s-75.36-168-168-168-168 75.36-168 168 75.36 168 168 168zM216.832 32c83.808 0 152 68.192 152 152s-68.192 152-152 152-152-68.192-152-152 68.176-152 152-152zM144.832 448c-18.256 0-32 13.744-32 32v24c0 4.416 3.584 8 8 8h192c4.416 0 8-3.584 8-8v-22.8c0-18.624-14.064-33.2-32-33.2h-144zM304.832 481.2v14.8h-176v-16c0-9.424 6.576-16 16-16h144c9.12 0 16 7.392 16 17.2zM208.88 399.648c0 0.096-0.048 0.16-0.048 0.256v25.664c0 4.416 3.584 8 8 8s8-3.584 8-8v-25.664c0-0.112-0.064-0.208-0.064-0.32 51.728-2.064 100.288-22.016 138.208-57.296l18.88 18.864c3.12 3.12 8.192 3.12 11.312 0s3.12-8.192 0-11.312l-24.416-24.416c-3.12-3.12-8.192-3.12-11.312 0-37.792 37.776-88.016 58.576-141.44 58.576s-103.648-20.8-141.424-58.576-58.576-88-58.576-141.424 20.8-103.648 58.576-141.424c3.12-3.12 3.12-8.192 0-11.312l-24.416-24.416c-3.12-3.12-8.192-3.12-11.312 0s-3.12 8.192 0 11.312l18.864 18.88c-37.296 40.048-57.712 91.952-57.712 146.96 0 57.68 22.464 111.936 63.264 152.736 39.104 39.104 90.608 61.136 145.616 62.912z" fill="#000000"></path>
</svg>
