<?xml version="1.0" encoding="utf-8"?>
<!-- Generated by IcoMoon.io -->
<!DOCTYPE svg PUBLIC "-//W3C//DTD SVG 1.1//EN" "http://www.w3.org/Graphics/SVG/1.1/DTD/svg11.dtd">
<svg version="1.1" xmlns="http://www.w3.org/2000/svg" xmlns:xlink="http://www.w3.org/1999/xlink" width="512" height="512" viewBox="0 0 512 512">
<g>
</g>
	<path d="M0.544 266.688c5.664 136.176 117.904 245.312 255.456 245.312s249.792-109.136 255.456-245.312c0.304-0.848 0.544-1.728 0.544-2.688 0-0.576-0.208-1.072-0.32-1.6 0.048-2.144 0.32-4.24 0.32-6.4 0-141.152-114.848-256-256-256s-256 114.848-256 256c0 2.16 0.272 4.256 0.32 6.4-0.112 0.528-0.32 1.024-0.32 1.6 0 0.96 0.24 1.84 0.544 2.688zM398.736 363.872c-21.104-8.832-43.76-15.664-67.44-20.336 2.528-23.248 4.016-47.392 4.48-71.52h79.68c-1.456 32.864-7.296 63.888-16.72 91.856zM431.44 272h63.744c-2.976 44.896-18.208 86.448-42.608 121.264-12.144-8.528-25.232-16.304-39.312-23.040 10.32-29.904 16.672-63.088 18.176-98.224zM198.224 356.576c18.848-2.944 38.192-4.576 57.776-4.576s38.928 1.632 57.76 4.576c-11.104 85.36-35.36 139.424-57.76 139.424s-46.656-54.064-57.776-139.424zM222.528 490.624c-44.016-14.112-81.248-55.536-103.712-111.744 19.936-8.4 41.376-14.96 63.84-19.472 7.344 55.936 20.768 104.672 39.872 131.216zM196.384 171.344c19.472 3.008 39.44 4.656 59.616 4.656s40.144-1.648 59.616-4.656c2.752 25.92 4.384 54.208 4.384 84.656h-128c0-30.448 1.632-58.736 4.384-84.656zM319.76 272c-0.448 24.4-1.888 47.376-4.16 68.656-19.456-3.008-39.408-4.656-59.6-4.656s-40.144 1.648-59.616 4.656c-2.768-26.016-3.792-48.912-4.16-68.656h127.536zM329.36 359.408c22.464 4.512 43.888 11.072 63.84 19.472-22.464 56.208-59.696 97.632-103.712 111.744 19.088-26.544 32.512-75.28 39.872-131.216zM336 256c0-29.376-1.632-59.136-4.704-87.52 23.68-4.672 46.336-11.52 67.44-20.336 10.944 32.464 17.264 69.040 17.264 107.856h-80zM329.36 152.592c-7.36-55.936-20.768-104.688-39.888-131.216 44.016 14.112 81.248 55.536 103.712 111.744-19.936 8.4-41.36 14.976-63.824 19.472zM313.776 155.424c-18.848 2.944-38.192 4.576-57.776 4.576s-38.928-1.632-57.776-4.576c11.12-85.36 35.376-139.424 57.776-139.424s46.656 54.064 57.776 139.424zM182.64 152.592c-22.464-4.512-43.888-11.072-63.84-19.472 22.464-56.208 59.696-97.632 103.712-111.744-19.088 26.544-32.512 75.28-39.872 131.216zM180.704 168.48c-3.072 28.384-4.704 58.144-4.704 87.52h-80c0-38.816 6.32-75.392 17.264-107.872 21.104 8.832 43.76 15.664 67.44 20.352zM176.224 272c0.464 24.128 1.952 48.272 4.48 71.536-23.68 4.672-46.336 11.52-67.44 20.336-9.424-27.968-15.264-58.992-16.72-91.872h79.68zM98.72 370.224c-14.080 6.752-27.152 14.512-39.296 23.040-24.4-34.816-39.632-76.352-42.608-121.264h63.744c1.504 35.136 7.856 68.32 18.16 98.224zM69.008 406.080c10.96-7.664 22.672-14.752 35.312-20.88 16.064 39.76 39.184 72.768 66.976 95.088-40.416-15.328-75.664-41.088-102.288-74.208zM340.704 480.272c27.808-22.304 50.912-55.328 66.976-95.088 12.64 6.144 24.352 13.216 35.312 20.88-26.624 33.136-61.872 58.896-102.288 74.208zM432 256c0-41.072-6.848-79.792-18.72-114.224 14.080-6.752 27.168-14.512 39.312-23.040 27.264 38.944 43.408 86.224 43.408 137.264h-64zM443.008 105.92c-10.96 7.664-22.672 14.736-35.312 20.88-16.064-39.76-39.184-72.784-66.976-95.088 40.4 15.328 75.648 41.088 102.288 74.208zM171.296 31.728c-27.808 22.304-50.912 55.328-66.976 95.088-12.656-6.144-24.352-13.232-35.312-20.896 26.624-33.12 61.872-58.88 102.288-74.192zM59.424 118.736c12.128 8.528 25.216 16.288 39.296 23.040-11.872 34.432-18.72 73.152-18.72 114.224h-64c0-51.040 16.144-98.32 43.424-137.264z" fill="#000000"></path>
</svg>
