<?xml version="1.0" encoding="utf-8"?>
<!-- Generated by IcoMoon.io -->
<!DOCTYPE svg PUBLIC "-//W3C//DTD SVG 1.1//EN" "http://www.w3.org/Graphics/SVG/1.1/DTD/svg11.dtd">
<svg version="1.1" xmlns="http://www.w3.org/2000/svg" xmlns:xlink="http://www.w3.org/1999/xlink" width="496" height="512" viewBox="0 0 496 512">
<g>
</g>
	<path d="M456 176c4.416 0 8-3.584 8-8s-3.584-8-8-8h-120v-120c0-4.416-3.584-8-8-8s-8 3.584-8 8v120h-144v-120c0-4.416-3.584-8-8-8s-8 3.584-8 8v120h-120c-4.416 0-8 3.584-8 8s3.584 8 8 8h120v144h-120c-4.416 0-8 3.584-8 8s3.584 8 8 8h120v136c0 4.416 3.584 8 8 8s8-3.584 8-8v-136h144v136c0 4.416 3.584 8 8 8s8-3.584 8-8v-136h120c4.416 0 8-3.584 8-8s-3.584-8-8-8h-120v-144h120zM320 320h-144v-144h144v144zM496 488v-464c0-13.232-10.768-24-24-24h-448c-13.232 0-24 10.768-24 24v464c0 13.232 10.768 24 24 24h448c13.232 0 24-10.768 24-24zM16 488v-464c0-4.416 3.6-8 8-8h448c4.4 0 8 3.584 8 8v464c0 4.416-3.6 8-8 8h-448c-4.4 0-8-3.584-8-8z" fill="#000000"></path>
</svg>
