<?xml version="1.0" encoding="utf-8"?>
<!-- Generated by IcoMoon.io -->
<!DOCTYPE svg PUBLIC "-//W3C//DTD SVG 1.1//EN" "http://www.w3.org/Graphics/SVG/1.1/DTD/svg11.dtd">
<svg version="1.1" xmlns="http://www.w3.org/2000/svg" xmlns:xlink="http://www.w3.org/1999/xlink" width="512" height="512" viewBox="0 0 512 512">
<g>
</g>
	<path d="M256 512.544c141.472 0 256.544-115.072 256.544-256.544s-115.072-256.544-256.544-256.544-256.544 115.072-256.544 256.544 115.072 256.544 256.544 256.544zM256 16.544c132.032 0 239.456 107.424 239.456 239.456s-107.424 239.456-239.456 239.456-239.456-107.424-239.456-239.456 107.424-239.456 239.456-239.456zM159.792 422.624c1.344 0.784 2.816 1.136 4.288 1.136 2.896 0 5.696-1.456 7.312-4.112l84.608-139.184 84.624 139.184c1.616 2.656 4.416 4.112 7.312 4.112 1.472 0 2.944-0.352 4.288-1.136 62.128-35.952 96.336-92.288 96.336-158.624 0-4.72-3.824-8.544-8.544-8h-169.552l84.976-155.088c2.24-4.080 0.816-9.2-3.216-11.536-58.624-33.904-133.824-33.904-192.416 0-4.048 2.32-5.472 7.456-3.232 11.536l84.96 155.088h-169.536c-4.72-0.544-8.544 3.28-8.544 8 0 66.336 34.208 122.672 96.336 158.624zM431.232 272c-2.704 54.288-30.944 100.288-80.416 131.488l-79.616-131.488h160.032zM336.32 100.176l-80.32 146.080-80.304-146.080c49.696-25.728 110.896-25.728 160.624 0zM240.8 272l-79.6 131.488c-49.488-31.184-77.728-77.184-80.432-131.488h160.032z" fill="#000000"></path>
</svg>
