<?xml version="1.0" encoding="utf-8"?>
<!-- Generated by IcoMoon.io -->
<!DOCTYPE svg PUBLIC "-//W3C//DTD SVG 1.1//EN" "http://www.w3.org/Graphics/SVG/1.1/DTD/svg11.dtd">
<svg version="1.1" xmlns="http://www.w3.org/2000/svg" xmlns:xlink="http://www.w3.org/1999/xlink" width="592" height="512" viewBox="0 0 592 512">
<g>
</g>
	<path d="M432 0c-39.616 0-77.696 14.736-107.264 41.52-11.232 10.16-20.848 21.712-28.736 34.464-7.888-12.752-17.504-24.304-28.736-34.48-29.568-26.768-67.648-41.504-107.264-41.504-88.224 0-160 71.776-160 160 0 59.552 18.528 106.56 61.936 157.2 63.072 73.6 222.704 185.92 229.472 190.672 1.376 0.976 2.992 1.456 4.592 1.456s3.216-0.48 4.592-1.456c6.768-4.752 166.4-117.072 229.488-190.672 43.392-50.64 61.92-97.648 61.92-157.2 0-88.224-71.776-160-160-160zM517.936 306.8c-55.92 65.216-194.88 165.456-221.936 184.72-27.056-19.264-166.016-119.504-221.92-184.72-40.72-47.504-58.080-91.408-58.080-146.8 0-79.408 64.608-144 144-144 35.632 0 69.92 13.264 96.512 37.36 13.408 12.16 24.288 26.496 32.32 42.624 2.72 5.44 11.616 5.44 14.336 0 8.032-16.128 18.912-30.464 32.32-42.608 26.592-24.112 60.88-37.376 96.512-37.376 79.392 0 144 64.592 144 144 0 55.392-17.36 99.296-58.064 146.8z" fill="#000000"></path>
</svg>
