<?xml version="1.0" encoding="utf-8"?>
<!-- Generated by IcoMoon.io -->
<!DOCTYPE svg PUBLIC "-//W3C//DTD SVG 1.1//EN" "http://www.w3.org/Graphics/SVG/1.1/DTD/svg11.dtd">
<svg version="1.1" xmlns="http://www.w3.org/2000/svg" xmlns:xlink="http://www.w3.org/1999/xlink" width="448" height="512" viewBox="0 0 448 512">
<g>
</g>
	<path d="M448 150.416c0-101.216-73.264-150.416-224-150.416s-224 49.2-224 150.416c0 116.4 210.768 250.688 219.728 256.336 0.016 0.016 0.048 0 0.080 0.016 0.176 0.112 0.368 0.112 0.56 0.208 1.152 0.608 2.368 1.024 3.632 1.024s2.48-0.416 3.632-1.008c0.176-0.096 0.384-0.096 0.56-0.208 0.016-0.016 0.048 0 0.080-0.016 8.96-5.664 219.728-139.936 219.728-256.352zM288 150.416c0 88.96-46.016 193.936-64 231.568-17.984-37.616-64-142.544-64-231.568 0-120.48 36.528-134.416 64-134.416s64 13.936 64 134.416zM144 150.416c0 76.752 31.664 162.256 53.296 211.776-43.872-46.352-117.296-135.296-117.296-211.776 0-75.040 30.688-117.232 95.632-130.112-21.184 23.168-31.632 66.272-31.632 130.112zM304 150.416c0-63.84-10.432-106.944-31.632-130.112 64.944 12.88 95.632 55.088 95.632 130.112 0 76.48-73.424 165.408-117.296 211.776 21.632-49.504 53.296-135.024 53.296-211.776zM16 150.416c0-63.536 31.792-103.52 98.496-122.112-33.824 24.512-50.496 65.024-50.496 122.112 0 67.248 50.16 140.672 93.408 191.568-61.728-49.088-141.408-125.28-141.408-191.568zM290.592 341.984c43.248-50.896 93.408-124.304 93.408-191.568 0-57.088-16.672-97.616-50.496-122.112 66.704 18.592 98.496 58.576 98.496 122.112 0 66.288-79.68 142.48-141.408 191.568zM184 432c-4.416 0-8 3.584-8 8v48c0 13.456 10.544 24 24 24h48c13.456 0 24-10.544 24-24v-48c0-4.416-3.584-8-8-8h-80zM256 488c0 4.704-3.296 8-8 8h-48c-4.704 0-8-3.296-8-8v-40h64v40z" fill="#000000"></path>
</svg>
