<?xml version="1.0" encoding="utf-8"?>
<!-- Generated by IcoMoon.io -->
<!DOCTYPE svg PUBLIC "-//W3C//DTD SVG 1.1//EN" "http://www.w3.org/Graphics/SVG/1.1/DTD/svg11.dtd">
<svg version="1.1" xmlns="http://www.w3.org/2000/svg" xmlns:xlink="http://www.w3.org/1999/xlink" width="336" height="512" viewBox="0 0 336 512">
<g>
</g>
	<path d="M336.336 8c0-4.416-3.584-8-8-8h-320.672c-4.416 0-8 3.584-8 8s3.568 8 8 8h320.688c4.416 0 7.984-3.584 7.984-8zM320 97.792v-57.792c0-4.416-3.584-8-8-8h-286.688c-4.416 0-8 3.584-8 8v57.792c0 79.616 60.928 133.6 96.224 158.176-40.464 27.872-97.536 80.912-97.536 158.24v57.792c0 4.416 3.584 8 8 8h288c4.416 0 8-3.584 8-8v-57.328c0-79.392-61.808-133.84-97.52-158.656 40.464-27.872 97.52-80.896 97.52-158.224zM168 387.040l76.96 76.96h-153.92l76.96-76.96zM203.712 249.248c-2.32 1.456-3.712 4.016-3.712 6.752s1.392 5.296 3.712 6.752c30.16 19.12 100.288 72.208 100.288 151.92v49.328h-36.608c-0.144-0.176-0.208-0.4-0.368-0.56l-91.024-91.024v-12.416c0-4.416-3.584-8-8-8s-8 3.584-8 8v12.416l-91.024 91.024c-0.16 0.16-0.224 0.384-0.368 0.56h-36.608v-49.792c0-76.432 62.832-127.696 100.288-151.44 2.32-1.472 3.712-4.032 3.712-6.768s-1.392-5.296-3.712-6.752c-29.76-18.88-100.288-71.408-100.288-151.456v-49.792h272v49.792c0 76.448-62.832 127.696-100.288 151.456zM248.656 143.552h-157.024c-2.864 0-5.52 1.536-6.944 4.016-1.424 2.496-1.408 5.552 0.032 8.032 18.992 32.336 46.72 52.128 76.080 73.104l2.544 1.808c1.392 0.992 3.008 1.488 4.656 1.488s3.264-0.496 4.656-1.488c4.192-2.992 8.416-5.936 12.64-8.88 26.224-18.304 53.344-37.216 70.256-66.032 1.456-2.464 1.472-5.536 0.048-8.016-1.44-2.496-4.080-4.032-6.944-4.032zM176.128 208.496c-2.704 1.888-5.408 3.776-8.112 5.68-24.080-17.2-45.36-32.672-61.536-54.64h127.088c-15.056 19.392-35.744 33.824-57.44 48.96zM7.664 512h320.688c4.416 0 8-3.584 8-8s-3.584-8-8-8h-320.688c-4.416 0-8 3.584-8 8s3.568 8 8 8zM168 304c-4.416 0-8 3.584-8 8v16c0 4.416 3.584 8 8 8s8-3.584 8-8v-16c0-4.416-3.584-8-8-8zM168 256c-4.416 0-8 3.584-8 8v16c0 4.416 3.584 8 8 8s8-3.584 8-8v-16c0-4.416-3.584-8-8-8z" fill="#000000"></path>
</svg>
