<?xml version="1.0" encoding="utf-8"?>
<!-- Generated by IcoMoon.io -->
<!DOCTYPE svg PUBLIC "-//W3C//DTD SVG 1.1//EN" "http://www.w3.org/Graphics/SVG/1.1/DTD/svg11.dtd">
<svg version="1.1" xmlns="http://www.w3.org/2000/svg" xmlns:xlink="http://www.w3.org/1999/xlink" width="512" height="512" viewBox="0 0 512 512">
<g>
</g>
	<path d="M234.928 235.168c1.872 0 3.76-0.656 5.28-1.984l181.072-158.752-10.56-12.032-181.072 158.736c-3.328 2.912-3.664 7.968-0.736 11.296 1.584 1.808 3.792 2.736 6.016 2.736zM163.008 512c98.272 0 156.992-77.28 156.992-152 0-21.536-5.152-45.264-12.768-60.672l72.352-36.176c2.704-1.36 4.416-4.128 4.416-7.152v-64h48c0.176 0 1.632-0.096 1.808-0.096 10.656-0.72 13.84-4.112 14.192-15.904v-64h48c2.064 0 3.488 0.224 4.448 0.368 1.936 0.304 5.552 0.864 8.688-1.952 3.232-2.88 3.088-6.528 2.96-9.744-0.032-1.152-0.096-2.672-0.096-4.672v-72.496c0-12.96-10.544-23.504-23.504-23.504h-62c-5.664 0-11.168 2.064-15.504 5.824l-210.992 184.96c-10.384-2.080-26.080-4.784-37.008-4.784-89.872 0-162.992 73.12-162.992 162.992s73.12 163.008 163.008 163.008zM163.008 202c8.016 0 21.744 1.92 37.664 5.248 2.48 0.544 5.024-0.16 6.912-1.808l213.936-187.552c1.392-1.216 3.168-1.888 4.976-1.888h62c4.144 0 7.504 3.36 7.504 7.504v72.496h-56c-4.416 0-8 3.584-8 8v72h-56c-4.416 0-8 3.584-8 8v67.056l-75.584 37.792c-2.096 1.040-3.632 2.976-4.192 5.248s-0.096 4.688 1.28 6.592c7.040 9.712 14.496 33.824 14.496 59.312 0 66.848-52.736 136-140.992 136-81.056 0-147.008-65.952-147.008-147.008s65.952-146.992 147.008-146.992zM136 432c30.88 0 56-25.12 56-56s-25.12-56-56-56-56 25.12-56 56 25.12 56 56 56zM136 336c22.048 0 40 17.952 40 40s-17.952 40-40 40-40-17.952-40-40 17.952-40 40-40z" fill="#000000"></path>
</svg>
