<?xml version="1.0" encoding="utf-8"?>
<!-- Generated by IcoMoon.io -->
<!DOCTYPE svg PUBLIC "-//W3C//DTD SVG 1.1//EN" "http://www.w3.org/Graphics/SVG/1.1/DTD/svg11.dtd">
<svg version="1.1" xmlns="http://www.w3.org/2000/svg" xmlns:xlink="http://www.w3.org/1999/xlink" width="672" height="512" viewBox="0 0 672 512">
<g>
</g>
	<path d="M56 416c4.416 0 8-3.584 8-8v-376c0-9.568 6.432-16 16-16h512c9.12 0 16 7.488 16 17.424v374.576c0 4.416 3.584 8 8 8s8-3.584 8-8v-374.576c0-18.752-14.048-33.424-32-33.424h-512c-18.544 0-32 13.456-32 32v376c0 4.416 3.584 8 8 8zM104 48c-4.416 0-8 3.584-8 8v352c0 4.416 3.584 8 8 8h464c4.416 0 8-3.584 8-8v-352c0-4.416-3.584-8-8-8h-464zM560 400h-448v-336h448v336zM664 448h-656c-4.416 0-8 3.584-8 8v18.8c0 19.168 22.528 37.2 40 37.2h592c18.32 0 40-21.68 40-40v-16c0-4.416-3.584-8-8-8zM656 472c0 9.424-14.576 24-24 24h-592c-10.096 0-24-12.288-24-21.2v-10.8h640v8z" fill="#000000"></path>
</svg>
