<?xml version="1.0" encoding="utf-8"?>
<!-- Generated by IcoMoon.io -->
<!DOCTYPE svg PUBLIC "-//W3C//DTD SVG 1.1//EN" "http://www.w3.org/Graphics/SVG/1.1/DTD/svg11.dtd">
<svg version="1.1" xmlns="http://www.w3.org/2000/svg" xmlns:xlink="http://www.w3.org/1999/xlink" width="512" height="512" viewBox="0 0 512 512">
<g>
</g>
	<path d="M492.24 116.192l-184.688-104.24c-25.136-14.192-68.336-14.208-93.52 0l-184.688 104.24c-14.128 7.984-21.888 19.152-21.888 31.472s7.776 23.488 21.888 31.456l184.688 104.256c12.576 7.104 29.184 11.008 46.752 11.008 17.584 0 34.192-3.92 46.768-11.008l184.688-104.256c14.128-7.968 21.904-19.136 21.904-31.456s-7.792-23.488-21.904-31.472zM483.824 164.24l-184.688 104.256c-19.808 11.184-56.896 11.2-76.704 0l-184.688-104.256c-8.384-4.736-13.184-10.784-13.184-16.576 0-5.808 4.8-11.84 13.184-16.592l184.688-104.256c9.904-5.6 23.888-8.8 38.336-8.8 14.464 0 28.448 3.216 38.352 8.8l184.688 104.256c8.384 4.736 13.2 10.784 13.2 16.592 0.016 5.792-4.784 11.84-13.184 16.576zM492.24 225.584c-4.096-2.32-9.312-0.88-11.664 3.248-2.32 4.112-0.864 9.328 3.248 11.648 8.384 4.736 13.2 10.784 13.2 16.576s-4.816 11.84-13.2 16.576l-184.688 104.256c-20.768 11.728-55.904 11.744-76.704 0l-184.688-104.256c-8.384-4.736-13.184-10.784-13.184-16.576s4.8-11.84 13.184-16.576c4.112-2.32 5.568-7.536 3.248-11.648-2.336-4.128-7.568-5.584-11.664-3.248-14.128 7.968-21.888 19.152-21.888 31.472s7.76 23.504 21.888 31.472l184.688 104.256c13.104 7.392 29.936 11.104 46.752 11.104 16.832 0 33.664-3.696 46.768-11.104l184.688-104.256c14.128-7.968 21.904-19.152 21.904-31.472s-7.776-23.504-21.888-31.472zM492.24 332.864c-4.096-2.32-9.312-0.88-11.664 3.248-2.32 4.112-0.864 9.328 3.248 11.648 8.384 4.736 13.2 10.784 13.2 16.576s-4.816 11.84-13.2 16.592l-184.688 104.256c-20.768 11.728-55.904 11.744-76.704 0l-184.688-104.272c-8.384-4.736-13.184-10.784-13.184-16.592 0-5.792 4.8-11.84 13.184-16.576 4.112-2.32 5.568-7.536 3.248-11.648-2.336-4.112-7.568-5.584-11.664-3.248-14.096 7.984-21.872 19.152-21.872 31.488s7.76 23.504 21.888 31.472l184.688 104.256c13.104 7.392 29.936 11.104 46.752 11.104 16.832 0 33.664-3.696 46.768-11.104l184.688-104.256c14.128-7.984 21.904-19.152 21.904-31.472s-7.792-23.504-21.904-31.472z" fill="#000000"></path>
</svg>
