<?xml version="1.0" encoding="utf-8"?>
<!-- Generated by IcoMoon.io -->
<!DOCTYPE svg PUBLIC "-//W3C//DTD SVG 1.1//EN" "http://www.w3.org/Graphics/SVG/1.1/DTD/svg11.dtd">
<svg version="1.1" xmlns="http://www.w3.org/2000/svg" xmlns:xlink="http://www.w3.org/1999/xlink" width="512" height="512" viewBox="0 0 512 512">
<g>
</g>
	<path d="M91.808 44.736l-47.088 47.072c-3.12 3.136-3.12 8.192 0 11.312 1.568 1.568 3.616 2.336 5.664 2.336s4.096-0.784 5.664-2.336l47.088-47.072c3.12-3.12 3.12-8.192 0-11.312s-8.192-3.12-11.328 0zM455.936 408.848l-47.088 47.072c-3.12 3.12-3.12 8.192 0 11.312 1.568 1.568 3.616 2.336 5.664 2.336s4.096-0.784 5.664-2.336l47.088-47.072c3.12-3.12 3.12-8.192 0-11.312s-8.208-3.136-11.328 0zM426.432 47.872c-3.12-3.12-8.192-3.12-11.312 0s-3.12 8.192 0 11.312l43.952 43.936c1.568 1.568 3.616 2.336 5.664 2.336s4.096-0.784 5.664-2.336c3.12-3.12 3.12-8.192 0-11.312l-43.968-43.936zM47.872 415.12c-3.12 3.12-3.12 8.192 0 11.312l43.952 43.936c1.568 1.568 3.616 2.336 5.664 2.336s4.096-0.784 5.664-2.336c3.12-3.12 3.12-8.192 0-11.312l-43.952-43.936c-3.152-3.12-8.208-3.12-11.328 0zM72.512 157.76c-3.264 6.080-6.096 12.336-8.704 18.624-20.944 50.624-20.96 108.656-0.016 159.232 3.232 7.792 6.832 15.248 10.688 22.128 9.328 16.656 20.896 31.936 34.368 45.408 15.424 15.44 33.104 28.304 52.544 38.224 4.928 2.512 9.936 4.736 15.008 6.832 25.312 10.48 52.096 15.792 79.6 15.792s54.288-5.312 79.616-15.792c0.016 0 0.016-0.016 0.032-0.032 6.288-2.592 12.512-5.44 18.576-8.688 18-9.632 34.464-21.856 48.928-36.336 14.464-14.448 26.688-30.912 36.336-48.944 3.248-6.080 6.112-12.304 8.72-18.624 0 0 0-0.016 0-0.016 20.912-50.608 20.912-108.624-0.016-159.184-2.096-5.056-4.336-10.096-6.832-15.008-9.904-19.424-22.768-37.088-38.224-52.544-13.456-13.456-28.72-25.008-45.392-34.352-6.864-3.856-14.32-7.472-22.144-10.704-50.608-20.944-108.528-20.944-159.216 0.016 0 0-0.016 0-0.016 0-6.32 2.624-12.544 5.456-18.624 8.72-17.984 9.632-34.432 21.856-48.896 36.336-14.464 14.448-26.704 30.896-36.336 48.912zM225.6 182.624c0 0 0 0 0 0 6.912-2.848 14.032-4.72 21.152-5.552 7.456-0.88 15.024-0.688 22.432 0.56 5.888 0.976 11.68 2.64 17.232 4.912 0 0 0 0 0.016 0 9.664 4 18.336 9.792 25.776 17.232 7.376 7.376 13.152 16.048 17.168 25.792 0 0 0 0 0 0.016 0 0 0 0 0 0 3.376 8.176 5.36 16.672 5.92 25.28 0.304 4.752 0.176 9.584-0.368 14.336-0.832 7.136-2.688 14.256-5.552 21.152 0 0 0 0 0 0s0 0 0 0.016c-4.016 9.744-9.792 18.416-17.168 25.792-7.36 7.36-16.048 13.136-25.808 17.168 0 0 0 0 0 0-6.912 2.832-14.032 4.72-21.152 5.536-4.752 0.56-9.536 0.688-14.352 0.368-8.592-0.544-17.104-2.544-25.296-5.92-9.76-4.032-18.448-9.808-25.808-17.168-7.44-7.44-13.232-16.096-17.232-25.776-2.288-5.536-3.952-11.344-4.944-17.248-1.248-7.44-1.424-14.992-0.56-22.416 0.832-7.136 2.688-14.256 5.552-21.152 0 0 0 0 0 0s0 0 0-0.016c4.016-9.744 9.792-18.416 17.168-25.792 7.376-7.312 16.064-13.088 25.824-17.12zM436.336 189.968c15.456 42.368 15.456 89.664 0 132.064l-89.408-37.024c1.904-5.888 3.2-11.888 3.904-17.92 0.672-5.696 0.816-11.504 0.448-17.216-0.496-7.728-1.952-15.392-4.352-22.864l89.408-37.040zM161.856 271.824c0.752 4.464 1.824 8.88 3.184 13.184l-89.376 37.040c-15.456-42.368-15.44-89.664 0.016-132.064l89.392 37.024c-1.904 5.888-3.2 11.888-3.904 17.904-1.024 8.928-0.816 17.984 0.688 26.912zM120.16 391.84c-12.432-12.432-23.104-26.528-31.728-41.92-2.336-4.16-4.56-8.528-6.656-13.088l89.376-37.008c4.496 8.736 10.32 16.672 17.328 23.696 6.976 6.992 14.944 12.784 23.728 17.28l-37.056 89.456c-2.176-0.992-4.336-2.032-6.496-3.12-17.936-9.184-34.256-21.040-48.496-35.296zM189.968 436.336l37.040-89.424c7.472 2.4 15.136 3.856 22.848 4.352 5.728 0.336 11.488 0.24 17.248-0.448 6.016-0.704 12-2.016 17.888-3.904l37.040 89.424c-42.288 15.488-89.776 15.488-132.064 0zM391.84 391.84c-13.344 13.36-28.544 24.64-45.184 33.552-3.232 1.728-6.512 3.344-9.824 4.864l-37.056-89.456c8.8-4.496 16.752-10.288 23.728-17.28 6.992-6.976 12.784-14.944 17.28-23.728l89.44 37.040c-1.52 3.328-3.12 6.608-4.864 9.84-8.88 16.64-20.16 31.824-33.52 45.168zM391.84 120.16c14.272 14.272 26.128 30.576 35.28 48.512 1.104 2.144 2.128 4.304 3.136 6.496l-89.456 37.040c-4.512-8.784-10.288-16.752-17.28-23.728-7.024-7.024-14.976-12.848-23.712-17.344l37.040-89.376c4.576 2.112 8.96 4.336 13.104 6.672 15.376 8.624 29.472 19.296 41.888 31.728zM322.048 75.664l-37.040 89.392c-4.32-1.376-8.736-2.432-13.184-3.184-8.848-1.504-17.92-1.728-26.928-0.672-6.016 0.704-12 2.016-17.888 3.904l-37.040-89.424c42.32-15.504 89.792-15.504 132.080-0.016zM165.328 86.608c3.232-1.728 6.512-3.344 9.84-4.848l37.040 89.44c-8.8 4.496-16.752 10.304-23.728 17.28-6.992 6.976-12.784 14.944-17.28 23.728l-89.44-37.040c1.504-3.328 3.104-6.608 4.848-9.84 8.912-16.64 20.192-31.824 33.552-45.168 13.344-13.36 28.544-24.64 45.168-33.552zM374.688 464.656c-73.216 41.712-164.176 41.712-237.392 0-3.856-2.176-8.736-0.864-10.912 3.008-2.192 3.824-0.848 8.72 2.992 10.912 39.056 22.256 82.832 33.36 126.624 33.36s87.568-11.104 126.624-33.36c3.84-2.192 5.184-7.072 2.992-10.912-2.208-3.872-7.088-5.184-10.928-3.008zM33.44 129.392c-44.496 78.096-44.496 175.12 0 253.216 1.472 2.592 4.176 4.048 6.96 4.048 1.344 0 2.704-0.336 3.952-1.040 3.84-2.192 5.184-7.072 2.992-10.912-41.712-73.216-41.712-164.192 0-237.408 2.192-3.824 0.848-8.72-2.992-10.912-3.856-2.16-8.736-0.832-10.912 3.008zM478.56 382.608c44.496-78.096 44.496-175.12 0-253.216-2.192-3.84-7.104-5.168-10.912-3.008-3.84 2.192-5.184 7.072-2.992 10.912 41.712 73.216 41.712 164.192 0 237.408-2.192 3.824-0.848 8.72 2.992 10.912 1.248 0.704 2.608 1.040 3.952 1.040 2.784 0 5.488-1.456 6.96-4.048zM137.312 47.344c73.216-41.712 164.176-41.712 237.392 0 1.248 0.704 2.608 1.040 3.952 1.040 2.784 0 5.488-1.456 6.96-4.048 2.192-3.824 0.848-8.72-2.992-10.912-78.112-44.496-175.12-44.496-253.232 0-3.84 2.192-5.184 7.072-2.992 10.912 2.176 3.856 7.056 5.152 10.912 3.008z" fill="#000000"></path>
</svg>
