<?xml version="1.0" encoding="utf-8"?>
<!-- Generated by IcoMoon.io -->
<!DOCTYPE svg PUBLIC "-//W3C//DTD SVG 1.1//EN" "http://www.w3.org/Graphics/SVG/1.1/DTD/svg11.dtd">
<svg version="1.1" xmlns="http://www.w3.org/2000/svg" xmlns:xlink="http://www.w3.org/1999/xlink" width="352" height="512" viewBox="0 0 352 512">
<g>
</g>
	<path d="M176 0c-84.64 0-176 67.296-176 176 0 53.648 21.344 98.784 62.336 132.992 0.432 0.544 0.928 1.008 1.472 1.408 30.416 32.992 31.952 39.264 32.16 53.776 0.096 5.744 0.048 7.44 0 8.368l-0.064 3.344c-0.24 7.232-0.608 19.344 14.384 23.92l129.504 28.496c0.576 0.128 1.152 0.192 1.712 0.192 3.68 0 6.992-2.544 7.808-6.288 0.96-4.32-1.776-8.592-6.096-9.536l-128.88-28.336c-2.48-0.752-2.688-0.816-2.464-7.968l0.048-3.056c0 0 0.16-1.248 0.032-9.376-0.304-20.304-4.72-30.112-36.944-64.944-0.624-0.768-1.376-1.408-2.208-1.888-37.696-32.048-56.8-72.784-56.8-121.104 0-98.832 83.040-160 160-160 78.656 0 160 59.856 160 160 0 63.648-30.848 98.736-56.288 120.816-0.88 0.416-1.664 1.008-2.352 1.744-32.592 35.264-37.008 45.072-37.312 65.376 0 0.48-0.016 1.040 0 1.648l-0.016 0.56c-0.048 1.216-0.224 1.888-0.208 2.144-0.544-0.080-1.872-0.288-1.872-0.288l-67.12-15.792c-4.352-0.992-8.608 1.664-9.616 5.952-1.008 4.304 1.648 8.608 5.952 9.632l66.304 15.552c0.88 0.32 8.848 2.912 15.568-1.808 2.928-2.064 6.336-6.112 6.944-13.856l0.048-0.752c0.016-0.512 0.032-1.040 0.032-1.584 0-0.144 0-0.288-0.016-0.416l0.016-0.736c0.208-14.432 1.712-20.704 32.080-53.696 0.144-0.112 0.304-0.224 0.432-0.352 42.672-35.856 63.424-79.744 63.424-134.144 0-110.16-89.488-176-176-176zM240 472c3.664 0 6.96-2.512 7.792-6.24 0.992-4.304-1.712-8.592-6.032-9.568l-128-29.024c-4.336-0.96-8.592 1.728-9.568 6.032-0.992 4.304 1.712 8.592 6.032 9.568l128 29.024c0.608 0.144 1.2 0.208 1.776 0.208zM121.744 472.864c-4.336-0.96-8.576 1.744-9.568 6.048-0.96 4.32 1.744 8.592 6.064 9.552l104 23.328c0.608 0.144 1.184 0.208 1.76 0.208 3.664 0 6.976-2.528 7.808-6.256 0.96-4.32-1.744-8.592-6.064-9.552l-104-23.328z" fill="#000000"></path>
</svg>
