<?xml version="1.0" encoding="utf-8"?>
<!-- Generated by IcoMoon.io -->
<!DOCTYPE svg PUBLIC "-//W3C//DTD SVG 1.1//EN" "http://www.w3.org/Graphics/SVG/1.1/DTD/svg11.dtd">
<svg version="1.1" xmlns="http://www.w3.org/2000/svg" xmlns:xlink="http://www.w3.org/1999/xlink" width="672" height="512" viewBox="0 0 672 512">
<g>
</g>
	<path d="M624 0c-26.464 0-48 21.536-48 48 0 14.208 6.336 26.864 16.176 35.664l-140.8 224.496c-5.936-2.64-12.48-4.16-19.376-4.16-13.888 0-26.304 6.016-35.088 15.472l-145.168-91.92c2.688-5.984 4.256-12.576 4.256-19.552 0-26.464-21.536-48-48-48s-48 21.536-48 48c0 14.464 6.56 27.296 16.704 36.096l-110.32 175.6c-5.664-2.368-11.872-3.696-18.384-3.696-26.464 0-48 21.536-48 48s21.536 48 48 48 48-21.536 48-48c0-14.208-6.32-26.848-16.16-35.648l110.464-175.84c5.488 2.208 11.44 3.488 17.696 3.488 13.744 0 26.064-5.872 34.816-15.152l145.248 91.968c-2.576 5.888-4.064 12.352-4.064 19.184 0 26.464 21.536 48 48 48s48-21.536 48-48c0-13.808-5.936-26.176-15.312-34.944l140.96-224.736c5.664 2.352 11.856 3.68 18.352 3.68 26.464 0 48-21.536 48-48s-21.536-48-48-48zM80 464c0 17.648-14.352 32-32 32s-32-14.352-32-32 14.352-32 32-32 32 14.352 32 32zM208 240c-17.648 0-32-14.352-32-32s14.352-32 32-32 32 14.352 32 32-14.352 32-32 32zM432 384c-17.648 0-32-14.352-32-32s14.352-32 32-32 32 14.352 32 32-14.352 32-32 32zM624 80c-17.648 0-32-14.352-32-32s14.352-32 32-32 32 14.352 32 32-14.352 32-32 32z" fill="#000000"></path>
</svg>
