<?xml version="1.0" encoding="utf-8"?>
<!-- Generated by IcoMoon.io -->
<!DOCTYPE svg PUBLIC "-//W3C//DTD SVG 1.1//EN" "http://www.w3.org/Graphics/SVG/1.1/DTD/svg11.dtd">
<svg version="1.1" xmlns="http://www.w3.org/2000/svg" xmlns:xlink="http://www.w3.org/1999/xlink" width="512" height="512" viewBox="0 0 512 512">
<g>
</g>
	<path d="M312.24 191.232c-10.848 0-18.88 2.736-25.168 6.192-1.008-3.584-4.32-6.208-8.224-5.424h-47.744c-4.72-0.784-8.544 3.040-7.088 8v176c-1.456 4.48 2.368 8.32 7.088 8h47.744c4.72 0.32 8.544-3.52 8.544-8.24l-0.016-106.368c-0.016-0.048-0.192-5.136 3.024-8.64 2.576-2.784 7.008-4.208 13.136-4.208 10.208 0 14.752 4.176 16.448 13.52v105.696c-1.68 4.72 2.144 8.56 6.864 8.24h50.32c4.72 0.32 8.544-3.52 6.848-8.24v-109.248c1.68-55.552-37.888-75.28-71.776-75.28zM368.608 368h-33.216v-97.936c0-18.896-12.208-30.608-31.84-30.608-11.104 0-19.744 3.264-25.696 9.696-8.272 8.96-7.632 20.32-5.856 22.848v96h-32.352v-159.68h30.656v5.376c0 3.248 1.84 6.24 4.768 7.664s6.4 1.072 8.992-0.896l2.24-1.728c6.48-5.104 13.184-10.4 25.952-10.4 13.216 0 56.368 4.208 56.368 58.192v101.472zM176 111.456c-17.952 0-32.544 14.592-32.544 32.544s14.592 32.544 32.544 32.544 32.544-14.592 32.544-32.544-14.592-32.544-32.544-32.544zM176 159.456c-8.512 0-15.456-6.944-15.456-15.456s6.944-15.456 15.456-15.456 15.456 6.944 15.456 15.456-6.944 15.456-15.456 15.456zM198.848 191.216h-47.488c-4.72 0-8.544 3.824-7.36 8.784v176c-1.184 4.48 2.64 8.32 7.36 8h47.488c4.72 0.32 8.544-3.52 8.544-8.24v-176c0-4.72-3.824-8.544-8.544-8.544zM192 368h-32.096v-159.68h32.096v159.68zM256-0.544c-141.472 0-256.544 115.072-256.544 256.544s115.072 256.544 256.544 256.544 256.544-115.072 256.544-256.544-115.072-256.544-256.544-256.544zM256 495.456c-132.032 0-239.456-107.424-239.456-239.456s107.424-239.456 239.456-239.456 239.456 107.424 239.456 239.456-107.424 239.456-239.456 239.456z" fill="#000000"></path>
</svg>
