<?xml version="1.0" encoding="utf-8"?>
<!-- Generated by IcoMoon.io -->
<!DOCTYPE svg PUBLIC "-//W3C//DTD SVG 1.1//EN" "http://www.w3.org/Graphics/SVG/1.1/DTD/svg11.dtd">
<svg version="1.1" xmlns="http://www.w3.org/2000/svg" xmlns:xlink="http://www.w3.org/1999/xlink" width="448" height="512" viewBox="0 0 448 512">
<g>
</g>
	<path d="M224 0c-88.224 0-160 71.776-160 160v48h-24c-22.048 0-40 17.952-40 40v224c0 22.048 17.952 40 40 40h368c22.048 0 40-17.952 40-40v-224c0-22.048-17.952-40-40-40h-24v-48c0-88.224-71.776-160-160-160zM80 160c0-79.392 64.608-144 144-144s144 64.608 144 144v48h-48v-48c0-52.944-43.056-96-96-96s-96 43.056-96 96v48h-48v-48zM304 208h-160v-48c0-44.112 35.888-80 80-80s80 35.888 80 80v48zM196.688 336l-80 80h-73.376l80-80h73.376zM292.688 336l-80 80h-73.376l80-80h73.376zM388.688 336l-80 80h-73.376l80-80h73.376zM432 336v80h-100.688l80-80h20.688zM20.688 416h-4.688v-80h84.688l-80 80zM408 496h-368c-13.232 0-24-10.768-24-24v-40h416v40c0 13.232-10.768 24-24 24zM432 248v72h-416v-72c0-13.232 10.768-24 24-24h368c13.232 0 24 10.768 24 24z" fill="#000000"></path>
</svg>
