<?xml version="1.0" encoding="utf-8"?>
<!-- Generated by IcoMoon.io -->
<!DOCTYPE svg PUBLIC "-//W3C//DTD SVG 1.1//EN" "http://www.w3.org/Graphics/SVG/1.1/DTD/svg11.dtd">
<svg version="1.1" xmlns="http://www.w3.org/2000/svg" xmlns:xlink="http://www.w3.org/1999/xlink" width="512" height="512" viewBox="0 0 512 512">
<g>
</g>
	<path d="M168 0c-92.64 0-168 75.36-168 168s75.36 168 168 168c43.6 0 83.248-16.832 113.136-44.16 0.352 0.624 0.672 1.28 1.216 1.824l34.416 34.416c-2.88 4.864-4.512 10.368-4.512 16.176 0 8.544 3.328 16.576 9.376 22.624l135.76 135.76c6.032 6.032 14.064 9.36 22.608 9.36s16.576-3.328 22.624-9.376 9.376-14.080 9.376-22.624-3.328-16.576-9.376-22.624l-135.76-135.76c-10.144-10.144-26.544-11.664-38.72-4.784l-34.48-34.48c-0.544-0.544-1.184-0.864-1.824-1.216 27.328-29.888 44.16-69.536 44.16-113.136 0-92.64-75.36-168-168-168zM355.552 332.928l135.76 135.76c3.024 3.024 4.688 7.040 4.688 11.312s-1.664 8.288-4.688 11.312c-6.064 6.032-16.56 6.032-22.624 0l-135.76-135.76c-3.008-3.024-4.688-7.040-4.688-11.312s1.664-8.288 4.688-11.312c3.024-3.008 7.040-4.688 11.312-4.688s8.272 1.664 11.312 4.688zM168 320c-83.808 0-152-68.192-152-152s68.192-152 152-152 152 68.192 152 152-68.192 152-152 152zM168 48c-66.176 0-120 53.824-120 120s53.824 120 120 120 120-53.824 120-120-53.824-120-120-120zM168 272c-57.344 0-104-46.656-104-104s46.656-104 104-104 104 46.656 104 104-46.656 104-104 104z" fill="#000000"></path>
</svg>
