<?xml version="1.0" encoding="utf-8"?>
<!-- Generated by IcoMoon.io -->
<!DOCTYPE svg PUBLIC "-//W3C//DTD SVG 1.1//EN" "http://www.w3.org/Graphics/SVG/1.1/DTD/svg11.dtd">
<svg version="1.1" xmlns="http://www.w3.org/2000/svg" xmlns:xlink="http://www.w3.org/1999/xlink" width="384" height="512" viewBox="0 0 384 512">
<g>
</g>
	<path d="M192 0c-105.872 0-192 86.304-192 192.352 0 158.832 179.216 311.344 186.848 317.76 1.488 1.264 3.328 1.888 5.152 1.888 1.808 0 3.616-0.608 5.088-1.824 7.632-6.304 186.912-156.192 186.912-317.824 0-106.048-86.128-192.352-192-192.352zM192.032 493.408c-29.456-26.32-176.032-164.144-176.032-301.056 0-97.248 78.96-176.352 176-176.352s176 79.104 176 176.352c0 139.232-146.432 275.088-175.968 301.056zM192 96c-52.944 0-96 43.056-96 96s43.056 96 96 96 96-43.056 96-96-43.056-96-96-96zM192 272c-44.112 0-80-35.888-80-80s35.888-80 80-80 80 35.888 80 80-35.888 80-80 80z" fill="#000000"></path>
</svg>
