<?xml version="1.0" encoding="utf-8"?>
<!-- Generated by IcoMoon.io -->
<!DOCTYPE svg PUBLIC "-//W3C//DTD SVG 1.1//EN" "http://www.w3.org/Graphics/SVG/1.1/DTD/svg11.dtd">
<svg version="1.1" xmlns="http://www.w3.org/2000/svg" xmlns:xlink="http://www.w3.org/1999/xlink" width="656" height="512" viewBox="0 0 656 512">
<g>
</g>
	<path d="M147.824 510.832c0.144 0.096 0.336 0.048 0.48 0.144 1.168 0.592 2.384 1.024 3.696 1.024 0.704 0 1.408-0.096 2.112-0.288l173.888-47.456 173.888 47.456c0.704 0.192 1.408 0.288 2.112 0.288 1.312 0 2.528-0.432 3.68-1.040 0.16-0.080 0.336-0.048 0.48-0.144l144-88c3.056-1.872 4.496-5.568 3.52-9.008l-79.744-280c-0.656-2.352-2.368-4.272-4.64-5.216-2.272-0.912-4.816-0.768-6.976 0.416l-79.392 44.544c-3.84 2.16-5.216 7.040-3.056 10.896 2.16 3.872 7.024 5.232 10.912 3.056l70.544-39.6 75.312 264.416-128.24 78.384-30.464-243.696c-0.544-4.4-4.688-7.456-8.944-6.944-4.368 0.544-7.488 4.544-6.944 8.928l30.512 244.144-158.56-43.28v-43.68c0-4.416-3.584-8-8-8s-8 3.584-8 8v43.68l-158.576 43.28 30.512-244.144c0.544-4.384-2.56-8.384-6.944-8.928-4.352-0.512-8.384 2.544-8.944 6.944l-30.448 243.696-128.24-78.368 75.312-264.4 70.544 39.6c3.872 2.144 8.736 0.784 10.912-3.056 2.16-3.856 0.784-8.72-3.056-10.896l-79.408-44.56c-2.128-1.2-4.672-1.36-6.96-0.416-2.272 0.944-3.984 2.848-4.64 5.216l-79.744 280c-0.992 3.456 0.448 7.136 3.52 9.008l143.984 88zM322.576 373.888c1.536 1.408 3.472 2.112 5.424 2.112 1.92 0 3.84-0.688 5.376-2.064 5.328-4.848 130.624-119.824 130.624-237.936 0-76.272-59.728-136-136-136s-136 59.728-136 136c0 116.064 125.248 232.96 130.576 237.888zM328 16c68.4 0 120 51.584 120 120 0 97.552-95.888 197.392-119.952 220.912-24.016-23.792-120.048-124.944-120.048-220.912 0-68.416 51.6-120 120-120zM400 136c0-39.696-32.304-72-72-72s-72 32.304-72 72 32.304 72 72 72 72-32.304 72-72zM328 192c-30.88 0-56-25.12-56-56s25.12-56 56-56 56 25.12 56 56-25.12 56-56 56z" fill="#000000"></path>
</svg>
