<?xml version="1.0" encoding="utf-8"?>
<!-- Generated by IcoMoon.io -->
<!DOCTYPE svg PUBLIC "-//W3C//DTD SVG 1.1//EN" "http://www.w3.org/Graphics/SVG/1.1/DTD/svg11.dtd">
<svg version="1.1" xmlns="http://www.w3.org/2000/svg" xmlns:xlink="http://www.w3.org/1999/xlink" width="640" height="512" viewBox="0 0 640 512">
<g>
</g>
	<path d="M631.968 0c-4.432 0-7.968 3.584-7.968 8v496c0 4.416 3.536 8 7.968 8s8-3.584 8-8v-496c0-4.416-3.584-8-8-8zM603.472 19.264c-2.72-1.328-6.016-0.992-8.416 0.88l-9.040 7.12c-47.648 37.68-127.344 100.736-290.016 100.736h-221.904c-23.216 0-42.096 19.2-42.096 42.784v171.424c0 23.040 18.88 41.792 42.096 41.792h54.304c1.408 18 8.032 60.704 39.264 92.176 23.584 23.776 56 35.824 96.336 35.824 4.416 0 8-3.584 8-8s-3.584-8-8-8c-35.872 0-64.416-10.432-84.896-31.008-26.672-26.816-33.072-64.384-34.608-80.992h47.92c1.36 10.912 5.76 30.096 20.384 44.832 12.624 12.72 29.856 19.168 51.2 19.168 4.416 0 8-3.584 8-8s-3.584-8-8-8c-16.88 0-30.256-4.832-39.744-14.336-10.512-10.544-14.304-24.736-15.696-33.664h86.336c163.456 0 243.792 63.408 291.792 101.296l8.352 6.576c1.424 1.12 3.168 1.68 4.912 1.68 1.2 0 2.4-0.272 3.504-0.816 2.752-1.344 4.496-4.128 4.496-7.184v-459.104c0.016-3.056-1.728-5.84-4.48-7.184zM48 342.208v-171.424c0-14.768 11.696-26.784 26.096-26.784h53.904v224h-53.904c-14.64 0-26.096-11.328-26.096-25.792zM592 469.072c-50.144-39.456-133.248-101.072-297.088-101.072h-92.752c-0.752-0.24-1.52-0.48-2.368-0.496-0.016 0-0.016 0-0.032 0-0.864 0-1.68 0.24-2.464 0.496h-53.296v-224h152c163.792 0 246.304-61.824 296-101.056v426.128zM8 349.712c4.416 0 8-3.584 8-8v-171.424c0-4.416-3.584-8-8-8s-8 3.568-8 8v171.424c0 4.416 3.584 8 8 8z" fill="#000000"></path>
</svg>
