<?xml version="1.0" encoding="utf-8"?>
<!-- Generated by IcoMoon.io -->
<!DOCTYPE svg PUBLIC "-//W3C//DTD SVG 1.1//EN" "http://www.w3.org/Graphics/SVG/1.1/DTD/svg11.dtd">
<svg version="1.1" xmlns="http://www.w3.org/2000/svg" xmlns:xlink="http://www.w3.org/1999/xlink" width="240" height="512" viewBox="0 0 240 512">
<g>
</g>
	<path d="M112 384.112v63.888h-47.456c-18.256 0-32 13.744-32 32v24c0 4.416 3.584 8 8 8h160c4.416 0 8-3.584 8-8v-22.8c0-18.624-14.064-33.2-32-33.2h-48.544v-63.888c63.568-4.448 113.088-56.96 113.088-121.024v-30.192c0-4.72-3.824-8.544-8.544-8.544s-8.544 3.84-8.544 8.56v30.192c0 57.552-46.4 104.352-103.456 104.352s-103.456-46.816-103.456-104.352v-30.192c0-4.72-3.824-8.544-8.544-8.544s-8.544 3.824-8.544 8.544v30.192c0 64.048 49.52 116.56 112 121.008zM192.544 481.2v14.8h-144v-16c0-9.424 6.576-16 16-16h112c9.12 0 16 7.392 16 17.2zM120.544-0.544c-40 0-72.544 32.944-72.544 73.456v190.192c0 40.496 32.544 73.456 72.544 73.456s72.544-32.96 71.456-73.456v-190.192c1.088-40.512-31.456-73.456-71.456-73.456zM176 263.088c0 31.072-24.88 56.352-55.456 56.352s-56.544-25.264-56.544-56.352v-190.176c0-31.072 25.968-56.352 56.544-56.352s55.456 25.264 55.456 56.352v190.176z" fill="#000000"></path>
</svg>
