<?xml version="1.0" encoding="utf-8"?>
<!-- Generated by IcoMoon.io -->
<!DOCTYPE svg PUBLIC "-//W3C//DTD SVG 1.1//EN" "http://www.w3.org/Graphics/SVG/1.1/DTD/svg11.dtd">
<svg version="1.1" xmlns="http://www.w3.org/2000/svg" xmlns:xlink="http://www.w3.org/1999/xlink" width="512" height="512" viewBox="0 0 512 512">
<g>
</g>
	<path d="M24 512h224c4.416 0 8-3.584 8-8s-3.584-8-8-8h-224c-4.416 0-8-3.584-8-8v-464c0-4.416 3.584-8 8-8h336c4.416 0 8 3.584 8 8v80c0 4.416 3.584 8 8 8s8-3.584 8-8v-80c0-13.232-10.768-24-24-24h-336c-13.232 0-24 10.768-24 24v464c0 13.232 10.768 24 24 24zM288 168v320c0 13.232 10.768 24 24 24h176c13.232 0 24-10.768 24-24v-320c0-13.232-10.768-24-24-24h-176c-13.232 0-24 10.768-24 24zM496 168v320c0 4.416-3.584 8-8 8h-176c-4.416 0-8-3.584-8-8v-320c0-4.416 3.584-8 8-8h176c4.416 0 8 3.584 8 8zM176 448c0 8.837 7.163 16 16 16s16-7.163 16-16c0-8.837-7.163-16-16-16s-16 7.163-16 16zM384 448c0 8.837 7.163 16 16 16s16-7.163 16-16c0-8.837-7.163-16-16-16s-16 7.163-16 16z" fill="#000000"></path>
</svg>
