<?xml version="1.0" encoding="utf-8"?>
<!-- Generated by IcoMoon.io -->
<!DOCTYPE svg PUBLIC "-//W3C//DTD SVG 1.1//EN" "http://www.w3.org/Graphics/SVG/1.1/DTD/svg11.dtd">
<svg version="1.1" xmlns="http://www.w3.org/2000/svg" xmlns:xlink="http://www.w3.org/1999/xlink" width="672" height="512" viewBox="0 0 672 512">
<g>
</g>
	<path d="M592 464c19.136 0 32-12.864 32-32v-424c0-4.416-3.584-8-8-8s-8 3.584-8 8v424c0 13.92-10.032 16-16 16-1.648 0-16-0.448-16-16v-424c0-4.416-3.584-8-8-8s-8 3.584-8 8v424c0 21.008 16.096 32 32 32zM72 336h160c4.416 0 8-3.584 8-8v-144c0-4.416-3.584-8-8-8h-160c-4.416 0-8 3.584-8 8v144c0 4.416 3.584 8 8 8zM80 192h144v128h-144v-128zM72 128h384c4.416 0 8-3.584 8-8v-64c0-4.416-3.584-8-8-8h-384c-4.416 0-8 3.584-8 8v64c0 4.416 3.584 8 8 8zM80 64h368v48h-368v-48zM456 176h-160c-4.416 0-8 3.584-8 8s3.584 8 8 8h160c4.416 0 8-3.584 8-8s-3.584-8-8-8zM456 224h-160c-4.416 0-8 3.584-8 8s3.584 8 8 8h160c4.416 0 8-3.584 8-8s-3.584-8-8-8zM456 272h-160c-4.416 0-8 3.584-8 8s3.584 8 8 8h160c4.416 0 8-3.584 8-8s-3.584-8-8-8zM456 320h-160c-4.416 0-8 3.584-8 8s3.584 8 8 8h160c4.416 0 8-3.584 8-8s-3.584-8-8-8zM456 368h-160c-4.416 0-8 3.584-8 8s3.584 8 8 8h160c4.416 0 8-3.584 8-8s-3.584-8-8-8zM72 384h160c4.416 0 8-3.584 8-8s-3.584-8-8-8h-160c-4.416 0-8 3.584-8 8s3.584 8 8 8zM456 416h-160c-4.416 0-8 3.584-8 8s3.584 8 8 8h160c4.416 0 8-3.584 8-8s-3.584-8-8-8zM72 432h160c4.416 0 8-3.584 8-8s-3.584-8-8-8h-160c-4.416 0-8 3.584-8 8s3.584 8 8 8zM80 511.152h512c0.128 0 0.256 0 0.32 0 0.112 0 0.208-0.064 0.32-0.064 43.344-0.352 78.528-35.664 78.528-79.088v-424c0-3.952-3.2-7.152-7.152-7.152s-7.152 3.2-7.152 7.152v424c0 35.76-29.088 64.848-64.848 64.848s-64.864-29.088-64.864-64.848v-424c0-3.952-3.2-7.152-7.152-7.152h-512c-3.952 0-7.152 3.2-7.152 7.152v424c0 43.648 35.504 79.152 79.152 79.152zM15.152 15.152h497.68v416.848c0 4.896 0.592 9.648 1.44 14.32 0.176 0.928 0.32 1.856 0.528 2.768 0.992 4.448 2.304 8.752 4.016 12.896 0.304 0.752 0.672 1.456 1.008 2.192 1.728 3.872 3.728 7.6 6.048 11.12 0.272 0.4 0.48 0.832 0.752 1.232 2.528 3.68 5.408 7.088 8.496 10.288 0.672 0.688 1.328 1.36 2.032 2.032 2.976 2.88 6.112 5.616 9.504 8h-466.656c-35.744 0-64.848-29.088-64.848-64.848v-416.848z" fill="#000000"></path>
</svg>
