<?xml version="1.0" encoding="utf-8"?>
<!-- Generated by IcoMoon.io -->
<!DOCTYPE svg PUBLIC "-//W3C//DTD SVG 1.1//EN" "http://www.w3.org/Graphics/SVG/1.1/DTD/svg11.dtd">
<svg version="1.1" xmlns="http://www.w3.org/2000/svg" xmlns:xlink="http://www.w3.org/1999/xlink" width="432" height="512" viewBox="0 0 432 512">
<g>
</g>
	<path d="M376 512c13.904 0 24-10.096 24-24v-448c0-13.904-10.096-24-24-24h-320c-13.904 0-24 10.096-24 24v18.672c0 4.416 3.584 8 8 8s8-3.584 8-8v-18.672c0-5.008 2.992-8 8-8h72.992v464h-72.992c-5.008 0-8-2.992-8-8v-14.672c0-4.416-3.584-8-8-8s-8 3.584-8 8v14.672c0 13.904 10.096 24 24 24h320zM144 32h232c5.008 0 8 2.992 8 8v448c0 5.008-2.992 8-8 8h-232v-464zM432 472v-416c0-4.416-3.584-8-8-8s-8 3.584-8 8v416c0 4.416 3.584 8 8 8s8-3.584 8-8zM8 176h64c4.416 0 8-3.584 8-8s-3.584-8-8-8h-64c-4.416 0-8 3.584-8 8s3.584 8 8 8zM8 112h64c4.416 0 8-3.584 8-8s-3.584-8-8-8h-64c-4.416 0-8 3.584-8 8s3.584 8 8 8zM8 240h64c4.416 0 8-3.584 8-8s-3.584-8-8-8h-64c-4.416 0-8 3.584-8 8s3.584 8 8 8zM8 368h64c4.416 0 8-3.584 8-8s-3.584-8-8-8h-64c-4.416 0-8 3.584-8 8s3.584 8 8 8zM8 304h64c4.416 0 8-3.584 8-8s-3.584-8-8-8h-64c-4.416 0-8 3.584-8 8s3.584 8 8 8zM8 432h64c4.416 0 8-3.584 8-8s-3.584-8-8-8h-64c-4.416 0-8 3.584-8 8s3.584 8 8 8z" fill="#000000"></path>
</svg>
