<?xml version="1.0" encoding="utf-8"?>
<!-- Generated by IcoMoon.io -->
<!DOCTYPE svg PUBLIC "-//W3C//DTD SVG 1.1//EN" "http://www.w3.org/Graphics/SVG/1.1/DTD/svg11.dtd">
<svg version="1.1" xmlns="http://www.w3.org/2000/svg" xmlns:xlink="http://www.w3.org/1999/xlink" width="352" height="512" viewBox="0 0 352 512">
<g>
</g>
	<path d="M246.448 336h73.28c16.848 0 30.544-13.696 32.272-30.544v-274.912c-1.728-16.848-15.424-30.544-32.272-30.544h-287.456c-16.848 0-30.544 13.696-32.272 30.544v274.912c1.728 16.848 15.424 30.544 32.272 30.544h79.392c5.568 0 33.328 1.184 33.328 24.672 0 41.952-8.848 61.472-12.192 68.832l-0.784 1.744 6.448 2.784v0.208l-7.152-1.44c-0.272 0.528-0.48 1.088-0.608 1.664-2.464 6.576-3.712 13.328-3.712 20.112 0.016 34.352 19.696 57.424 49.008 57.424 29.616 0 49.504-23.072 49.504-57.424 0-6.256-1.056-12.48-3.168-18.576-0.080-1.824-0.784-3.52-1.904-4.832-0.416-0.96-0.96-2-1.616-3.232-3.504-6.64-10.816-20.432-10.816-67.264 0-9.92 10.24-24.672 38.448-24.672zM16 192.944h320v63.056h-320v-63.056zM32.272 16h287.456c8.016 0 14.544 6.528 16.272 14.544v146.384h-320v-146.384c1.728-8.016 8.256-14.544 16.272-14.544zM204.672 435.424c0.448 0.848 0.832 1.552 1.488 3.024 0 0.016 0.048 0.112 0.112 0.256 0.064 0.208 0.128 0.4 0.208 0.608 2 5.008 3.008 10.16 3.008 15.264 0.016 20.032-8.784 41.424-33.488 41.424-24.336 0-32.992-21.392-32.992-41.424 0-5.104 1.008-10.256 3.008-15.264 0.064-0.192 0.144-0.368 0.192-0.56 0.224-0.48 0.496-1.088 0.528-1.152l0.672-1.488c3.712-8.224 13.616-30.016 13.616-75.44-0.032-32.112-31.024-40.672-49.824-40.672 0 0 0 0-0.016 0h-78.912c-8.016 0-14.544-6.528-16.272-14.544v-33.456h320v33.456c-1.728 8.016-8.256 14.544-16.272 14.544h-73.28c-39.952 0-54.448 24.336-54.448 40.672 0 50.8 8.56 66.992 12.672 74.752z" fill="#000000"></path>
</svg>
