<?xml version="1.0" encoding="utf-8"?>
<!-- Generated by IcoMoon.io -->
<!DOCTYPE svg PUBLIC "-//W3C//DTD SVG 1.1//EN" "http://www.w3.org/Graphics/SVG/1.1/DTD/svg11.dtd">
<svg version="1.1" xmlns="http://www.w3.org/2000/svg" xmlns:xlink="http://www.w3.org/1999/xlink" width="544" height="512" viewBox="0 0 544 512">
<g>
</g>
	<path d="M89.392 509.872c32.24 0 66.928-16.416 91.312-40.816l270.128-274.704c13.856-13.856 21.568-32.224 21.696-51.696 0.144-19.52-7.344-37.824-21.056-51.552-28.288-28.272-74.576-28.016-103.392 0.768l-207.056 216.48c-3.248 3.408-3.136 8.832 0.288 12.096 3.408 3.264 8.8 3.136 12.096-0.272l206.912-216.352c21.968-21.984 57.456-22.256 79.056-0.64 10.448 10.448 16.16 24.416 16.048 39.328-0.096 14.96-6.032 29.056-16.736 39.776l-270.128 274.72c-28.416 28.4-86.816 54.16-121.84 19.104-16.592-16.592-24.912-36.944-24.048-58.864 0.848-21.76 11.088-43.52 28.912-61.328l308.736-313.344c16.416-16.416 42.064-25.92 70.336-26.016 0.176 0 0.336 0 0.512 0 28.032 0 53.328 9.232 69.472 25.376 16.256 16.24 25.504 41.744 25.392 69.984-0.112 28.272-9.616 53.904-26.144 70.432l-238.32 247.76c-3.28 3.408-3.168 8.816 0.24 12.096 3.392 3.264 8.816 3.168 12.080-0.24l238.208-247.648c19.6-19.584 30.912-49.6 31.024-82.336 0.144-32.752-10.944-62.704-30.384-82.144-19.328-19.328-49.024-30.4-81.568-30.4-0.192 0-0.384 0-0.576 0-32.752 0.128-62.768 11.44-82.4 31.072l-308.752 313.36c-43.216 43.216-45.232 103.92-4.816 144.336 15.152 15.136 34.464 21.664 54.768 21.664z" fill="#000000"></path>
</svg>
