<?xml version="1.0" encoding="utf-8"?>
<!-- Generated by IcoMoon.io -->
<!DOCTYPE svg PUBLIC "-//W3C//DTD SVG 1.1//EN" "http://www.w3.org/Graphics/SVG/1.1/DTD/svg11.dtd">
<svg version="1.1" xmlns="http://www.w3.org/2000/svg" xmlns:xlink="http://www.w3.org/1999/xlink" width="512" height="512" viewBox="0 0 512 512">
<g>
</g>
	<path d="M0 503.664c0 4.416 3.584 8 8 8h497.776c1.072 0 2.112-0.208 3.088-0.624s1.856-1.008 2.592-1.744c0.016-0.016 0.032-0.016 0.048-0.032 0.048-0.048 0.048-0.144 0.112-0.192 0.816-0.88 1.344-1.952 1.712-3.12 0.112-0.368 0.16-0.72 0.224-1.104 0.064-0.4 0.24-0.752 0.24-1.168 0-0.64-0.224-1.2-0.368-1.792-0.048-0.224 0.048-0.448-0.032-0.672l-50.56-155.44c-0.384-1.2-1.056-2.304-1.952-3.184l-273.872-273.888c-0.288-0.448-0.496-0.928-0.88-1.328l-59.824-59.824c-9.712-9.712-25.52-9.712-35.248 0l-83.76 83.76c-4.704 4.704-7.296 10.96-7.296 17.616s2.592 12.928 7.296 17.632l58.496 58.496c0.288 0.432 0.48 0.928 0.864 1.312l273.44 275.28c0.944 0.96 2.096 1.648 3.392 2.032l107.408 32h-442.896c-4.416-0.016-8 3.568-8 7.984zM101.792 162.576l250.992 247.776-9.232 32.032-259.92-261.648 18.16-18.16zM365.056 400l-251.968-248.72 38.992-38.992 249.712 250.368v37.344h-36.736zM411.76 350l-248.368-249.024 16.624-16.624 259.376 259.376-27.632 6.272zM367.808 416h41.984c4.416 0 8-3.584 8-8v-42.96l32.112-7.296 43.568 133.92-135.808-40.464 10.144-35.2zM16 108.928c0-2.384 0.928-4.608 2.608-6.304l83.76-83.76c3.472-3.472 9.12-3.488 12.624 0l53.952 53.952-96.368 96.368-53.952-53.952c-1.696-1.68-2.624-3.92-2.624-6.304z" fill="#000000"></path>
</svg>
