<?xml version="1.0" encoding="utf-8"?>
<!-- Generated by IcoMoon.io -->
<!DOCTYPE svg PUBLIC "-//W3C//DTD SVG 1.1//EN" "http://www.w3.org/Graphics/SVG/1.1/DTD/svg11.dtd">
<svg version="1.1" xmlns="http://www.w3.org/2000/svg" xmlns:xlink="http://www.w3.org/1999/xlink" width="304" height="512" viewBox="0 0 304 512">
<g>
</g>
	<path d="M24 512h256c13.232 0 24-10.768 24-24v-464c0-13.232-10.768-24-24-24h-256c-13.232 0-24 10.768-24 24v464c0 13.232 10.768 24 24 24zM16 24c0-4.416 3.584-8 8-8h256c4.416 0 8 3.584 8 8v464c0 4.416-3.584 8-8 8h-256c-4.416 0-8-3.584-8-8v-464zM40 432h224c4.416 0 8-3.584 8-8v-336c0-4.416-3.584-8-8-8h-224c-4.416 0-8 3.584-8 8v336c0 4.416 3.584 8 8 8zM48 96h208v320h-208v-320zM144 464c0 8.837 7.163 16 16 16s16-7.163 16-16c0-8.837-7.163-16-16-16s-16 7.163-16 16zM120 64h64c4.416 0 8-3.584 8-8s-3.584-8-8-8h-64c-4.416 0-8 3.584-8 8s3.584 8 8 8z" fill="#000000"></path>
</svg>
