<?xml version="1.0" encoding="utf-8"?>
<!-- Generated by IcoMoon.io -->
<!DOCTYPE svg PUBLIC "-//W3C//DTD SVG 1.1//EN" "http://www.w3.org/Graphics/SVG/1.1/DTD/svg11.dtd">
<svg version="1.1" xmlns="http://www.w3.org/2000/svg" xmlns:xlink="http://www.w3.org/1999/xlink" width="528" height="512" viewBox="0 0 528 512">
<g>
</g>
	<path d="M24 448h416c13.232 0 24-10.768 24-24v-400c0-13.232-10.768-24-24-24h-416c-13.232 0-24 10.768-24 24v400c0 13.232 10.768 24 24 24zM16 24c0-4.416 3.6-8 8-8h416c4.4 0 8 3.584 8 8v400c0 4.416-3.6 8-8 8h-416c-4.4 0-8-3.584-8-8v-400zM288 176c17.648 0 32-14.352 32-32s-14.352-32-32-32-32 14.352-32 32 14.352 32 32 32zM288 128c8.832 0 16 7.184 16 16s-7.168 16-16 16-16-7.184-16-16 7.168-16 16-16zM56 368h352c4.416 0 8-3.584 8-8v-304c0-4.416-3.584-8-8-8h-352c-4.416 0-8 3.584-8 8v304c0 4.416 3.584 8 8 8zM64 352v-74.208c0.352-0.256 0.752-0.4 1.072-0.72l81.856-81.856c4.16-4.16 11.392-4.144 15.552 0l120.336 120.336c1.568 1.568 3.616 2.336 5.664 2.336 1.984 0 3.968-0.736 5.52-2.208l61.856-58.752c2.080-2.080 4.848-3.232 7.776-3.232 2.944 0 5.68 1.152 7.424 2.848l28.944 32.944v62.512h-336zM400 64v201.296l-17.296-19.648c-5.072-5.104-11.856-7.92-19.056-7.92-0.016 0-0.016 0-0.016 0-7.216 0-14 2.816-18.96 7.776l-56.064 53.248-114.816-114.832c-10.224-10.208-27.984-10.192-38.176 0l-71.616 71.616v-191.536h336zM72 465.328c-4.416 0-8 3.584-8 8v14.672c0 13.232 10.768 24 24 24h416c13.232 0 24-10.768 24-24v-416c0-13.232-10.768-24-24-24h-14.672c-4.416 0-8 3.584-8 8s3.584 8 8 8h14.672c4.4 0 8 3.584 8 8v416c0 4.416-3.6 8-8 8h-416c-4.4 0-8-3.584-8-8v-14.672c0-4.416-3.584-8-8-8z" fill="#000000"></path>
</svg>
