<?xml version="1.0" encoding="utf-8"?>
<!-- Generated by IcoMoon.io -->
<!DOCTYPE svg PUBLIC "-//W3C//DTD SVG 1.1//EN" "http://www.w3.org/Graphics/SVG/1.1/DTD/svg11.dtd">
<svg version="1.1" xmlns="http://www.w3.org/2000/svg" xmlns:xlink="http://www.w3.org/1999/xlink" width="512" height="512" viewBox="0 0 512 512">
<g>
</g>
	<path d="M24 512h464c13.232 0 24-10.768 24-24v-464c0-13.232-10.768-24-24-24h-464c-13.232 0-24 10.768-24 24v464c0 13.232 10.768 24 24 24zM16 24c0-4.416 3.6-8 8-8h464c4.4 0 8 3.584 8 8v464c0 4.416-3.6 8-8 8h-464c-4.4 0-8-3.584-8-8v-464zM328 200c17.648 0 32-14.352 32-32s-14.352-32-32-32-32 14.352-32 32 14.352 32 32 32zM328 152c8.832 0 16 7.184 16 16s-7.168 16-16 16-16-7.184-16-16 7.168-16 16-16zM72 400h368c4.416 0 8-3.584 8-8v-320c0-4.416-3.584-8-8-8h-368c-4.416 0-8 3.584-8 8v320c0 4.416 3.584 8 8 8zM80 384v-90.208c0.352-0.256 0.752-0.4 1.072-0.72l81.856-81.856c4.16-4.16 11.392-4.144 15.552 0l120.336 120.336c1.568 1.568 3.616 2.336 5.664 2.336 1.984 0 3.968-0.736 5.52-2.208l61.856-58.752c2.080-2.080 4.848-3.232 7.776-3.232 2.944 0 5.68 1.152 7.536 2.992l44.832 48.832c0 0 0.016 0 0.016 0.016v62.464h-352.016zM432 80v217.888l-33.296-36.256c-5.072-5.104-11.856-7.92-19.056-7.92-0.016 0-0.016 0-0.016 0-7.216 0-14 2.816-18.96 7.776l-56.064 53.248-114.816-114.832c-10.224-10.208-27.984-10.192-38.176 0l-71.616 71.632v-191.536h352z" fill="#000000"></path>
</svg>
