<?xml version="1.0" encoding="utf-8"?>
<!-- Generated by IcoMoon.io -->
<!DOCTYPE svg PUBLIC "-//W3C//DTD SVG 1.1//EN" "http://www.w3.org/Graphics/SVG/1.1/DTD/svg11.dtd">
<svg version="1.1" xmlns="http://www.w3.org/2000/svg" xmlns:xlink="http://www.w3.org/1999/xlink" width="512" height="512" viewBox="0 0 512 512">
<g>
</g>
	<path d="M464 280.288c0-4.416-3.584-8-8-8h-216v-216.288c0-4.416-3.584-8-8-8-127.92 0-232 103.92-232 231.664 0 132.448 99.888 232.336 232.336 232.336 123.408 0 231.664-108.288 231.664-231.712zM16 279.664c0-116.256 92.592-211.296 208-215.52v216.144c0 4.416 3.584 8 8 7.712h215.84c-4.528 111.84-103.28 208-215.504 208-123.328 0-216.336-92.992-216.336-216.336zM280 240h223.984c4.416 0.288 8.016-3.584 8.016-8 0-127.92-104.080-232-232-232-4.416 0-8 3.584-8 8v224.288c0 4.416 3.584 8 8 7.712zM288 16.144c113.008 4.144 204.144 95.52 207.904 208.144h-207.904v-208.144z" fill="#000000"></path>
</svg>
