<?xml version="1.0" encoding="utf-8"?>
<!-- Generated by IcoMoon.io -->
<!DOCTYPE svg PUBLIC "-//W3C//DTD SVG 1.1//EN" "http://www.w3.org/Graphics/SVG/1.1/DTD/svg11.dtd">
<svg version="1.1" xmlns="http://www.w3.org/2000/svg" xmlns:xlink="http://www.w3.org/1999/xlink" width="496" height="512" viewBox="0 0 496 512">
<g>
</g>
	<path d="M8 48c-4.416 0-8 3.584-8 8v272c0 13.232 10.768 24 24 24h448c13.232 0 24-10.768 24-24v-272c0-4.416-3.584-8-8-8s-8 3.584-8 8v272c0 4.416-3.584 8-8 8h-448c-4.416 0-8-3.584-8-8v-272c0-4.416-3.584-8-8-8zM520 0h-544c-4.416 0-8 3.584-8 8s3.584 8 8 8h544c4.416 0 8-3.584 8-8s-3.584-8-8-8zM189.664 130.336c-2.928-2.928-7.6-3.136-10.784-0.496l-96 80c-3.392 2.832-3.856 7.872-1.024 11.28 2.832 3.392 7.856 3.856 11.28 1.024l90.384-75.328 90.832 90.832c1.552 1.568 3.6 2.352 5.648 2.352s4.096-0.784 5.664-2.336l114.336-114.352v60.688c0 4.416 3.584 8 8 8s8-3.584 8-8v-80c0-1.040-0.208-2.080-0.608-3.056-0.816-1.952-2.368-3.52-4.336-4.336-0.976-0.4-2.016-0.608-3.056-0.608h-80c-4.416 0-8 3.584-8 8s3.584 8 8 8h60.688l-108.688 108.688-90.336-90.352zM128.912 507.712c2.048 3.92 6.88 5.424 10.8 3.376l108.288-56.72 108.288 56.72c1.184 0.624 2.448 0.912 3.712 0.912 2.88 0 5.664-1.568 7.088-4.288 2.048-3.92 0.544-8.752-3.376-10.8l-110.288-57.76c1.568-1.456 2.576-3.504 2.576-5.824v-41.328c0-4.416-3.584-8-8-8s-8 3.584-8 8v41.328c0 2.304 1.008 4.352 2.576 5.808l-110.288 57.76c-3.92 2.064-5.424 6.896-3.376 10.816z" fill="#000000"></path>
</svg>
