<?xml version="1.0" encoding="utf-8"?>
<!-- Generated by IcoMoon.io -->
<!DOCTYPE svg PUBLIC "-//W3C//DTD SVG 1.1//EN" "http://www.w3.org/Graphics/SVG/1.1/DTD/svg11.dtd">
<svg version="1.1" xmlns="http://www.w3.org/2000/svg" xmlns:xlink="http://www.w3.org/1999/xlink" width="672" height="512" viewBox="0 0 672 512">
<g>
</g>
	<path d="M648 0h-160c-11.056 0-25.184 6.016-32.752 13.92l-21.28 21.44c-3.104 3.136-3.072 8.208 0.064 11.312 3.104 3.104 8.208 3.088 11.312-0.048l21.344-21.536c4.56-4.752 14.72-9.088 21.312-9.088h160c4.4 0 8 3.584 8 8v160.784c0 6.576-4.336 16.736-9.184 21.392l-225.296 223.552c-3.216 3.056-8.56 2.976-11.68-0.128l-42.368-42.384c-3.12-3.12-8.192-3.12-11.312 0s-3.12 8.192 0 11.312l42.368 42.384c4.704 4.688 10.944 7.056 17.184 7.056 6.112 0 12.24-2.256 16.992-6.784l225.312-223.568c7.968-7.648 13.984-21.776 13.984-32.832v-160.784c0-13.232-10.768-24-24-24zM624.608 80c0-17.648-14.352-32-32-32s-32 14.352-32 32 14.352 32 32 32 32-14.352 32-32zM576.608 80c0-8.816 7.168-16 16-16s16 7.184 16 16-7.168 16-16 16-16-7.184-16-16zM263.392 64c-11.056 0-25.184 6.016-32.768 13.92l-223.888 226.096c-9.088 9.472-8.96 24.752 0.336 34.048l166.848 166.848c4.56 4.576 10.672 7.088 17.216 7.088 6.336 0 12.32-2.384 16.944-6.816l225.296-223.552c7.984-7.648 14.016-21.776 14.016-32.848v-160.784c0-13.232-10.768-24-24-24h-160zM432 88v160.784c0 6.592-4.944 16.736-9.792 21.392l-225.296 223.552c-3.12 2.96-8.64 2.896-11.664-0.128l-166.864-166.832c-3.12-3.136-3.184-8.48-0.208-11.568l223.904-226.112c4.56-4.752 14.72-9.088 21.312-9.088h160c4.4 0 8.608 3.584 8.608 8zM368 112c-17.648 0-32 14.352-32 32s14.352 32 32 32 32-14.352 32-32-14.352-32-32-32zM368 160c-8.832 0-16-7.184-16-16s7.168-16 16-16 16 7.184 16 16-7.168 16-16 16z" fill="#000000"></path>
</svg>
