<?xml version="1.0" encoding="utf-8"?>
<!-- Generated by IcoMoon.io -->
<!DOCTYPE svg PUBLIC "-//W3C//DTD SVG 1.1//EN" "http://www.w3.org/Graphics/SVG/1.1/DTD/svg11.dtd">
<svg version="1.1" xmlns="http://www.w3.org/2000/svg" xmlns:xlink="http://www.w3.org/1999/xlink" width="672" height="512" viewBox="0 0 672 512">
<g>
</g>
	<path d="M648 160h-40v-56c0-13.232-10.768-24-24-24h-32c-4.416 0-8 3.584-8 8s3.584 8 8 8h32c4.4 0 8 3.584 8 8v56h-64v-152c0-4.416-3.584-8-8-8h-368c-4.416 0-8 3.584-8 8v152h-64v-56c0-4.416 3.6-8 8-8h32c4.416 0 8-3.584 8-8s-3.584-8-8-8h-32c-13.232 0-24 10.768-24 24v56h-40c-13.232 0-24 10.768-24 24v224c0 13.232 10.768 24 24 24h96c4.416 0 8-3.584 8-8s-3.584-8-8-8h-96c-4.4 0-8-3.584-8-8v-56h640v56c0 4.416-3.6 8-8 8h-96c-4.416 0-8 3.584-8 8s3.584 8 8 8h96c13.232 0 24-10.768 24-24v-224c0-13.232-10.768-24-24-24zM160 16h352v144h-352v-144zM16 336v-152c0-4.416 3.6-8 8-8h624c4.4 0 8 3.584 8 8v152h-640zM520 368c-4.416 0-8 3.584-8 8v120h-352v-120c0-4.416-3.584-8-8-8s-8 3.584-8 8v128c0 4.416 3.584 8 8 8h368c4.416 0 8-3.584 8-8v-128c0-4.416-3.584-8-8-8zM592 288c0 8.837 7.163 16 16 16s16-7.163 16-16c0-8.837-7.163-16-16-16s-16 7.163-16 16zM528 288c0 8.837 7.163 16 16 16s16-7.163 16-16c0-8.837-7.163-16-16-16s-16 7.163-16 16z" fill="#000000"></path>
</svg>
