<?xml version="1.0" encoding="utf-8"?>
<!-- Generated by IcoMoon.io -->
<!DOCTYPE svg PUBLIC "-//W3C//DTD SVG 1.1//EN" "http://www.w3.org/Graphics/SVG/1.1/DTD/svg11.dtd">
<svg version="1.1" xmlns="http://www.w3.org/2000/svg" xmlns:xlink="http://www.w3.org/1999/xlink" width="560" height="512" viewBox="0 0 560 512">
<g>
</g>
	<path d="M320.672 62.512c0-31.12-24.944-62.512-80.672-62.512-49.072 0-82.064 25.12-82.064 62.512 0 21.824 8.832 31.776 14.672 38.368 3.088 3.472 4.336 5.040 4.336 6.608 0 2.592 0 4.16-8.928 4.512h-97.568c-37.52 0-70.448 29.904-70.448 64v59.712c0.608 15.104 9.136 24.496 22.272 24.496 7.472 0 13.008-4.272 18.384-8.416 7.2-5.52 15.344-11.792 31.344-11.792 27.136 0 56 22.432 56 64 0 42.064-29.248 71.392-55.504 71.392-15.84 0-24.128-6.864-31.456-12.912-5.488-4.544-11.152-9.248-18.784-9.248-13.12 0-21.664 9.392-22.272 24.816v65.632c0.016 35.76 33.6 68.32 70.464 68.32h98.064c14.848-0.608 24.432-9.36 24.432-22.336 0-7.792-4.432-12.8-8.352-17.216-5.248-5.904-10.656-12-10.656-27.744 0-28.256 25.664-46.512 65.36-46.512 39.712 0 65.376 18.256 65.376 46.512 0 15.744-5.424 21.84-10.656 27.744-3.92 4.416-8.368 9.424-8.368 17.216 0 13.152 9.36 21.696 24.768 22.32l63.056 0.016c34.432 0 58.496-26.832 58.496-65.248v-74.4c0.416-1.952 5.344-9.408 12.864-9.408 1.536 0 3.088 1.264 6.544 4.336 6.56 5.872 16.496 14.752 38.288 14.752 34.944-0.016 70.336-26.8 70.336-78.032 0-55.264-32.144-80-64-80-21.504 0-33.92 9.824-42.144 16.32-3.648 2.88-7.072 5.6-9.024 5.6-7.536 0-12.464-7.488-12.832-9.136-0.016-0.128-0.016-0.256-0.032-0.384v-57.328c0-38.864-24.608-67.072-58.496-67.072h-62.736c-0.208-0.016-0.416-0.032-0.64-0.048-8.448-0.32-8.448-1.872-8.448-4.464 0-1.568 1.248-3.12 4.336-6.608 5.84-6.576 14.688-16.544 14.688-38.368zM294.016 90.272c-3.92 4.416-8.368 9.44-8.368 17.232 0 8.8 4.016 19.392 23.536 20.432 0.368 0.048 0.736 0.064 1.12 0.064h63.168c27.904 0 42.528 25.696 42.528 51.072v58.128c0 0.576-0.112 1.136 0 1.68 1.472 9.776 13.472 23.024 28.832 23.024 7.52 0 13.056-4.384 18.96-9.040 7.616-6.032 16.272-12.864 32.208-12.864 29.152 0 48 25.12 48 64 0 42.624-28.176 62.016-54.336 62.016-15.664 0-21.744-5.424-27.632-10.672-4.416-3.936-9.424-8.4-17.2-8.4-15.36 0-27.376 13.264-28.832 23.040-0.112 0.544 0 1.104 0 1.68v75.104c0 24.496-13.168 49.232-42.528 49.232h-62.736c-9.088-0.368-9.088-4.56-9.088-6.336 0-1.552 1.248-3.12 4.336-6.608 5.84-6.592 14.688-16.544 14.688-38.368 0-31.12-25.152-62.512-81.376-62.512-48.656 0-81.36 25.12-81.36 62.512 0 21.824 8.832 31.776 14.688 38.368 3.072 3.472 4.336 5.040 4.336 6.608 0 1.792 0 5.984-8.768 6.336h-97.744c-27.472 0-54.448-25.92-54.448-52.32v-65.312c0.352-9.136 4.496-9.136 6.272-9.136 1.856 0 5.12 2.704 8.592 5.568 7.968 6.608 20.048 16.592 41.648 16.592 34.512 0 71.488-35.12 71.488-87.392 0-51.968-37.088-80-72-80-21.44 0-33.264 9.088-41.088 15.12-3.552 2.736-6.624 5.088-8.64 5.088-1.76 0-5.904 0-6.272-8.816v-59.392c0-28.288 28.704-48 54.448-48h97.84c0.256 0 0.496-0.016 0.752-0.032v0c19.76-0.736 23.904-11.552 23.904-20.48 0-7.792-4.432-12.8-8.352-17.216-5.248-5.904-10.656-12-10.656-27.76 0-27.824 26.544-46.512 66.064-46.512 39.28 0 64.672 18.256 64.672 46.512 0 15.744-5.424 21.856-10.656 27.76z" fill="#000000"></path>
</svg>
