<?xml version="1.0" encoding="utf-8"?>
<!-- Generated by IcoMoon.io -->
<!DOCTYPE svg PUBLIC "-//W3C//DTD SVG 1.1//EN" "http://www.w3.org/Graphics/SVG/1.1/DTD/svg11.dtd">
<svg version="1.1" xmlns="http://www.w3.org/2000/svg" xmlns:xlink="http://www.w3.org/1999/xlink" width="512" height="512" viewBox="0 0 512 512">
<g>
</g>
	<path d="M256 512c141.152 0 256-114.848 256-256s-114.848-256-256-256-256 114.848-256 256 114.848 256 256 256zM256 16c132.336 0 240 107.664 240 240s-107.664 240-240 240-240-107.664-240-240 107.664-240 240-240zM171.744 218.336c8.112 2.64 16.544 1.424 24.496-3.552 3.728-2.336 4.88-7.28 2.528-11.024-2.336-3.728-7.264-4.88-11.024-2.528-3.856 2.4-7.568 3.008-11.008 1.904-3.664-1.2-7.12-4.288-10.016-8.928-2.592-4.128-3.424-9.024-2.336-13.776 1.104-4.768 3.984-8.8 8.128-11.392 9.888-6.24 22.752-2.672 31.088 3.584 14.096 10.544 20.4 28.88 20.4 59.376 0 45.024-20.48 101.008-59.632 120.864-3.936 2-5.52 6.816-3.52 10.768 1.44 2.768 4.24 4.368 7.152 4.368 1.216 0 2.448-0.288 3.632-0.864 46.96-23.824 68.368-86.768 68.368-135.136 0-35.552-8.512-58.48-26.8-72.192-15.232-11.472-35.008-13.184-49.168-4.336-7.76 4.848-13.168 12.432-15.216 21.36-2.064 8.928-0.512 18.112 4.336 25.856 4.912 7.84 11.328 13.248 18.592 15.648zM299.744 218.336c8.096 2.64 16.544 1.424 24.496-3.552 3.728-2.336 4.88-7.28 2.528-11.024-2.336-3.728-7.264-4.88-11.024-2.528-3.84 2.4-7.568 3.008-11.008 1.904-3.664-1.2-7.12-4.288-10.016-8.928-2.592-4.128-3.424-9.024-2.336-13.776 1.104-4.768 3.984-8.8 8.128-11.392 9.904-6.24 22.768-2.672 31.088 3.584 14.096 10.544 20.4 28.88 20.4 59.376 0 45.024-20.48 101.008-59.632 120.864-3.936 2-5.52 6.816-3.52 10.768 1.44 2.768 4.24 4.368 7.152 4.368 1.216 0 2.448-0.288 3.632-0.864 46.96-23.824 68.368-86.768 68.368-135.136 0-35.552-8.512-58.48-26.8-72.192-15.232-11.472-35.008-13.184-49.168-4.336-7.76 4.848-13.168 12.432-15.216 21.36-2.064 8.928-0.512 18.112 4.336 25.856 4.912 7.84 11.328 13.248 18.592 15.648z" fill="#000000"></path>
</svg>
