<?xml version="1.0" encoding="utf-8"?>
<!-- Generated by IcoMoon.io -->
<!DOCTYPE svg PUBLIC "-//W3C//DTD SVG 1.1//EN" "http://www.w3.org/Graphics/SVG/1.1/DTD/svg11.dtd">
<svg version="1.1" xmlns="http://www.w3.org/2000/svg" xmlns:xlink="http://www.w3.org/1999/xlink" width="512" height="512" viewBox="0 0 512 512">
<g>
</g>
	<path d="M194.368 42.656l-49.008 72.88c-2.464 3.664-1.488 8.64 2.176 11.104s8.64 1.488 11.104-2.176l49.296-73.328c13.12-22.672 30.208-35.136 48.064-35.136s34.944 12.464 48.048 35.104l88.224 153.6-62.72-12.544c-4.368-0.912-8.56 1.936-9.408 6.288-0.864 4.336 1.952 8.544 6.272 9.408l80 16c0.544 0.096 1.072 0.144 1.584 0.144 1.264 0 2.448-0.4 3.536-0.944 0.144-0.064 0.304-0.032 0.448-0.112 0.16-0.096 0.256-0.256 0.416-0.368 0.528-0.352 0.992-0.768 1.424-1.248 0.256-0.272 0.512-0.512 0.72-0.816 0.336-0.496 0.56-1.040 0.784-1.6 0.144-0.368 0.336-0.704 0.416-1.088 0.016-0.096 0.080-0.16 0.096-0.256l16-80c0.864-4.336-1.952-8.544-6.272-9.408-4.368-0.912-8.56 1.936-9.408 6.288l-11.824 59.12-86.416-150.464c-16.128-27.792-38.112-43.104-61.92-43.104s-45.792 15.312-61.632 42.656zM160 456.304c0-4.416-3.584-8-8-8h-71.984c-24.752-0.048-44.544-9.744-54.272-26.624-10.368-17.968-8.624-41.664 4.8-65.008l88.192-154.304 25.84 64.624c1.248 3.104 4.256 5.008 7.424 5.008 0.992 0 2-0.192 2.976-0.576 4.096-1.648 6.096-6.304 4.464-10.384l-32-80c-0.16-0.416-0.448-0.72-0.672-1.088-0.208-0.336-0.352-0.672-0.608-0.992-0.56-0.672-1.2-1.2-1.904-1.648-0.112-0.080-0.176-0.192-0.288-0.256-0.016-0.016-0.032 0-0.048-0.016-0.896-0.512-1.872-0.816-2.912-0.944-0.176-0.016-0.336 0.032-0.512 0.016-0.688-0.048-1.36-0.096-2.064 0.064l-80 16c-4.336 0.864-7.136 5.072-6.272 9.408s5.008 7.152 9.408 6.288l62.752-12.544-87.68 153.408c-16.336 28.4-18.064 57.92-4.768 80.976 12.672 21.936 37.488 34.56 68.112 34.624h72c4.432-0.032 8.016-3.616 8.016-8.032zM500.224 429.536c13.168-22.816 11.392-52.128-4.496-79.68l-32.4-73.088c-1.792-4.032-6.512-5.888-10.56-4.064-4.032 1.792-5.856 6.512-4.064 10.56l32.784 73.824c13.344 23.232 15.136 46.72 4.896 64.448-9.68 16.784-29.504 26.416-54.384 26.464l-164.96 0.272 34.608-34.608c3.12-3.12 3.12-8.192 0-11.312s-8.192-3.12-11.312 0l-48 48c-1.6 1.6-2.352 3.712-2.32 5.808 0 0.048-0.032 0.096-0.032 0.16 0 2.592 1.328 4.8 3.264 6.256l47.088 47.088c1.568 1.552 3.616 2.336 5.664 2.336s4.096-0.784 5.664-2.336c3.12-3.12 3.12-8.192 0-11.312l-34.080-34.080 164.432-0.272c30.72-0.064 55.584-12.624 68.208-34.464z" fill="#000000"></path>
</svg>
