<?xml version="1.0" encoding="utf-8"?>
<!-- Generated by IcoMoon.io -->
<!DOCTYPE svg PUBLIC "-//W3C//DTD SVG 1.1//EN" "http://www.w3.org/Graphics/SVG/1.1/DTD/svg11.dtd">
<svg version="1.1" xmlns="http://www.w3.org/2000/svg" xmlns:xlink="http://www.w3.org/1999/xlink" width="512" height="512" viewBox="0 0 512 512">
<g>
</g>
	<path d="M426.096 64h77.904c4.416 0 8-3.584 8-8s-3.584-8-8-8h-96c-4.416 0-8 3.584-8 8v96c0 4.416 3.584 8 8 8s8-3.584 8-8v-75.472l9.776 9.776c45.328 45.328 70.304 105.6 70.304 169.696s-24.976 124.368-70.304 169.696c-67.28 67.296-168.064 88.512-256.816 54-4.112-1.632-8.752 0.432-10.352 4.544-1.6 4.128 0.432 8.768 4.56 10.352 30.144 11.712 61.568 17.408 92.752 17.408 66.72 0 132.256-26.080 181.168-75.008 48.352-48.336 74.992-112.64 74.992-181.008s-26.64-132.656-74.992-180.992l-10.992-10.992zM104 352c-4.416 0-8 3.584-8 8v77.44l-11.408-11.408c-45.328-45.328-70.304-105.6-70.304-169.696s24.976-124.384 70.304-169.712c66.16-66.176 165.616-87.92 253.376-55.296 4.096 1.536 8.736-0.56 10.288-4.72 1.536-4.144-0.576-8.752-4.72-10.288-93.584-34.752-199.68-11.6-270.256 58.992-48.352 48.336-74.992 112.64-74.992 181.008s26.64 132.672 74.992 181.008l10.656 10.672h-75.936c-4.416 0-8 3.584-8 8s3.584 8 8 8h93.696c0.64 0.16 6.016-0.4 7.584-1.968 0.064-0.064 0.080-0.144 0.144-0.208 1.568-1.472 2.576-3.504 2.576-5.824v-96c0-4.416-3.584-8-8-8z" fill="#000000"></path>
</svg>
