<?xml version="1.0" encoding="utf-8"?>
<!-- Generated by IcoMoon.io -->
<!DOCTYPE svg PUBLIC "-//W3C//DTD SVG 1.1//EN" "http://www.w3.org/Graphics/SVG/1.1/DTD/svg11.dtd">
<svg version="1.1" xmlns="http://www.w3.org/2000/svg" xmlns:xlink="http://www.w3.org/1999/xlink" width="448" height="512" viewBox="0 0 448 512">
<g>
</g>
	<path d="M24 144c-4.416 0-8 3.584-8 8v335.136c0 10.64 5.056 16.624 9.312 19.76 5.088 3.776 11.072 5.104 16.416 5.104 3.216 0 6.192-0.48 8.608-1.232 46.864-14.32 149.52-119.712 175.568-147.040 25.392 27.488 124.88 132.72 171.744 147.040 6.464 1.984 16.88 2.16 25.024-3.888 4.272-3.136 9.328-9.104 9.328-19.744v-335.136c0-4.416-3.584-8-8-8s-8 3.584-8 8v335.136c0 4.32-1.616 6-2.832 6.896-2.848 2.112-7.744 2.4-10.832 1.456-48.64-14.864-169.2-147.52-170.4-148.848-1.504-1.664-3.632-2.624-5.872-2.64-2.032-0.016-4.368 0.896-5.904 2.544-1.248 1.328-125.792 134.048-174.496 148.944-3.072 0.944-7.984 0.656-10.832-1.456-1.216-0.896-2.832-2.592-2.832-6.896v-335.136c0-4.416-3.584-8-8-8zM448 104v-80c0-13.232-10.768-24-24-24h-400c-13.232 0-24 10.768-24 24v80c0 4.416 3.584 8 8 8h432c4.416 0 8-3.584 8-8zM432 96h-416v-72c0-4.416 3.584-8 8-8h400c4.416 0 8 3.584 8 8v72z" fill="#000000"></path>
</svg>
