<?xml version="1.0" encoding="utf-8"?>
<!-- Generated by IcoMoon.io -->
<!DOCTYPE svg PUBLIC "-//W3C//DTD SVG 1.1//EN" "http://www.w3.org/Graphics/SVG/1.1/DTD/svg11.dtd">
<svg version="1.1" xmlns="http://www.w3.org/2000/svg" xmlns:xlink="http://www.w3.org/1999/xlink" width="512" height="512" viewBox="0 0 512 512">
<g>
</g>
	<path d="M256-0.544c-141.472 0-256.544 115.072-256.544 256.544s115.072 256.544 256.544 256.544 256.544-115.072 256.544-256.544-115.072-256.544-256.544-256.544zM256 495.456c-132.032 0-239.456-107.424-239.456-239.456s107.424-239.456 239.456-239.456 239.456 107.424 239.456 239.456-107.424 239.456-239.456 239.456zM168.032 223.216c-4.72 0-8.544 3.824-8.544 8.544s3.824 8.544 8.544 8.544c36.048 0 66.24 11.152 87.264 32.256 21.040 21.088 32.16 51.328 32.16 87.44 0 4.72 3.824 8.544 8.544 8.544s8.544-3.824 8.544-8.544c0.016-40.736-12.832-75.136-37.12-99.52-24.336-24.368-58.688-37.264-99.392-37.264zM168.080 144.432c-4.72 0-8.544 3.824-8.544 8.544s3.824 8.544 8.544 8.544c114.24 0 200.368 85.328 200.368 198.464 0 4.72 3.824 8.544 8.544 8.544s8.544-3.824 8.544-8.544c0.016-122.88-93.472-215.552-217.456-215.552zM191.984 302.112c-17.936 0-32.528 14.608-32.528 32.56 0 17.936 14.592 32.528 32.528 32.528 17.952 0 32.56-14.592 32.56-32.544-0.016-17.952-14.624-32.544-32.56-32.544zM191.984 350.112c-8.512 0-15.44-6.928-15.44-15.44 0-8.528 6.928-15.472 15.44-15.472s15.456 6.96 15.472 15.472c0 8.512-6.944 15.44-15.472 15.44z" fill="#000000"></path>
</svg>
