<?xml version="1.0" encoding="utf-8"?>
<!-- Generated by IcoMoon.io -->
<!DOCTYPE svg PUBLIC "-//W3C//DTD SVG 1.1//EN" "http://www.w3.org/Graphics/SVG/1.1/DTD/svg11.dtd">
<svg version="1.1" xmlns="http://www.w3.org/2000/svg" xmlns:xlink="http://www.w3.org/1999/xlink" width="512" height="512" viewBox="0 0 512 512">
<g>
</g>
	<path d="M256-0.544c-141.456 0-256.56 115.072-256.56 256.544s115.104 256.544 256.56 256.544 256.56-115.072 256.56-256.544-115.104-256.544-256.56-256.544zM256 495.456c-132.032 0-239.44-107.424-239.44-239.456s107.408-239.456 239.44-239.456 239.44 107.424 239.44 239.456-107.408 239.456-239.44 239.456zM258.608 317.168c-44.624 0-87.632 18.864-117.984 51.76-3.2 3.472-2.992 8.88 0.496 12.080 3.456 3.2 8.864 3.008 12.080-0.48 27.12-29.408 65.536-46.272 105.392-46.272 40.464 0 79.296 17.296 106.496 47.472 1.68 1.856 4.016 2.816 6.352 2.816 2.048 0 4.096-0.72 5.728-2.208 3.504-3.152 3.792-8.56 0.624-12.080-30.448-33.744-73.888-53.088-119.184-53.088zM168 264c17.648 0 32-14.352 32-32s-14.352-32-32-32-32 14.352-32 32 14.352 32 32 32zM168 216c8.816 0 16 7.168 16 16s-7.184 16-16 16-16-7.168-16-16 7.184-16 16-16zM344 264c17.648 0 32-14.352 32-32s-14.352-32-32-32-32 14.352-32 32 14.352 32 32 32zM344 216c8.816 0 16 7.168 16 16s-7.184 16-16 16-16-7.168-16-16 7.184-16 16-16z" fill="#000000"></path>
</svg>
