<?xml version="1.0" encoding="utf-8"?>
<!-- Generated by IcoMoon.io -->
<!DOCTYPE svg PUBLIC "-//W3C//DTD SVG 1.1//EN" "http://www.w3.org/Graphics/SVG/1.1/DTD/svg11.dtd">
<svg version="1.1" xmlns="http://www.w3.org/2000/svg" xmlns:xlink="http://www.w3.org/1999/xlink" width="512" height="512" viewBox="0 0 512 512">
<g>
</g>
	<path d="M408 464c30.88 0 56-25.12 56-56s-25.12-56-56-56-56 25.12-56 56 25.12 56 56 56zM408 368c22.048 0 40 17.936 40 40s-17.952 40-40 40-40-17.936-40-40 17.952-40 40-40zM299.712 383.2c0 23.216 5.712 52.336 13.376 68.816 15.68 39.792 46.528 59.984 91.712 59.984 59.104 0 107.2-48.096 107.2-107.2 0-57.488-45.088-99.2-107.2-99.2-70.608 0-93.648-37.936-94.56-39.504-0.32-0.544-0.688-1.056-1.12-1.52l-245.68-262.048c-2.24-2.384-5.728-3.152-8.784-1.968-3.040 1.2-5.056 4.16-5.056 7.44 0 154.416 102.976 235.44 178.16 294.576 40.208 31.632 71.952 56.592 71.952 80.624zM66.304 28.976l230.592 245.952c4.288 6.784 32.704 46.672 107.904 46.672 52.848 0 91.2 34.992 91.2 83.2 0 50.304-40.912 91.2-91.2 91.2-38.48 0-63.616-16.32-77.008-50.304-5.856-12.576-12.080-38.768-12.080-62.496 0-31.792-34.448-58.896-78.048-93.2-69.072-54.336-162.432-127.76-171.36-261.024zM48 408c0 30.88 25.12 56 56 56s56-25.12 56-56-25.12-56-56-56-56 25.12-56 56zM144 408c0 22.064-17.952 40-40 40s-40-17.936-40-40 17.952-40 40-40 40 17.936 40 40zM330.144 247.536c-3.264 2.976-3.504 8.032-0.528 11.296 1.584 1.728 3.744 2.608 5.92 2.608 1.92 0 3.856-0.688 5.392-2.096 56.56-51.52 121.472-126.64 121.472-251.344 0-3.28-2-6.24-5.056-7.44-3.040-1.168-6.528-0.416-8.784 1.968l-174.72 186.336c-3.024 3.216-2.864 8.288 0.368 11.296 3.216 3.008 8.272 2.88 11.312-0.352l160.224-170.88c-6.816 106.080-64.736 172.256-115.6 218.608zM174.576 302.336c4.112-1.6 6.16-6.224 4.576-10.336s-6.24-6.192-10.352-4.56c-3.376 1.312-7.024 2.928-10.944 4.672-13.504 6-30.32 13.488-50.656 13.488-62.112 0-107.2 41.712-107.2 99.2 0 59.104 48.096 107.2 107.2 107.2 45.184 0 76.032-20.192 91.504-59.552 8.096-17.36 9.296-55.36 9.296-76.448 0-4.304 12.192-13.488 19.488-18.976 6.736-5.056 13.696-10.304 18.496-15.712 2.928-3.312 2.624-8.368-0.672-11.296-3.296-2.944-8.368-2.624-11.296 0.672-3.744 4.24-10.048 8.976-16.16 13.568-13.296 10.016-25.856 19.456-25.856 31.744 0 33.152-2.912 59.216-7.984 70.144-13.2 33.536-38.336 49.856-76.816 49.856-50.288 0-91.2-40.912-91.2-91.2 0-48.224 38.352-83.2 91.2-83.2 23.744 0 43.056-8.608 57.168-14.896 3.648-1.632 7.056-3.136 10.208-4.368zM243.104 271.744c0 7.123 5.774 12.896 12.896 12.896s12.896-5.774 12.896-12.896c0-7.123-5.774-12.896-12.896-12.896s-12.896 5.774-12.896 12.896z" fill="#000000"></path>
</svg>
