<?xml version="1.0" encoding="utf-8"?>
<!-- Generated by IcoMoon.io -->
<!DOCTYPE svg PUBLIC "-//W3C//DTD SVG 1.1//EN" "http://www.w3.org/Graphics/SVG/1.1/DTD/svg11.dtd">
<svg version="1.1" xmlns="http://www.w3.org/2000/svg" xmlns:xlink="http://www.w3.org/1999/xlink" width="512" height="512" viewBox="0 0 512 512">
<g>
</g>
	<path d="M272 104c0-4.416-3.584-8-8-8s-8 3.584-8 8v136h-152c-4.416 0-8 3.584-8 8s3.584 8 8 8h152v151.504c0 4.416 3.584 8 8 8s8-3.584 8-8v-151.504h151.504c4.416 0 8-3.584 8-8s-3.584-8-8-8h-151.504v-136zM504.992 240h-41.808c-7.808-101.92-89.264-183.376-191.184-191.184v-40.816c0-4.416-3.584-8-8-8s-8 3.584-8 8v40c-109.28 0-198.96 84.784-207.184 192h-39.824c-4.416 0-8 3.584-8 8s3.584 8 8 8h39.008c0 114.688 93.312 208 208 208v40c0 4.416 3.584 8 8 8s8-3.584 8-8v-40.816c107.216-8.224 192-97.904 192-207.184h40.992c4.416 0 8-3.584 8-8s-3.568-8-8-8zM256 448c-105.872 0-192-86.128-192-192s86.128-192 192-192 192 86.128 192 192-86.128 192-192 192z" fill="#000000"></path>
</svg>
