<?xml version="1.0" encoding="utf-8"?>
<!-- Generated by IcoMoon.io -->
<!DOCTYPE svg PUBLIC "-//W3C//DTD SVG 1.1//EN" "http://www.w3.org/Graphics/SVG/1.1/DTD/svg11.dtd">
<svg version="1.1" xmlns="http://www.w3.org/2000/svg" xmlns:xlink="http://www.w3.org/1999/xlink" width="528" height="512" viewBox="0 0 528 512">
<g>
</g>
	<path d="M24 512h336c13.232 0 24-10.768 24-24v-120c0-0.16-0.080-0.288-0.096-0.448 0.88-0.56 1.792-1.088 2.656-1.68l127.776 127.776c1.568 1.568 3.616 2.352 5.664 2.352s4.096-0.784 5.664-2.336c3.12-3.12 3.12-8.192 0-11.312l-126.608-126.608c20.224-18.992 32.944-45.888 32.944-75.744 0-36.752-19.216-69.056-48.096-87.552 0.016-0.16 0.096-0.288 0.096-0.448v-40c0-0.272-0.128-0.496-0.144-0.752-0.032-0.368-0.128-0.688-0.208-1.040-0.272-1.136-0.736-2.16-1.44-3.056-0.112-0.144-0.096-0.32-0.208-0.464l-128-144c-0.048-0.048-0.112-0.048-0.16-0.096-0.96-1.040-2.192-1.728-3.568-2.144-0.304-0.096-0.576-0.128-0.896-0.176-0.464-0.080-0.896-0.272-1.376-0.272h-224c-13.232 0-24 10.768-24 24v464c0 13.232 10.768 24 24 24zM416 280c0 48.528-39.488 88-88 88s-88-39.472-88-88 39.488-88 88-88 88 39.472 88 88zM256 29.040l102.192 114.96h-94.192c-3.52 0-8-6.72-8-12v-102.96zM16 24c0-4.416 3.6-8 8-8h216v116c0 12.944 10.48 28 24 28h104v24.016c-12.32-5.152-25.824-8.016-40-8.016-29.408 0-55.936 12.32-74.864 32h-165.136c-4.416 0-8 3.584-8 8s3.584 8 8 8h152.512c-9.040 14.064-14.752 30.416-16.096 48h-136.416c-4.416 0-8 3.584-8 8s3.584 8 8 8h136.4c1.344 17.584 7.072 33.936 16.096 48h-152.496c-4.416 0-8 3.584-8 8s3.584 8 8 8h164c0.336 0 0.624-0.144 0.96-0.192 18.944 19.792 45.552 32.192 75.040 32.192 14.176 0 27.68-2.864 40-8.032v112.032c0 4.416-3.6 8-8 8h-336c-4.48 0-8-3.52-8-8v-464zM88 160h96c4.416 0 8-3.584 8-8s-3.584-8-8-8h-96c-4.416 0-8 3.584-8 8s3.584 8 8 8zM88 416h208c4.416 0 8-3.584 8-8s-3.584-8-8-8h-208c-4.416 0-8 3.584-8 8s3.584 8 8 8z" fill="#000000"></path>
</svg>
