<?xml version="1.0" encoding="utf-8"?>
<!-- Generated by IcoMoon.io -->
<!DOCTYPE svg PUBLIC "-//W3C//DTD SVG 1.1//EN" "http://www.w3.org/Graphics/SVG/1.1/DTD/svg11.dtd">
<svg version="1.1" xmlns="http://www.w3.org/2000/svg" xmlns:xlink="http://www.w3.org/1999/xlink" width="432" height="512" viewBox="0 0 432 512">
<g>
</g>
	<path d="M216 0c-142.992 0-211.328 80.752-214.176 84.192-1.168 1.44-1.824 3.232-1.824 5.104v160.864c0 136.064 125.216 216.848 179.040 245.264 3.904 2.064 8.736 0.56 10.816-3.344 2.064-3.904 0.56-8.752-3.344-10.816-63.68-33.616-170.512-108.336-170.512-231.12v-157.808c11.232-12.080 74.112-73.552 192-76.24v487.904c0 4.416 3.584 8 8 8 2.384 0 4.528-1.040 6-2.704 26.192-11.264 210-96.24 210-261.296v-160c0-1.872-0.656-3.68-1.84-5.104-2.368-2.864-59.424-70-178.256-81.984-4.4-0.304-8.336 2.768-8.768 7.152-0.448 4.4 2.768 8.32 7.152 8.768 100.592 10.144 155.248 63.12 165.712 74.24v156.928c0 143.232-149.808 223.184-192 242.864v-482.864c0-4.416-3.584-8-8-8z" fill="#000000"></path>
</svg>
