<?xml version="1.0" encoding="utf-8"?>
<!-- Generated by IcoMoon.io -->
<!DOCTYPE svg PUBLIC "-//W3C//DTD SVG 1.1//EN" "http://www.w3.org/Graphics/SVG/1.1/DTD/svg11.dtd">
<svg version="1.1" xmlns="http://www.w3.org/2000/svg" xmlns:xlink="http://www.w3.org/1999/xlink" width="512" height="512" viewBox="0 0 512 512">
<g>
</g>
	<path d="M256-0.544c-141.456 0-256.56 115.072-256.56 256.544s115.104 256.544 256.56 256.544 256.56-115.072 256.56-256.544-115.104-256.544-256.56-256.544zM256 495.456c-132.032 0-239.44-107.424-239.44-239.456s107.408-239.456 239.44-239.456 239.44 107.424 239.44 239.456-107.408 239.456-239.44 239.456zM264 96.848c4.88 0 8.848-3.952 8.848-8.848v-32c0-4.896-3.968-8.848-8.848-8.848s-8.848 3.952-8.848 8.848v32c0 4.896 3.968 8.848 8.848 8.848zM88 239.152h-32c-4.88 0-8.848 3.952-8.848 8.848s3.968 8.848 8.848 8.848h32c4.88 0 8.848-3.952 8.848-8.848s-3.968-8.848-8.848-8.848zM415.152 248c0 4.896 3.968 8.848 8.848 8.848h32c4.88 0 8.848-3.952 8.848-8.848s-3.968-8.848-8.848-8.848h-32c-4.88 0-8.848 3.952-8.848 8.848zM137.2 162.048c2.272 0 4.528-0.864 6.256-2.592 3.456-3.456 3.456-9.040 0-12.496l-25.2-25.216c-3.456-3.472-9.040-3.472-12.496 0-3.456 3.456-3.456 9.040 0 12.496l25.2 25.2c1.712 1.744 3.984 2.608 6.24 2.608zM382.256 337.744c-3.456-3.472-9.040-3.472-12.496 0-3.456 3.456-3.456 9.040 0 12.496l24 24c1.728 1.728 3.984 2.592 6.256 2.592s4.528-0.864 6.256-2.592c3.456-3.456 3.456-9.040 0-12.496l-24.016-24zM398.256 126.256c3.456-3.456 3.456-9.040 0-12.496-3.456-3.472-9.040-3.472-12.496 0l-25.2 25.2c-3.456 3.456-3.456 9.040 0 12.496 1.728 1.728 3.984 2.592 6.256 2.592s4.528-0.864 6.256-2.592l25.184-25.2zM137.744 345.744l-24 24c-3.456 3.456-3.456 9.040 0 12.496 1.728 1.728 3.984 2.592 6.256 2.592s4.528-0.864 6.256-2.592l24-24c3.456-3.456 3.456-9.040 0-12.496s-9.056-3.456-12.512 0zM312 384h-112c-14.224-0.544-24.56 9.776-24.56 24v15.312c0 14.368 10.784 25.648 24.56 24.688h112c13.76 0.96 24.56-10.32 24.56-24.688v-15.312c0-14.224-10.336-24.544-24.56-24zM319.44 423.312c0 4.112-2.336 8.544-7.44 9.088h-112c-5.12-0.544-7.44-4.992-7.44-0.4v-15.312c0-13.424 2.704-16.144 7.44-16.688h112c4.736 0.544 7.44 3.264 7.44 8v15.312zM256 298.672c11.392 0 22.112-4.432 30.16-12.496 14.576-14.576 16.384-37.12 5.44-53.68l42.448-42.448c3.328-3.344 3.328-8.752 0-12.096-3.344-3.344-8.752-3.344-12.096 0l-42.496 42.496c-16.4-10.48-39.568-8.688-53.616 5.376-16.64 16.64-16.64 43.696 0 60.336 8.048 8.080 18.768 12.512 30.16 12.512zM240.928 240.928c4.016-4.032 9.376-6.256 15.072-6.256s11.056 2.224 15.088 6.256c8.32 8.32 8.32 21.84 0 30.16-8.048 8.064-22.096 8.064-30.16 0-8.32-8.32-8.32-21.856 0-30.16z" fill="#000000"></path>
</svg>
