<?xml version="1.0" encoding="utf-8"?>
<!-- Generated by IcoMoon.io -->
<!DOCTYPE svg PUBLIC "-//W3C//DTD SVG 1.1//EN" "http://www.w3.org/Graphics/SVG/1.1/DTD/svg11.dtd">
<svg version="1.1" xmlns="http://www.w3.org/2000/svg" xmlns:xlink="http://www.w3.org/1999/xlink" width="368" height="512" viewBox="0 0 368 512">
<g>
</g>
	<path d="M352 504c0-4.416-3.584-8-8-8h-288c-4.416 0-8 3.584-8 8s3.584 8 8 8h288c4.416 0 8-3.584 8-8zM20.384 149.664c-6.688 4.448-16.832 17.984-7.216 37.216 7.984 15.952 24.64 35.472 42.352 40.624 9.024 2.656 17.92 1.552 25.68-3.136 17.584-10.528 38.352-24.768 47.152-30.88 11.104 5.616 25.12 6.784 39.36 3.12 0.064-0.016 0.128-0.048 0.192-0.064-0.832 26.416-9.776 42.912-53.504 83.52-38.976 36.176-62.096 83.696-61.872 127.136 0.16 28.496 10.544 52.96 30.080 70.704 1.488 1.36 3.408 2.096 5.392 2.096h224c4.416 0 8-3.584 8-8s-3.584-8-8-8h-220.816c-14.704-14.48-22.512-34.080-22.64-56.88-0.208-38.432 21.552-82.64 56.752-115.328 46.64-43.296 58.704-63.808 58.704-99.792 0-0.656-0.224-1.232-0.368-1.84 8.752-4.72 16.32-10.96 21.488-18.512 6.48-9.44 20.432-33.68 10.080-55.136-1.92-3.952-6.704-5.632-10.688-3.712-3.968 1.92-5.648 6.704-3.712 10.688 4.656 9.648 1.344 24.272-8.864 39.12-5.888 8.576-16.416 15.504-28.176 18.512-11.952 3.056-23.312 1.712-31.232-3.712-2.768-1.888-6.4-1.872-9.136 0.064-0.288 0.192-28.432 20.016-50.384 33.184-4.016 2.4-8.256 2.912-12.992 1.504-12.384-3.616-26-19.392-32.512-32.416-5.264-10.528 0.128-15.552 2.576-17.344 55.152-47.632 82.832-97.12 83.968-99.216 1.056-1.952 1.28-4.256 0.576-6.384-0.080-0.24-5.6-17.008-8.64-32.528 16.736 10.080 45.52 24.16 75.488 24.16 41.664 0 138.528 15.552 138.528 159.616 0 0.784-0.144 79.104-31.52 165.232-1.52 4.144 0.624 8.736 4.784 10.256 0.912 0.304 1.824 0.464 2.736 0.464 3.264 0 6.336-2.016 7.52-5.264 32.336-88.768 32.496-167.456 32.48-170.736 0-162.928-118.288-175.584-154.528-175.584-40.144 0-80.192-30.448-80.576-30.768-2.448-1.84-5.68-2.144-8.432-0.816-2.736 1.344-4.464 4.128-4.464 7.168 0 15.696 7.44 41.088 10.336 50.352-6.688 11.168-33.056 52.496-77.952 91.312zM279.76 24.64c-25.616-17.264-54.256-24.64-95.76-24.64-4.416 0-8 3.584-8 8s3.584 8 8 8c38.080 0 64.048 6.544 86.832 21.904 37.024 24.992 81.168 74.784 81.168 170.096 0 23.216 0 55.008-15.76 118.064-1.056 4.288 1.536 8.624 5.824 9.696 0.656 0.16 1.296 0.24 1.936 0.24 3.6 0 6.864-2.416 7.76-6.064 16.24-64.944 16.24-97.888 16.24-121.936 0-102.336-47.984-156.208-88.24-183.36z" fill="#000000"></path>
</svg>
