<?xml version="1.0" encoding="utf-8"?>
<!-- Generated by IcoMoon.io -->
<!DOCTYPE svg PUBLIC "-//W3C//DTD SVG 1.1//EN" "http://www.w3.org/Graphics/SVG/1.1/DTD/svg11.dtd">
<svg version="1.1" xmlns="http://www.w3.org/2000/svg" xmlns:xlink="http://www.w3.org/1999/xlink" width="464" height="512" viewBox="0 0 464 512">
<g>
</g>
	<path d="M240 504v-152c0-4.416-2.128-16-6.544-16s-9.456 3.584-9.456 8v160c0 4.416 5.024 8 9.456 8s6.544-3.584 6.544-8zM241.456 24.992v-16.992c0-4.416-3.584-8-8-8s-8 3.584-8 8v16.992c0 4.416 3.584 8 8 8s8-3.568 8-8zM62.24 55.536l-57.072 44.768c-3.28 3.024-5.168 7.296-5.168 11.696s1.888 8.672 5.664 12.128l56.080 43.92c4.912 4.528 13.664 7.952 20.368 7.952h221.248c9.168 0 16.64-7.408 16.64-16.528v-94.944c0-9.12-7.472-16.528-16.64-16.528h-221.248c-6.704 0-15.456 3.424-19.872 7.536zM304 159.472c0 0.24-0.288 0.528-0.64 0.528h-221.248c-2.72 0-7.536-1.872-10-4.128l-56.576-43.408 57.056-44.768c2-1.824 6.8-3.696 9.52-3.696l221.888 0.528v94.944zM402.256 199.952c-4.912-4.528-13.664-7.952-20.368-7.952h-221.248c-9.168 0-16.64 7.408-16.64 16.528v94.96c0 9.104 7.472 16.512 16.64 16.512h221.248c6.704 0 15.456-3.424 19.888-7.536l57.056-44.768c3.28-3.024 5.168-7.296 5.168-11.696s-1.888-8.672-5.664-12.128l-56.080-43.92zM160 208h221.888c2.72 0 7.536 1.872 10 4.128l56.576 43.408-57.056 44.768c-2 1.824-6.8 3.696-9.52 3.696h-221.888v-96z" fill="#000000"></path>
</svg>
