<?xml version="1.0" encoding="utf-8"?>
<!-- Generated by IcoMoon.io -->
<!DOCTYPE svg PUBLIC "-//W3C//DTD SVG 1.1//EN" "http://www.w3.org/Graphics/SVG/1.1/DTD/svg11.dtd">
<svg version="1.1" xmlns="http://www.w3.org/2000/svg" xmlns:xlink="http://www.w3.org/1999/xlink" width="400" height="512" viewBox="0 0 400 512">
<g>
</g>
	<path d="M24 512h352c13.232 0 24-10.768 24-24v-464c0-13.232-10.768-24-24-24h-352c-13.232 0-24 10.768-24 24v464c0 13.232 10.768 24 24 24zM16 24c0-4.416 3.584-8 8-8h352c4.416 0 8 3.584 8 8v464c0 4.416-3.584 8-8 8h-352c-4.416 0-8-3.584-8-8v-464zM56 432h288c4.416 0 8-3.584 8-8v-368c0-4.416-3.584-8-8-8h-288c-4.416 0-8 3.584-8 8v368c0 4.416 3.584 8 8 8zM64 64h272v352h-272v-352zM192 464c0 8.837 7.163 16 16 16s16-7.163 16-16c0-8.837-7.163-16-16-16s-16 7.163-16 16z" fill="#000000"></path>
</svg>
