<?xml version="1.0" encoding="utf-8"?>
<!-- Generated by IcoMoon.io -->
<!DOCTYPE svg PUBLIC "-//W3C//DTD SVG 1.1//EN" "http://www.w3.org/Graphics/SVG/1.1/DTD/svg11.dtd">
<svg version="1.1" xmlns="http://www.w3.org/2000/svg" xmlns:xlink="http://www.w3.org/1999/xlink" width="672" height="512" viewBox="0 0 672 512">
<g>
</g>
	<path d="M668.464 209.44c-3.6-3.024-8.992-2.544-12.032 1.088l-37.872 45.44c-0.816-0.256-1.648-0.512-2.56 0.032h-22.256l28.32-34.528c3.024-3.632 2.528-9.008-1.088-12.032s-9.008-2.544-12.032 1.088l-37.44 45.472h-25.264l28.32-34.528c3.024-3.632 2.528-9.008-1.088-12.032-3.6-3.024-8.992-2.544-12.032 1.088l-37.44 45.472h-12.032c-0.304-141.456-114.992-256-255.968-256-141.152 0-256 114.848-256 256s114.848 256 256 256c135.568 0 246.56-106.016 255.168-240h12.848l37.44 45.472c1.68 2.032 4.128 3.072 6.56 3.072 1.936 0 3.872-0.64 5.472-1.984 3.632-3.008 4.128-8.4 1.088-12.032l-28.336-34.528h25.264l37.44 45.472c1.68 2.032 4.128 3.072 6.56 3.072 1.936 0 3.872-0.64 5.472-1.984 3.632-3.008 4.128-8.4 1.088-12.032l-28.32-34.528h22.256c0.912 0.544 1.744 0.288 2.576 0.032l37.872 45.44c1.68 2.032 4.128 3.072 6.56 3.072 1.936 0 3.872-0.64 5.472-1.984 3.632-3.008 4.128-8.4 1.088-12.032l-35.44-42.528 35.44-42.528c3.024-3.632 2.528-9.024-1.104-12.032zM256 496c-132.336 0-240-107.664-240-240s107.664-240 240-240c132.16 0 239.664 107.36 239.968 240h-48c-0.288-106.16-86.272-192-191.968-192-105.872 0-192 86.128-192 192s86.128 192 192 192c100.288 0 182.736-77.312 191.168-176h48c-8.56 125.168-112.416 224-239.168 224zM383.968 256c-0.288-70.864-57.568-128-127.968-128-70.576 0-128 57.424-128 128s57.424 128 128 128c64.96 0 118.656-48.688 126.8-112h48.352c-8.368 89.856-83.696 160-175.152 160-97.040 0-176-78.96-176-176s78.96-176 176-176c96.864 0 175.68 78.656 175.968 176h-48zM319.952 256c-0.304-35.584-28.832-64-63.952-64-35.296 0-64 28.704-64 64s28.704 64 64 64c29.536 0 54.208-20.208 61.552-48h49.088c-8.048 54.464-54.528 96-110.64 96-61.744 0-112-50.256-112-112s50.256-112 112-112c61.568 0 111.68 49.952 111.968 112h-48.016zM264 272h36.88c-6.768 18.848-24.256 32-44.88 32-26.464 0-48-21.536-48-48s21.536-48 48-48c26.288 0 47.648 21.248 47.952 48h-39.952c-4.72-0.544-8.544 3.28-8.544 8s3.824 8.544 8.544 8z" fill="#000000"></path>
</svg>
