<?xml version="1.0" encoding="utf-8"?>
<!-- Generated by IcoMoon.io -->
<!DOCTYPE svg PUBLIC "-//W3C//DTD SVG 1.1//EN" "http://www.w3.org/Graphics/SVG/1.1/DTD/svg11.dtd">
<svg version="1.1" xmlns="http://www.w3.org/2000/svg" xmlns:xlink="http://www.w3.org/1999/xlink" width="560" height="512" viewBox="0 0 560 512">
<g>
</g>
	<path d="M439.424 37.024c-0.848-2.112-2.544-3.76-4.672-4.544-2.128-0.768-4.496-0.624-6.496 0.432l-190.496 100.512c-3.584 1.888-5.184 6.16-3.728 9.936l3.92 10.256-109.968 60.304c-3.6 1.968-5.12 6.32-3.552 10.080l3.648 8.784-116.784 55.808c-3.84 1.84-5.568 6.352-3.936 10.288l23.968 57.76c1.28 3.072 4.24 4.944 7.392 4.944 0.896 0 1.792-0.144 2.672-0.464l122-43.216 3.648 8.784c1.264 3.056 4.224 4.944 7.392 4.944 0.736 0 1.472-0.096 2.224-0.32l116.416-33.552 3.488 9.104c1.184 3.152 4.208 5.136 7.44 5.136 0.784 0 1.568-0.112 2.352-0.352l208-64c2.144-0.656 3.904-2.176 4.864-4.192s1.040-4.352 0.208-6.416l-80-200.016zM43.2 343.504l-18.144-43.744 109.168-52.176 23.024 55.52-114.048 40.4zM179.056 313.968l-3.808-9.184c0 0 0 0 0 0l-29.488-71.12c0 0 0 0 0 0l-3.808-9.168 101.376-55.6 37.984 98.144 6 15.696-108.256 31.232zM308.8 294.16l-3.248-8.496c-0.048-0.176-0.016-0.384-0.096-0.56l-9.888-25.552-44.064-115.296 176.368-93.040 73.472 183.68-192.544 59.264zM463.424 5.024c-1.648-4.112-6.32-6.096-10.4-4.464-4.096 1.648-6.096 6.304-4.464 10.4l96 240c1.264 3.136 4.272 5.040 7.44 5.040 0.992 0 2-0.176 2.976-0.576 4.096-1.648 6.096-6.304 4.464-10.4l-96.016-240zM288 336h-48c-18.24 0-32 13.76-32 32v21.040l-94.064 109.744c-2.88 3.344-2.496 8.4 0.864 11.28 1.504 1.296 3.36 1.936 5.2 1.936 2.256 0 4.496-0.944 6.064-2.8l93.616-109.2h36.32v104c0 4.416 3.584 8 8 8s8-3.584 8-8v-104h36.32l93.6 109.2c1.584 1.856 3.824 2.8 6.080 2.8 1.84 0 3.696-0.64 5.2-1.936 3.36-2.88 3.744-7.92 0.864-11.28l-94.064-109.744v-19.84c0-18.608-14.048-33.2-32-33.2zM304 384h-80v-16c0-9.424 6.576-16 16-16h48c9.12 0 16 7.392 16 17.2v14.8z" fill="#000000"></path>
</svg>
