<?xml version="1.0" encoding="utf-8"?>
<!-- Generated by IcoMoon.io -->
<!DOCTYPE svg PUBLIC "-//W3C//DTD SVG 1.1//EN" "http://www.w3.org/Graphics/SVG/1.1/DTD/svg11.dtd">
<svg version="1.1" xmlns="http://www.w3.org/2000/svg" xmlns:xlink="http://www.w3.org/1999/xlink" width="496" height="512" viewBox="0 0 496 512">
<g>
</g>
	<path d="M3.376 90.336c-13.552 13.568-10.656 32.672 0.128 43.44 0.432 0.416 43.744 41.792 104.656 102.704 1.568 1.568 3.616 2.336 5.664 2.336s4.096-0.784 5.664-2.336c3.12-3.12 3.12-8.192 0-11.312-9.184-9.184-17.92-17.872-26.208-26.096l25.424-25.424c3.12-3.12 3.12-8.192 0-11.312s-8.192-3.12-11.312 0l-25.488 25.488c-14.256-14.080-26.816-26.368-37.040-36.336l57.84-57.84c3.12-3.12 3.12-8.192 0-11.312s-8.192-3.12-11.312 0l-58.016 58.016c-11.776-11.408-18.56-17.888-18.672-18-3.376-3.376-7.808-12.88 0-20.688l80-80c3.088-3.136 11.312-9.36 20.336-0.384 0.4 0.448 40.8 46.336 102.464 108 3.12 3.12 8.192 3.12 11.312 0s3.12-8.192 0-11.312c-61.28-61.264-101.376-106.8-102.112-107.632-14.912-14.88-32.896-10.416-43.312 0l-80.016 80zM342.704 386.336c-3.12-3.12-8.192-3.12-11.312 0l-25.456 25.44c-7.76-7.856-15.904-16.080-24.48-24.656-3.12-3.12-8.192-3.12-11.312 0s-3.12 8.192 0 11.312c59.264 59.248 100.656 103.504 101.248 104.144 5.488 5.504 13.008 8.528 21.168 8.528v0c8.4 0 16.896-3.28 22.16-8.56l79.968-80.912c10.064-10.064 10.64-27.136 1.248-36.56l-107.296-107.28c-3.12-3.12-8.192-3.12-11.312 0s-3.12 8.192 0 11.312l107.296 107.28c3.2 3.2 2.592 10.112-1.264 13.968l-79.984 80.912c-1.84 1.856-6.016 3.84-10.816 3.84 0 0 0 0 0 0-2.752 0-6.688-0.672-9.664-3.664-0.16-0.176-6.864-7.328-18.496-19.504l58.304-58.304c3.12-3.12 3.12-8.192 0-11.312s-8.192-3.12-11.312 0l-58.064 58.064c-9.984-10.384-22.224-23.008-36.16-37.216l25.536-25.536c3.12-3.104 3.12-8.16 0-11.296zM-4.688 509.264c1.536 1.568 3.6 2.4 5.728 2.4 0.768 0 1.536-0.112 2.288-0.336l160-47.664c1.296-0.384 2.448-1.072 3.392-2.032l273.44-275.28c0.384-0.384 0.576-0.88 0.864-1.312l58.496-58.496c4.704-4.72 7.312-10.976 7.312-17.648 0-6.656-2.608-12.912-7.312-17.6l-83.76-83.744c-9.408-9.408-25.84-9.408-35.248 0l-59.824 59.824c-0.384 0.384-0.592 0.88-0.88 1.328l-273.856 273.872c-0.896 0.896-1.568 1.984-1.952 3.184l-50.56 155.44c-0.928 2.832-0.208 5.92 1.872 8.064zM326.8 84.336l16.624 16.624-248.368 249.040-27.632-6.272 259.376-259.392zM105.040 362.656l249.712-250.368 38.976 38.976-251.968 248.736h-36.72v-37.344zM423.184 180.736l-259.904 261.664-9.232-32.032 250.992-247.792 18.144 18.16zM56.928 357.744l32.112 7.296v42.96c0 4.416 3.584 8 8 8h41.984l10.144 35.2-135.808 40.464 43.568-133.92zM391.84 18.864c3.376-3.376 9.248-3.376 12.624 0l83.76 83.76c1.68 1.68 2.608 3.92 2.608 6.304 0 2.368-0.928 4.624-2.624 6.32l-53.936 53.952-96.368-96.368 53.936-53.968z" fill="#000000"></path>
</svg>
