<?xml version="1.0" encoding="utf-8"?>
<!-- Generated by IcoMoon.io -->
<!DOCTYPE svg PUBLIC "-//W3C//DTD SVG 1.1//EN" "http://www.w3.org/Graphics/SVG/1.1/DTD/svg11.dtd">
<svg version="1.1" xmlns="http://www.w3.org/2000/svg" xmlns:xlink="http://www.w3.org/1999/xlink" width="672" height="512" viewBox="0 0 672 512">
<g>
</g>
	<path d="M664 272c-4.416 0-8 3.584-8 8v208c0 4.416-3.584 8-8 8h-624c-4.416 0-8-3.584-8-8v-208c0-4.416-3.584-8-8-8s-8 3.584-8 8v208c0 13.232 10.768 24 24 24h624c13.232 0 24-10.768 24-24v-208c0-4.416-3.584-8-8-8zM648 112h-624c-13.232 0-24 10.768-24 24v96c0 4.416 3.584 8 8 8h216v56c0 13.232 10.768 24 24 24h176c13.232 0 24-10.768 24-24v-56h216c4.416 0 8-3.584 8-8v-96c0-13.232-10.768-24-24-24zM432 296c0 4.416-3.584 8-8 8h-176c-4.416 0-8-3.584-8-8v-56h192v56zM656 224h-640v-88c0-4.416 3.584-8 8-8h624c4.416 0 8 3.584 8 8v88zM248 0c-13.232 0-24 10.768-24 24v64c0 4.416 3.584 8 8 8s8-3.584 8-8v-64c0-4.416 3.584-8 8-8h176c4.416 0 8 3.584 8 8v64c0 4.416 3.584 8 8 8s8-3.584 8-8v-64c0-13.232-10.768-24-24-24h-176z" fill="#000000"></path>
</svg>
