<?xml version="1.0" encoding="utf-8"?>
<!-- Generated by IcoMoon.io -->
<!DOCTYPE svg PUBLIC "-//W3C//DTD SVG 1.1//EN" "http://www.w3.org/Graphics/SVG/1.1/DTD/svg11.dtd">
<svg version="1.1" xmlns="http://www.w3.org/2000/svg" xmlns:xlink="http://www.w3.org/1999/xlink" width="512" height="512" viewBox="0 0 512 512">
<g>
</g>
	<path d="M453.664 21.664c1.84-1.84 2.672-4.464 2.224-7.024s-2.112-4.752-4.48-5.856c-36.656-17.28-80.16-9.696-108.768 19.056-27.168 27.344-36.656 70.288-23.984 106.192l-184.624 184.624c-10.032-3.584-20.752-5.376-31.936-5.376-27.424 0-54.016 10.912-72.944 29.952-28.512 28.672-36.544 71.040-20.496 107.952 1.056 2.432 3.248 4.192 5.856 4.672 2.624 0.496 5.296-0.336 7.152-2.224l55.856-56.144c3.68-3.712 9.616-4.208 12.688-1.088l24.112 25.232c3.504 3.536 3.344 8.992-0.352 12.72l-55.648 56c-1.84 1.84-2.656 4.464-2.208 7.024s2.112 4.736 4.464 5.84c13.264 6.256 27.216 9.408 41.456 9.408 25.152 0 49.040-10.112 67.312-28.48 27.168-27.328 36.656-70.272 23.968-106.176l184.624-184.64c10.048 3.584 20.768 5.376 31.952 5.376 27.424 0 54.016-10.912 72.944-29.952 28.512-28.672 36.544-71.040 20.496-107.952-1.056-2.432-3.248-4.192-5.856-4.672-2.576-0.448-5.28 0.336-7.152 2.224l-55.856 56.144c-3.44 3.456-9.28 3.424-12.816-0.16l-23.984-23.984c-3.616-3.632-3.6-9.088-0.016-12.704l56.016-55.984zM386.336 101.664l23.984 23.984c9.584 9.632 26 9.68 35.488 0.144l46.88-47.104c7.504 27.856-0.256 57.744-21.184 78.816-15.952 16.048-38.384 25.232-61.6 25.232-10.928 0-21.28-2.048-30.768-6.080-3.008-1.296-6.48-0.592-8.784 1.696l-192 192c-2.304 2.304-2.976 5.76-1.712 8.752 12.848 30.56 5.024 70-18.608 93.776-21.136 21.248-51.904 28.816-79.76 20.128l47.056-47.36c9.936-10 10.096-25.504 0.464-35.168l-24.096-25.232c-9.296-9.36-25.824-8.784-35.488 0.992l-46.88 47.104c-7.504-27.856 0.256-57.744 21.184-78.816 15.952-16.048 38.384-25.232 61.6-25.232 10.928 0 21.28 2.048 30.768 6.080 2.992 1.312 6.48 0.592 8.784-1.696l192-192c2.304-2.304 2.976-5.76 1.712-8.752-12.848-30.56-5.024-70.016 18.608-93.792 21.12-21.248 51.872-28.768 79.712-20.128l-47.36 47.376c-9.856 9.872-9.856 25.36 0 35.28zM467.36 490.352c-3.536 3.552-9.664 3.552-13.232-0.032l-160.48-160c-3.12-3.088-8.192-3.104-11.312 0.032-3.12 3.12-3.104 8.192 0.016 11.312l160.464 159.968c4.8 4.816 11.168 7.472 17.952 7.472 0 0 0 0 0 0 6.784 0 13.152-2.656 18.048-7.584l22.864-23.888c9.84-9.888 9.84-25.392-0.016-35.296l-160-160c-3.12-3.12-8.192-3.12-11.312 0s-3.12 8.192 0 11.312l159.984 159.984c3.664 3.68 3.664 9.024-0.112 12.832l-22.864 23.888zM93.664 50.336l-48-48c-3.12-3.12-8.192-3.12-11.312 0l-32 32c-3.12 3.12-3.12 8.192 0 11.312l48 48c1.552 1.568 3.6 2.352 5.648 2.352s4.096-0.784 5.664-2.336l10.336-10.352 122.336 122.336c1.568 1.568 3.616 2.352 5.664 2.352s4.096-0.784 5.664-2.336c3.12-3.12 3.12-8.192 0-11.312l-122.352-122.352 10.336-10.336c3.136-3.136 3.136-8.192 0.016-11.328zM56 76.688l-36.688-36.688 20.688-20.688 36.688 36.688-20.688 20.688z" fill="#000000"></path>
</svg>
