<?xml version="1.0" encoding="utf-8"?>
<!-- Generated by IcoMoon.io -->
<!DOCTYPE svg PUBLIC "-//W3C//DTD SVG 1.1//EN" "http://www.w3.org/Graphics/SVG/1.1/DTD/svg11.dtd">
<svg version="1.1" xmlns="http://www.w3.org/2000/svg" xmlns:xlink="http://www.w3.org/1999/xlink" width="592" height="512" viewBox="0 0 592 512">
<g>
</g>
	<path d="M120 0h-96c-13.904 0-24 10.096-24 24v464c0 13.904 10.096 24 24 24h544c13.904 0 24-10.096 24-24v-464c0-13.904-10.096-24-24-24h-448zM16 488v-464c0-5.008 2.992-8 8-8h88v480h-88c-5.008 0-8-2.992-8-8zM128 496v-480h336v480h-336zM576 24v464c0 5.008-2.992 8-8 8h-88v-480h88c5.008 0 8 2.992 8 8zM236.432 161.344c-2.448-1.632-5.616-1.792-8.224-0.4-2.576 1.392-4.208 4.096-4.208 7.056v192c0 2.96 1.632 5.664 4.224 7.056 1.184 0.624 2.48 0.944 3.776 0.944 1.552 0 3.088-0.448 4.432-1.344l144-96c2.224-1.488 3.568-3.984 3.568-6.656s-1.344-5.168-3.568-6.656l-144-96zM240 345.056v-162.112l121.584 81.056-121.584 81.056zM80 128h-32c-4.416 0-8 3.584-8 8s3.584 8 8 8h32c4.416 0 8-3.584 8-8s-3.584-8-8-8zM48 80h32c4.416 0 8-3.584 8-8s-3.584-8-8-8h-32c-4.416 0-8 3.584-8 8s3.584 8 8 8zM80 192h-32c-4.416 0-8 3.584-8 8s3.584 8 8 8h32c4.416 0 8-3.584 8-8s-3.584-8-8-8zM80 256h-32c-4.416 0-8 3.584-8 8s3.584 8 8 8h32c4.416 0 8-3.584 8-8s-3.584-8-8-8zM80 320h-32c-4.416 0-8 3.584-8 8s3.584 8 8 8h32c4.416 0 8-3.584 8-8s-3.584-8-8-8zM80 384h-32c-4.416 0-8 3.584-8 8s3.584 8 8 8h32c4.416 0 8-3.584 8-8s-3.584-8-8-8zM80 448h-32c-4.416 0-8 3.584-8 8s3.584 8 8 8h32c4.416 0 8-3.584 8-8s-3.584-8-8-8zM512 144h32c4.416 0 8-3.584 8-8s-3.584-8-8-8h-32c-4.416 0-8 3.584-8 8s3.584 8 8 8zM512 80h32c4.416 0 8-3.584 8-8s-3.584-8-8-8h-32c-4.416 0-8 3.584-8 8s3.584 8 8 8zM512 208h32c4.416 0 8-3.584 8-8s-3.584-8-8-8h-32c-4.416 0-8 3.584-8 8s3.584 8 8 8zM512 272h32c4.416 0 8-3.584 8-8s-3.584-8-8-8h-32c-4.416 0-8 3.584-8 8s3.584 8 8 8zM512 336h32c4.416 0 8-3.584 8-8s-3.584-8-8-8h-32c-4.416 0-8 3.584-8 8s3.584 8 8 8zM512 400h32c4.416 0 8-3.584 8-8s-3.584-8-8-8h-32c-4.416 0-8 3.584-8 8s3.584 8 8 8zM544 448h-32c-4.416 0-8 3.584-8 8s3.584 8 8 8h32c4.416 0 8-3.584 8-8s-3.584-8-8-8z" fill="#000000"></path>
</svg>
