<?xml version="1.0" encoding="utf-8"?>
<!-- Generated by IcoMoon.io -->
<!DOCTYPE svg PUBLIC "-//W3C//DTD SVG 1.1//EN" "http://www.w3.org/Graphics/SVG/1.1/DTD/svg11.dtd">
<svg version="1.1" xmlns="http://www.w3.org/2000/svg" xmlns:xlink="http://www.w3.org/1999/xlink" width="608" height="512" viewBox="0 0 608 512">
<g>
</g>
	<path d="M520.144 120c4.416 0 8-3.584 8-8v-26.64c0-14.448-11.76-26.208-26.208-26.208h-42.992l-9.808-28.944c-1.376-4.080-5.76-6.352-9.904-5.088l-232.848 70.784c-4.224 1.296-6.608 5.76-5.328 9.984 1.056 3.456 4.224 5.664 7.664 5.664 0.768 0 1.552-0.112 2.336-0.336l225.424-68.544 21.488 63.44c1.424 4.192 6 6.464 10.144 5.008 4.192-1.408 6.432-5.968 5.008-10.144l-8.752-25.84h37.584c5.632 0 10.208 4.576 10.208 10.208v26.656c-0.016 4.416 3.568 8 7.984 8zM584 240c-4.416 0-8 3.584-8 8s3.584 8 8 8c5.616 0 8 2.384 8 8v96c0 5.616-2.384 8-8 8h-128c-5.616 0-8-2.384-8-8v-80c0-5.616 2.384-8 8-8h96c4.416 0 8-3.584 8-8v-96c0-14.576-9.424-24-24-24h-488c-19.728 0-32-12.272-32-32s12.272-32 32-32h81.216l-48.416 15.968c-4.192 1.376-6.48 5.904-5.104 10.096 1.104 3.36 4.24 5.488 7.6 5.488 0.832 0 1.664-0.128 2.512-0.4l289.904-95.568c4.192-1.392 6.48-5.904 5.088-10.112-1.376-4.192-5.904-6.48-10.112-5.088l-193.6 63.84c-0.368-0.064-0.704-0.224-1.088-0.224h-128c-28.704 0-48 19.296-48 48v352c0 28.704 19.296 48 48 48h488c14.576 0 24-9.424 24-24v-80c0-4.416-3.584-8-8-8s-8 3.584-8 8v80c0 5.616-2.384 8-8 8h-488c-19.728 0-32-12.272-32-32v-315.008c8.208 6.928 19.072 11.008 32 11.008h488c5.616 0 8 2.384 8 8v88h-88c-14.576 0-24 9.424-24 24v80c0 14.576 9.424 24 24 24h128c14.576 0 24-9.424 24-24v-96c0-14.576-9.424-24-24-24zM496 320c0 8.837 7.163 16 16 16s16-7.163 16-16c0-8.837-7.163-16-16-16s-16 7.163-16 16z" fill="#000000"></path>
</svg>
