<?xml version="1.0" encoding="utf-8"?>
<!-- Generated by IcoMoon.io -->
<!DOCTYPE svg PUBLIC "-//W3C//DTD SVG 1.1//EN" "http://www.w3.org/Graphics/SVG/1.1/DTD/svg11.dtd">
<svg version="1.1" xmlns="http://www.w3.org/2000/svg" xmlns:xlink="http://www.w3.org/1999/xlink" width="368" height="512" viewBox="0 0 368 512">
<g>
</g>
	<path d="M364.832 122.576c0-36.048-10.992-88.544-31.984-119.104-1.488-2.176-3.952-3.472-6.592-3.472h-287.68c-2.64 0-5.104 1.296-6.592 3.472-20.992 30.592-31.984 83.072-31.984 119.104 0 94.912 75.68 200.464 176 205.904v135.52h-65.584c-18.256-1.2-32 12.544-32 30.8v9.2c0 4.416 3.584 8 8 8h192c4.416 0 8-3.584 8-8v-8c0-18.624-14.064-33.2-32-32h-62.416v-135.52c100.32-5.44 172.832-110.992 172.832-205.904zM270.416 496h-176v-1.2c0-9.424 6.576-16 16-16h144c9.136 0 16 7.392 16 17.2zM42.912 16h279.008c16.848 27.072 26.096 71.52 26.768 102.848-13.52-3.136-27.936-4.96-44.32-4.96-50.576 0-76.144 14.736-100.88 28.992-23.952 13.808-46.576 26.848-92.864 26.848s-68.88-13.072-92.816-26.88l-0.48-0.288c-0.8-6.704-1.328-13.392-1.328-19.984 0-31.408 9.408-78.432 26.912-106.576zM20.976 163.008c21.712 11.984 46.608 22.688 89.664 22.688 50.56 0 76.128-14.736 100.864-28.992 23.952-13.792 46.576-26.848 92.88-26.848 16.4 0 30.704 1.76 43.824 5.12-6.352 84.992-76.432 178-165.776 178-79.584 0.016-143.824-73.792-161.456-149.968z" fill="#000000"></path>
</svg>
